<svg width="3501" height="5e3" fill="none" version="1.1" viewBox="0 0 3501 5e3" xml:space="preserve" xmlns="http://www.w3.org/2000/svg"><g transform="translate(-749)" clip-path="url(#h)" fill="none"><g filter="url(#g)"><path d="m3599 204.4c-102.9 1.621-464 3.455-802.4 4.071l-615.3 1.118-33.26 18.74c-18.29 10.31-36.33 21.35-40.1 24.55-7.72 6.554-98.66 51.7-142.8 70.9-16 6.957-45 17.39-64.44 23.19-90.81 27.08-136.7 26.13-219.5-4.554-30.53-11.31-32.81-14.43-21.83-29.85 5.01-7.036 7.21-12.8 4.88-12.8s-6.01 3.185-8.2 7.081c-3.29 5.88-5.05 6.171-10.41 1.722-3.56-2.949-8.18-4.296-10.29-2.994-4.83 2.99-38.66-22.6-49.43-37.39l-8.1-11.12-2.79 126.4c-2.96 134.1-8.37 495.5-15.11 1009-2.26 172-6.92 405.9-10.35 519.8-5.45 180.6-14.69 811.9-14.69 1003 0 62.63-0.47 66.66-7.87 66.66-4.33 0-8.95 2.8-10.26 6.24-1.49 3.87-7.83 6.23-16.74 6.23-12.11 0-15.82 2.43-23.86 15.6-5.24 8.58-12.4 17.87-15.93 20.66-5.71 4.51-5.65 5.08 0.62 5.19 9.39 0.18 13.46 7.53 7.89 14.25-3.02 3.63-3.3 11.88-0.86 24.96 4.39 23.5 6.87 26.51 16.77 20.33 6.99-4.37 7.63-2.9 8.12 18.56 0.36 15.55-1.77 26.84-6.42 33.92-8.58 13.11-22.48 25.02-29.41 25.2-2.86 0.08-5.2 2.72-5.2 5.87s-4.21 8.84-9.35 12.63c-6.42 4.74-7.73 7.62-4.16 9.18 8.41 3.66 5.94 9.3-3.04 6.95-6.16-1.61-9.34 0.71-12.56 9.19-3.74 9.83-2.84 12.82 6.68 22.3 10.7 10.66 10.76 10.98 2.16 12.28-16.52 2.48-10.19 13.22 7.8 13.22 18.02 0 18.75 0.75 12.38 12.66-3.64 6.78-2.21 8.8 9.77 13.81 19.42 8.11 33.8 28.74 27.82 39.92-3.37 6.3-3 11.27 1.49 19.95 5.02 9.72 5.09 13.21 0.44 21.87-4.73 8.81-4.58 11.36 1.03 17.58 6 6.66 5.95 7.28-0.56 7.28-11.79 0-3.26 7.75 14.33 13.02 19.23 5.76 38.7 27.83 32.83 37.19-2.05 3.26-2.63 9.42-1.3 13.7 1.33 4.27-0.03 12.35-3.02 17.94-4.49 8.39-4.48 10.76 0.02 13.55 4.02 2.48 2.03 5.42-7.46 11.02-13.34 7.89-15.69 11.98-9.17 16.01 4.12 2.55-3.83 23.02-8.96 23.08-6.72 0.07-2.65 7.94 5.43 10.5 9.86 3.13 17.4 19.45 17.11 37.03-0.12 7.26 5.09 19.53 12.94 30.47l13.15 18.31-10.29 7.9c-8.34 6.42-8.91 7.93-3.01 8 10.17 0.13 9.79 28.53-0.63 46.64-4.35 7.56-9.17 19.81-10.72 27.22-3.27 15.72-17.83 28.53-36.65 32.24-24.53 4.84-36.25 11.31-38.78 21.4-1.37 5.46-5.22 11.45-8.55 13.32-3.33 1.86-6.59 7.92-7.23 13.46s-2.47 15.85-4.05 22.92c-2.07 9.21-1.08 14.35 3.49 18.15 8.8 7.3 3.92 13.23-8.34 10.15-8.2-2.06-10.14-0.97-10.14 5.71 0 4.54-2.81 10.59-6.24 13.44-3.43 2.84-6.23 8.24-6.23 11.98s-3.82 9.19-8.5 12.11c-8.45 5.28-8.44 5.4 2.55 25.59 12.03 22.12 10.49 31.36-4.62 27.57-7.36-1.84-10.31-0.35-12.42 6.29-3.09 9.74-31.65 24.34-47.9 24.48-19.18 0.17-29.29 21.79-12.26 26.25 8.71 2.28 11.28 13.1 4.16 17.5-2.29 1.42-4.16 8.42-4.16 15.55 0 19.52-30.48 64.27-46.1 67.7-19.93 4.38-33.33 26.29-37.1 60.69-2.41 21.95-5.58 31.92-12.24 38.49-8.92 8.8-9.02 8.8-15.09 0.62-3.73-5.02-5.17-12.58-3.68-19.35 1.47-6.67 0.43-12.37-2.59-14.24-5.24-3.24-7.17-1.1-24.35 27.16-11.2 18.4-23.95 23.33-19.13 7.39 5.56-18.39 4.67-21.83-5.68-21.83-12.18 0-25.48 20.39-22.35 34.27 1.39 6.13-0.17 10.19-4.57 11.88-3.67 1.41-6.68 6.1-6.68 10.43 0 10.72-4.32 9.88-14.41-2.77l-8.48-10.65 0.13 31.3c0.15 34.47 7.29 49.55 28.33 59.87 6.66 3.27 11.06 8.85 11.06 14.02 0 7.06 1.09 7.7 6.05 3.58 5.92-4.91 14.74-2.81 14.74 3.5 0 7.39-30.57 38.26-35.87 36.22-8.65-3.32-18.18 1.73-18.18 9.64 0 10.25-8.39 17.02-21.11 17.02-13.18 0-21.67 8.66-17.96 18.31 2.88 7.53 13.34 6.05 29.57-4.19 5.07-3.19 11.88-5.8 15.14-5.8 6.85 0 12.19 16.99 8.42 26.81-4.34 11.32-36.17 27.24-54.45 27.24-17.01 0-29.2 8.3-24.16 16.46 1.47 2.38 8.18 4.34 14.91 4.34 13.8 0 15.57 6.04 5.16 17.55-6.17 6.82-6.38 9.51-1.61 21.12 10.74 26.14 10.43 34.83-1.51 42.66-9.42 6.17-10.84 9.71-9.78 24.28 1.33 18.11 1.28 18.14-23.69 14.21-5.2-0.82-8.31 1.03-8.31 4.93 0 4.28 6.85 7.4 21.89 9.95 17.82 3.02 22.35 5.49 24.3 13.28 3.3 13.17-1.18 19.37-10.44 14.42-4.06-2.18-11.57-2.87-16.67-1.53-5.98 1.56-13.55-0.73-21.29-6.45-23.87-17.65-26.07-11.05-8.16 24.43 9.58 19 16.36 26.73 29.1 33.23 10.84 5.53 16.6 11.31 16.6 16.63 0 11.58-16.84 14.72-33.28 6.21-16.8-8.68-23.44-3.73-17.67 13.17 3.81 11.15 5.22 11.73 25.42 10.64 17.5-0.96 21.38 0.07 21.38 5.64 0 4.55 2.22 5.95 6.7 4.23 7.32-2.81 30.54 9.6 48.04 25.67l11.09 10.18 7.62-9.63c4.19-5.3 14.84-16.49 23.66-24.87 15.3-14.52 15.91-16.08 13-33.44-1.68-10.04-8.41-25-15.01-33.35-6.57-8.34-11.95-19.39-11.95-24.58 0-13.37 31.49-53.83 41.89-53.83 9.21 0 20.18 10.45 39.18 37.31 19.77 27.96 41.13 32.2 71.79 14.23 13.84-8.11 21.72-10.17 31.44-8.23 7.92 1.58 20.57-0.14 32.55-4.45 16.64-5.99 20.62-6.2 26.43-1.38 7.32 6.08 6.76 11.81-3.97 40.78-5.57 15.02-5.79 19.81-1.35 29.11 4.51 9.47 8.33 11.33 25.38 12.42 23.27 1.49 36.44-5.4 48.65-25.42 13.23-21.7 10.76-38.36-8.5-57.44-19.79-19.59-21.79-34.8-6.47-49.2 5.6-5.25 10.74-14.46 11.44-20.47 0.89-7.68 3.71-10.93 9.48-10.93 5.86 0 11.37 6.58 19.22 22.97 8.63 17.99 15.67 25.86 32.6 36.38 11.87 7.38 23.5 13.42 25.85 13.42 2.34 0 11.76-6.42 20.94-14.28 38.11-32.63 64.85-34.43 104-7.01 12.36 8.66 31.42 20.21 42.36 25.68 10.93 5.46 34.21 21.92 51.73 36.57 34.41 28.79 51.68 38.05 70.9 38.05 18.35 0 34.98 16.46 43.3 42.82 6 19.05 9.03 23.13 18.54 24.98 15.42 3 37.65-8.2 47.26-23.8 11.63-18.87 20.83-51.09 22.55-78.89 1.11-18.23 3.88-27.04 10.77-34.38 15.78-16.79 44.08-30.81 66.99-33.18 36.09-3.74 46.27-8.72 67.11-32.87 11.13-12.89 28.75-27.44 40.37-33.33 19.74-10.01 21.11-10.16 32.31-3.54 7.79 4.6 14.18 14 19.19 28.21 15.84 45.01 44.43 89.92 57.23 89.92 2 0 11.79-5.61 21.76-12.47 18.38-12.65 25.24-14.49 37.07-9.95 8.29 3.18 8.33 15.03 0.12 42.65-3.55 11.96-5.29 25.4-3.87 29.87 3.13 9.88 18.23 10.7 35.23 1.91 19.13-9.9 24.99-21.79 24.99-50.7 0-31.7 5.25-35.98 39.2-31.99 17.72 2.08 25.3 1.13 33.43-4.2 12.8-8.38 12.98-12.55 1.66-38.14-7.4-16.74-8.49-25.27-6.66-51.98 2.99-43.72 6.71-49.63 31.25-49.71 22.99-0.07 36.45-6.1 47.81-21.4 10.67-14.39 7.11-28.32-9.66-37.76-10.29-5.79-12.6-9.54-11.55-18.71 1.87-16.23 19.86-17.84 38.71-3.45 16.75 12.77 21.51 13.3 24.85 2.75 4-12.59 12.94-17.7 35.98-20.57 36.7-4.57 39.23-27.27 3.99-35.86-19.45-4.73-27.3-14.39-23.63-29.03 3.97-15.83 13.46-15.53 33.33 1.04 10.18 8.49 24.62 19.18 32.09 23.75 21.52 13.18 28.99 29.48 23.82 52-2.36 10.28-3.48 28.83-2.51 41.21 1.96 24.68 7.95 31.86 52.23 62.58 29.31 20.34 43.31 24.3 67.96 19.25 31.23-6.4 52.41 2.38 65.85 27.3 15.13 28.04 24.83 37.84 31.77 32.08 3.08-2.56 5.6-10.86 5.6-18.45s1.56-14.76 3.46-15.93c1.9-1.18 21.07-5.97 42.61-10.66 47.96-10.43 52.12-14.97 64.77-70.77 7.18-31.67 8.53-47.54 6.71-79.24-2.71-46.97 0.73-56.15 34.27-91.6 18.23-19.27 22.71-27.12 26.86-47.15 5.98-28.81 14.24-38.07 37.43-41.99 15.28-2.58 18.84-1.6 28.74 7.88 6.21 5.95 14.1 10.82 17.54 10.82 10.29 0 54.82-28.44 66.98-42.78 16.88-19.9 28.16-46.39 28.26-66.33 0.05-9.75 4.66-30.82 10.24-46.83 13.42-38.47 30.42-54.03 63.55-58.18 40.78-5.09 52.47-12.02 67.32-39.87 9.72-18.25 17.39-26.88 29.26-32.93 8.84-4.52 19.01-12.39 22.59-17.51 9.16-13.08 8.09-37.98-2.53-58.55-6.54-12.69-9.49-27.22-10.71-52.85-1.07-22.34-4.8-43.11-10.14-56.44l-8.45-21.1 8.83-17.3c13.24-25.96 23.9-31.33 53.32-26.88 17.15 2.6 30.36 2.1 44.93-1.68 25.36-6.57 60.53-7.05 73.81-1 5.45 2.49 12.99 9.76 16.78 16.17s13.52 17.48 21.62 24.6c25.1 22.04 50.42 16.31 92.06-20.85 13.78-12.29 30.48-25.15 37.12-28.57s26.1-15.3 43.25-26.39c29.26-18.94 32.45-20.03 51.69-17.8 16.54 1.92 25.17 0.28 44.64-8.46 24.81-11.14 24.44-11.12 75.12-3.01 20.04 3.2 23.95-5.23 11.91-25.65-12.45-21.1-11.12-27.65 9.96-49.03 10.29-10.44 18.71-22 18.71-25.69 0-19.36-19.63-31.11-51.94-31.11-12.18 0-19.73-2.52-24.99-8.34-9.37-10.35-5.95-19.04 18.23-46.36 9.42-10.64 17.08-21.87 17.03-24.95-0.17-10.72-15.62-39.05-36.79-67.5-11.73-15.75-21.32-31.12-21.32-34.16 0-3.03 6.24-9.8 13.86-15.02 7.63-5.23 22.26-16.99 32.53-26.14l18.65-16.64-3.23-343.1c-1.78-188.7-5.16-624.7-7.51-968.9-2.35-344.2-7.05-748.4-10.44-898.2-3.39-149.8-8.15-385.6-10.57-524-2.44-138.4-5.48-268.9-6.77-290l-2.35-38.46-69.25 0.74c-38.08 0.408-153.4 2.067-256.3 3.693z" clip-rule="evenodd" fill="none" fill-rule="evenodd" stroke="#464eff" stroke-linejoin="round" stroke-width="100"/></g><g filter="url(#f)"><path d="m3599 204.4c-102.9 1.621-464 3.455-802.4 4.071l-615.3 1.118-33.26 18.74c-18.29 10.31-36.33 21.35-40.1 24.55-7.72 6.554-98.66 51.7-142.8 70.9-16 6.957-45 17.39-64.44 23.19-90.81 27.08-136.7 26.13-219.5-4.554-30.53-11.31-32.81-14.43-21.83-29.85 5.01-7.036 7.21-12.8 4.88-12.8s-6.01 3.185-8.2 7.081c-3.29 5.88-5.05 6.171-10.41 1.722-3.56-2.949-8.18-4.296-10.29-2.994-4.83 2.99-38.66-22.6-49.43-37.39l-8.1-11.12-2.79 126.4c-2.96 134.1-8.37 495.5-15.11 1009-2.26 172-6.92 405.9-10.35 519.8-5.45 180.6-14.69 811.9-14.69 1003 0 62.63-0.47 66.66-7.87 66.66-4.33 0-8.95 2.8-10.26 6.24-1.49 3.87-7.83 6.23-16.74 6.23-12.11 0-15.82 2.43-23.86 15.6-5.24 8.58-12.4 17.87-15.93 20.66-5.71 4.51-5.65 5.08 0.62 5.19 9.39 0.18 13.46 7.53 7.89 14.25-3.02 3.63-3.3 11.88-0.86 24.96 4.39 23.5 6.87 26.51 16.77 20.33 6.99-4.37 7.63-2.9 8.12 18.56 0.36 15.55-1.77 26.84-6.42 33.92-8.58 13.11-22.48 25.02-29.41 25.2-2.86 0.08-5.2 2.72-5.2 5.87s-4.21 8.84-9.35 12.63c-6.42 4.74-7.73 7.62-4.16 9.18 8.41 3.66 5.94 9.3-3.04 6.95-6.16-1.61-9.34 0.71-12.56 9.19-3.74 9.83-2.84 12.82 6.68 22.3 10.7 10.66 10.76 10.98 2.16 12.28-16.52 2.48-10.19 13.22 7.8 13.22 18.02 0 18.75 0.75 12.38 12.66-3.64 6.78-2.21 8.8 9.77 13.81 19.42 8.11 33.8 28.74 27.82 39.92-3.37 6.3-3 11.27 1.49 19.95 5.02 9.72 5.09 13.21 0.44 21.87-4.73 8.81-4.58 11.36 1.03 17.58 6 6.66 5.95 7.28-0.56 7.28-11.79 0-3.26 7.75 14.33 13.02 19.23 5.76 38.7 27.83 32.83 37.19-2.05 3.26-2.63 9.42-1.3 13.7 1.33 4.27-0.03 12.35-3.02 17.94-4.49 8.39-4.48 10.76 0.02 13.55 4.02 2.48 2.03 5.42-7.46 11.02-13.34 7.89-15.69 11.98-9.17 16.01 4.12 2.55-3.83 23.02-8.96 23.08-6.72 0.07-2.65 7.94 5.43 10.5 9.86 3.13 17.4 19.45 17.11 37.03-0.12 7.26 5.09 19.53 12.94 30.47l13.15 18.31-10.29 7.9c-8.34 6.42-8.91 7.93-3.01 8 10.17 0.13 9.79 28.53-0.63 46.64-4.35 7.56-9.17 19.81-10.72 27.22-3.27 15.72-17.83 28.53-36.65 32.24-24.53 4.84-36.25 11.31-38.78 21.4-1.37 5.46-5.22 11.45-8.55 13.32-3.33 1.86-6.59 7.92-7.23 13.46s-2.47 15.85-4.05 22.92c-2.07 9.21-1.08 14.35 3.49 18.15 8.8 7.3 3.92 13.23-8.34 10.15-8.2-2.06-10.14-0.97-10.14 5.71 0 4.54-2.81 10.59-6.24 13.44-3.43 2.84-6.23 8.24-6.23 11.98s-3.82 9.19-8.5 12.11c-8.45 5.28-8.44 5.4 2.55 25.59 12.03 22.12 10.49 31.36-4.62 27.57-7.36-1.84-10.31-0.35-12.42 6.29-3.09 9.74-31.65 24.34-47.9 24.48-19.18 0.17-29.29 21.79-12.26 26.25 8.71 2.28 11.28 13.1 4.16 17.5-2.29 1.42-4.16 8.42-4.16 15.55 0 19.52-30.48 64.27-46.1 67.7-19.93 4.38-33.33 26.29-37.1 60.69-2.41 21.95-5.58 31.92-12.24 38.49-8.92 8.8-9.02 8.8-15.09 0.62-3.73-5.02-5.17-12.58-3.68-19.35 1.47-6.67 0.43-12.37-2.59-14.24-5.24-3.24-7.17-1.1-24.35 27.16-11.2 18.4-23.95 23.33-19.13 7.39 5.56-18.39 4.67-21.83-5.68-21.83-12.18 0-25.48 20.39-22.35 34.27 1.39 6.13-0.17 10.19-4.57 11.88-3.67 1.41-6.68 6.1-6.68 10.43 0 10.72-4.32 9.88-14.41-2.77l-8.48-10.65 0.13 31.3c0.15 34.47 7.29 49.55 28.33 59.87 6.66 3.27 11.06 8.85 11.06 14.02 0 7.06 1.09 7.7 6.05 3.58 5.92-4.91 14.74-2.81 14.74 3.5 0 7.39-30.57 38.26-35.87 36.22-8.65-3.32-18.18 1.73-18.18 9.64 0 10.25-8.39 17.02-21.11 17.02-13.18 0-21.67 8.66-17.96 18.31 2.88 7.53 13.34 6.05 29.57-4.19 5.07-3.19 11.88-5.8 15.14-5.8 6.85 0 12.19 16.99 8.42 26.81-4.34 11.32-36.17 27.24-54.45 27.24-17.01 0-29.2 8.3-24.16 16.46 1.47 2.38 8.18 4.34 14.91 4.34 13.8 0 15.57 6.04 5.16 17.55-6.17 6.82-6.38 9.51-1.61 21.12 10.74 26.14 10.43 34.83-1.51 42.66-9.42 6.17-10.84 9.71-9.78 24.28 1.33 18.11 1.28 18.14-23.69 14.21-5.2-0.82-8.31 1.03-8.31 4.93 0 4.28 6.85 7.4 21.89 9.95 17.82 3.02 22.35 5.49 24.3 13.28 3.3 13.17-1.18 19.37-10.44 14.42-4.06-2.18-11.57-2.87-16.67-1.53-5.98 1.56-13.55-0.73-21.29-6.45-23.87-17.65-26.07-11.05-8.16 24.43 9.58 19 16.36 26.73 29.1 33.23 10.84 5.53 16.6 11.31 16.6 16.63 0 11.58-16.84 14.72-33.28 6.21-16.8-8.68-23.44-3.73-17.67 13.17 3.81 11.15 5.22 11.73 25.42 10.64 17.5-0.96 21.38 0.07 21.38 5.64 0 4.55 2.22 5.95 6.7 4.23 7.32-2.81 30.54 9.6 48.04 25.67l11.09 10.18 7.62-9.63c4.19-5.3 14.84-16.49 23.66-24.87 15.3-14.52 15.91-16.08 13-33.44-1.68-10.04-8.41-25-15.01-33.35-6.57-8.34-11.95-19.39-11.95-24.58 0-13.37 31.49-53.83 41.89-53.83 9.21 0 20.18 10.45 39.18 37.31 19.77 27.96 41.13 32.2 71.79 14.23 13.84-8.11 21.72-10.17 31.44-8.23 7.92 1.58 20.57-0.14 32.55-4.45 16.64-5.99 20.62-6.2 26.43-1.38 7.32 6.08 6.76 11.81-3.97 40.78-5.57 15.02-5.79 19.81-1.35 29.11 4.51 9.47 8.33 11.33 25.38 12.42 23.27 1.49 36.44-5.4 48.65-25.42 13.23-21.7 10.76-38.36-8.5-57.44-19.79-19.59-21.79-34.8-6.47-49.2 5.6-5.25 10.74-14.46 11.44-20.47 0.89-7.68 3.71-10.93 9.48-10.93 5.86 0 11.37 6.58 19.22 22.97 8.63 17.99 15.67 25.86 32.6 36.38 11.87 7.38 23.5 13.42 25.85 13.42 2.34 0 11.76-6.42 20.94-14.28 38.11-32.63 64.85-34.43 104-7.01 12.36 8.66 31.42 20.21 42.36 25.68 10.93 5.46 34.21 21.92 51.73 36.57 34.41 28.79 51.68 38.05 70.9 38.05 18.35 0 34.98 16.46 43.3 42.82 6 19.05 9.03 23.13 18.54 24.98 15.42 3 37.65-8.2 47.26-23.8 11.63-18.87 20.83-51.09 22.55-78.89 1.11-18.23 3.88-27.04 10.77-34.38 15.78-16.79 44.08-30.81 66.99-33.18 36.09-3.74 46.27-8.72 67.11-32.87 11.13-12.89 28.75-27.44 40.37-33.33 19.74-10.01 21.11-10.16 32.31-3.54 7.79 4.6 14.18 14 19.19 28.21 15.84 45.01 44.43 89.92 57.23 89.92 2 0 11.79-5.61 21.76-12.47 18.38-12.65 25.24-14.49 37.07-9.95 8.29 3.18 8.33 15.03 0.12 42.65-3.55 11.96-5.29 25.4-3.87 29.87 3.13 9.88 18.23 10.7 35.23 1.91 19.13-9.9 24.99-21.79 24.99-50.7 0-31.7 5.25-35.98 39.2-31.99 17.72 2.08 25.3 1.13 33.43-4.2 12.8-8.38 12.98-12.55 1.66-38.14-7.4-16.74-8.49-25.27-6.66-51.98 2.99-43.72 6.71-49.63 31.25-49.71 22.99-0.07 36.45-6.1 47.81-21.4 10.67-14.39 7.11-28.32-9.66-37.76-10.29-5.79-12.6-9.54-11.55-18.71 1.87-16.23 19.86-17.84 38.71-3.45 16.75 12.77 21.51 13.3 24.85 2.75 4-12.59 12.94-17.7 35.98-20.57 36.7-4.57 39.23-27.27 3.99-35.86-19.45-4.73-27.3-14.39-23.63-29.03 3.97-15.83 13.46-15.53 33.33 1.04 10.18 8.49 24.62 19.18 32.09 23.75 21.52 13.18 28.99 29.48 23.82 52-2.36 10.28-3.48 28.83-2.51 41.21 1.96 24.68 7.95 31.86 52.23 62.58 29.31 20.34 43.31 24.3 67.96 19.25 31.23-6.4 52.41 2.38 65.85 27.3 15.13 28.04 24.83 37.84 31.77 32.08 3.08-2.56 5.6-10.86 5.6-18.45s1.56-14.76 3.46-15.93c1.9-1.18 21.07-5.97 42.61-10.66 47.96-10.43 52.12-14.97 64.77-70.77 7.18-31.67 8.53-47.54 6.71-79.24-2.71-46.97 0.73-56.15 34.27-91.6 18.23-19.27 22.71-27.12 26.86-47.15 5.98-28.81 14.24-38.07 37.43-41.99 15.28-2.58 18.84-1.6 28.74 7.88 6.21 5.95 14.1 10.82 17.54 10.82 10.29 0 54.82-28.44 66.98-42.78 16.88-19.9 28.16-46.39 28.26-66.33 0.05-9.75 4.66-30.82 10.24-46.83 13.42-38.47 30.42-54.03 63.55-58.18 40.78-5.09 52.47-12.02 67.32-39.87 9.72-18.25 17.39-26.88 29.26-32.93 8.84-4.52 19.01-12.39 22.59-17.51 9.16-13.08 8.09-37.98-2.53-58.55-6.54-12.69-9.49-27.22-10.71-52.85-1.07-22.34-4.8-43.11-10.14-56.44l-8.45-21.1 8.83-17.3c13.24-25.96 23.9-31.33 53.32-26.88 17.15 2.6 30.36 2.1 44.93-1.68 25.36-6.57 60.53-7.05 73.81-1 5.45 2.49 12.99 9.76 16.78 16.17s13.52 17.48 21.62 24.6c25.1 22.04 50.42 16.31 92.06-20.85 13.78-12.29 30.48-25.15 37.12-28.57s26.1-15.3 43.25-26.39c29.26-18.94 32.45-20.03 51.69-17.8 16.54 1.92 25.17 0.28 44.64-8.46 24.81-11.14 24.44-11.12 75.12-3.01 20.04 3.2 23.95-5.23 11.91-25.65-12.45-21.1-11.12-27.65 9.96-49.03 10.29-10.44 18.71-22 18.71-25.69 0-19.36-19.63-31.11-51.94-31.11-12.18 0-19.73-2.52-24.99-8.34-9.37-10.35-5.95-19.04 18.23-46.36 9.42-10.64 17.08-21.87 17.03-24.95-0.17-10.72-15.62-39.05-36.79-67.5-11.73-15.75-21.32-31.12-21.32-34.16 0-3.03 6.24-9.8 13.86-15.02 7.63-5.23 22.26-16.99 32.53-26.14l18.65-16.64-3.23-343.1c-1.78-188.7-5.16-624.7-7.51-968.9-2.35-344.2-7.05-748.4-10.44-898.2-3.39-149.8-8.15-385.6-10.57-524-2.44-138.4-5.48-268.9-6.77-290l-2.35-38.46-69.25 0.74c-38.08 0.408-153.4 2.067-256.3 3.693z" clip-rule="evenodd" fill="none" fill-rule="evenodd" stroke="#464eff" stroke-linejoin="round" stroke-width="100"/></g><g filter="url(#e)"><path d="m3599 204.4c-102.9 1.621-464 3.455-802.4 4.071l-615.3 1.118-33.26 18.74c-18.29 10.31-36.33 21.35-40.1 24.55-7.72 6.554-98.66 51.7-142.8 70.9-16 6.957-45 17.39-64.44 23.19-90.81 27.08-136.7 26.13-219.5-4.554-30.53-11.31-32.81-14.43-21.83-29.85 5.01-7.036 7.21-12.8 4.88-12.8s-6.01 3.185-8.2 7.081c-3.29 5.88-5.05 6.171-10.41 1.722-3.56-2.949-8.18-4.296-10.29-2.994-4.83 2.99-38.66-22.6-49.43-37.39l-8.1-11.12-2.79 126.4c-2.96 134.1-8.37 495.5-15.11 1009-2.26 172-6.92 405.9-10.35 519.8-5.45 180.6-14.69 811.9-14.69 1003 0 62.63-0.47 66.66-7.87 66.66-4.33 0-8.95 2.8-10.26 6.24-1.49 3.87-7.83 6.23-16.74 6.23-12.11 0-15.82 2.43-23.86 15.6-5.24 8.58-12.4 17.87-15.93 20.66-5.71 4.51-5.65 5.08 0.62 5.19 9.39 0.18 13.46 7.53 7.89 14.25-3.02 3.63-3.3 11.88-0.86 24.96 4.39 23.5 6.87 26.51 16.77 20.33 6.99-4.37 7.63-2.9 8.12 18.56 0.36 15.55-1.77 26.84-6.42 33.92-8.58 13.11-22.48 25.02-29.41 25.2-2.86 0.08-5.2 2.72-5.2 5.87s-4.21 8.84-9.35 12.63c-6.42 4.74-7.73 7.62-4.16 9.18 8.41 3.66 5.94 9.3-3.04 6.95-6.16-1.61-9.34 0.71-12.56 9.19-3.74 9.83-2.84 12.82 6.68 22.3 10.7 10.66 10.76 10.98 2.16 12.28-16.52 2.48-10.19 13.22 7.8 13.22 18.02 0 18.75 0.75 12.38 12.66-3.64 6.78-2.21 8.8 9.77 13.81 19.42 8.11 33.8 28.74 27.82 39.92-3.37 6.3-3 11.27 1.49 19.95 5.02 9.72 5.09 13.21 0.44 21.87-4.73 8.81-4.58 11.36 1.03 17.58 6 6.66 5.95 7.28-0.56 7.28-11.79 0-3.26 7.75 14.33 13.02 19.23 5.76 38.7 27.83 32.83 37.19-2.05 3.26-2.63 9.42-1.3 13.7 1.33 4.27-0.03 12.35-3.02 17.94-4.49 8.39-4.48 10.76 0.02 13.55 4.02 2.48 2.03 5.42-7.46 11.02-13.34 7.89-15.69 11.98-9.17 16.01 4.12 2.55-3.83 23.02-8.96 23.08-6.72 0.07-2.65 7.94 5.43 10.5 9.86 3.13 17.4 19.45 17.11 37.03-0.12 7.26 5.09 19.53 12.94 30.47l13.15 18.31-10.29 7.9c-8.34 6.42-8.91 7.93-3.01 8 10.17 0.13 9.79 28.53-0.63 46.64-4.35 7.56-9.17 19.81-10.72 27.22-3.27 15.72-17.83 28.53-36.65 32.24-24.53 4.84-36.25 11.31-38.78 21.4-1.37 5.46-5.22 11.45-8.55 13.32-3.33 1.86-6.59 7.92-7.23 13.46s-2.47 15.85-4.05 22.92c-2.07 9.21-1.08 14.35 3.49 18.15 8.8 7.3 3.92 13.23-8.34 10.15-8.2-2.06-10.14-0.97-10.14 5.71 0 4.54-2.81 10.59-6.24 13.44-3.43 2.84-6.23 8.24-6.23 11.98s-3.82 9.19-8.5 12.11c-8.45 5.28-8.44 5.4 2.55 25.59 12.03 22.12 10.49 31.36-4.62 27.57-7.36-1.84-10.31-0.35-12.42 6.29-3.09 9.74-31.65 24.34-47.9 24.48-19.18 0.17-29.29 21.79-12.26 26.25 8.71 2.28 11.28 13.1 4.16 17.5-2.29 1.42-4.16 8.42-4.16 15.55 0 19.52-30.48 64.27-46.1 67.7-19.93 4.38-33.33 26.29-37.1 60.69-2.41 21.95-5.58 31.92-12.24 38.49-8.92 8.8-9.02 8.8-15.09 0.62-3.73-5.02-5.17-12.58-3.68-19.35 1.47-6.67 0.43-12.37-2.59-14.24-5.24-3.24-7.17-1.1-24.35 27.16-11.2 18.4-23.95 23.33-19.13 7.39 5.56-18.39 4.67-21.83-5.68-21.83-12.18 0-25.48 20.39-22.35 34.27 1.39 6.13-0.17 10.19-4.57 11.88-3.67 1.41-6.68 6.1-6.68 10.43 0 10.72-4.32 9.88-14.41-2.77l-8.48-10.65 0.13 31.3c0.15 34.47 7.29 49.55 28.33 59.87 6.66 3.27 11.06 8.85 11.06 14.02 0 7.06 1.09 7.7 6.05 3.58 5.92-4.91 14.74-2.81 14.74 3.5 0 7.39-30.57 38.26-35.87 36.22-8.65-3.32-18.18 1.73-18.18 9.64 0 10.25-8.39 17.02-21.11 17.02-13.18 0-21.67 8.66-17.96 18.31 2.88 7.53 13.34 6.05 29.57-4.19 5.07-3.19 11.88-5.8 15.14-5.8 6.85 0 12.19 16.99 8.42 26.81-4.34 11.32-36.17 27.24-54.45 27.24-17.01 0-29.2 8.3-24.16 16.46 1.47 2.38 8.18 4.34 14.91 4.34 13.8 0 15.57 6.04 5.16 17.55-6.17 6.82-6.38 9.51-1.61 21.12 10.74 26.14 10.43 34.83-1.51 42.66-9.42 6.17-10.84 9.71-9.78 24.28 1.33 18.11 1.28 18.14-23.69 14.21-5.2-0.82-8.31 1.03-8.31 4.93 0 4.28 6.85 7.4 21.89 9.95 17.82 3.02 22.35 5.49 24.3 13.28 3.3 13.17-1.18 19.37-10.44 14.42-4.06-2.18-11.57-2.87-16.67-1.53-5.98 1.56-13.55-0.73-21.29-6.45-23.87-17.65-26.07-11.05-8.16 24.43 9.58 19 16.36 26.73 29.1 33.23 10.84 5.53 16.6 11.31 16.6 16.63 0 11.58-16.84 14.72-33.28 6.21-16.8-8.68-23.44-3.73-17.67 13.17 3.81 11.15 5.22 11.73 25.42 10.64 17.5-0.96 21.38 0.07 21.38 5.64 0 4.55 2.22 5.95 6.7 4.23 7.32-2.81 30.54 9.6 48.04 25.67l11.09 10.18 7.62-9.63c4.19-5.3 14.84-16.49 23.66-24.87 15.3-14.52 15.91-16.08 13-33.44-1.68-10.04-8.41-25-15.01-33.35-6.57-8.34-11.95-19.39-11.95-24.58 0-13.37 31.49-53.83 41.89-53.83 9.21 0 20.18 10.45 39.18 37.31 19.77 27.96 41.13 32.2 71.79 14.23 13.84-8.11 21.72-10.17 31.44-8.23 7.92 1.58 20.57-0.14 32.55-4.45 16.64-5.99 20.62-6.2 26.43-1.38 7.32 6.08 6.76 11.81-3.97 40.78-5.57 15.02-5.79 19.81-1.35 29.11 4.51 9.47 8.33 11.33 25.38 12.42 23.27 1.49 36.44-5.4 48.65-25.42 13.23-21.7 10.76-38.36-8.5-57.44-19.79-19.59-21.79-34.8-6.47-49.2 5.6-5.25 10.74-14.46 11.44-20.47 0.89-7.68 3.71-10.93 9.48-10.93 5.86 0 11.37 6.58 19.22 22.97 8.63 17.99 15.67 25.86 32.6 36.38 11.87 7.38 23.5 13.42 25.85 13.42 2.34 0 11.76-6.42 20.94-14.28 38.11-32.63 64.85-34.43 104-7.01 12.36 8.66 31.42 20.21 42.36 25.68 10.93 5.46 34.21 21.92 51.73 36.57 34.41 28.79 51.68 38.05 70.9 38.05 18.35 0 34.98 16.46 43.3 42.82 6 19.05 9.03 23.13 18.54 24.98 15.42 3 37.65-8.2 47.26-23.8 11.63-18.87 20.83-51.09 22.55-78.89 1.11-18.23 3.88-27.04 10.77-34.38 15.78-16.79 44.08-30.81 66.99-33.18 36.09-3.74 46.27-8.72 67.11-32.87 11.13-12.89 28.75-27.44 40.37-33.33 19.74-10.01 21.11-10.16 32.31-3.54 7.79 4.6 14.18 14 19.19 28.21 15.84 45.01 44.43 89.92 57.23 89.92 2 0 11.79-5.61 21.76-12.47 18.38-12.65 25.24-14.49 37.07-9.95 8.29 3.18 8.33 15.03 0.12 42.65-3.55 11.96-5.29 25.4-3.87 29.87 3.13 9.88 18.23 10.7 35.23 1.91 19.13-9.9 24.99-21.79 24.99-50.7 0-31.7 5.25-35.98 39.2-31.99 17.72 2.08 25.3 1.13 33.43-4.2 12.8-8.38 12.98-12.55 1.66-38.14-7.4-16.74-8.49-25.27-6.66-51.98 2.99-43.72 6.71-49.63 31.25-49.71 22.99-0.07 36.45-6.1 47.81-21.4 10.67-14.39 7.11-28.32-9.66-37.76-10.29-5.79-12.6-9.54-11.55-18.71 1.87-16.23 19.86-17.84 38.71-3.45 16.75 12.77 21.51 13.3 24.85 2.75 4-12.59 12.94-17.7 35.98-20.57 36.7-4.57 39.23-27.27 3.99-35.86-19.45-4.73-27.3-14.39-23.63-29.03 3.97-15.83 13.46-15.53 33.33 1.04 10.18 8.49 24.62 19.18 32.09 23.75 21.52 13.18 28.99 29.48 23.82 52-2.36 10.28-3.48 28.83-2.51 41.21 1.96 24.68 7.95 31.86 52.23 62.58 29.31 20.34 43.31 24.3 67.96 19.25 31.23-6.4 52.41 2.38 65.85 27.3 15.13 28.04 24.83 37.84 31.77 32.08 3.08-2.56 5.6-10.86 5.6-18.45s1.56-14.76 3.46-15.93c1.9-1.18 21.07-5.97 42.61-10.66 47.96-10.43 52.12-14.97 64.77-70.77 7.18-31.67 8.53-47.54 6.71-79.24-2.71-46.97 0.73-56.15 34.27-91.6 18.23-19.27 22.71-27.12 26.86-47.15 5.98-28.81 14.24-38.07 37.43-41.99 15.28-2.58 18.84-1.6 28.74 7.88 6.21 5.95 14.1 10.82 17.54 10.82 10.29 0 54.82-28.44 66.98-42.78 16.88-19.9 28.16-46.39 28.26-66.33 0.05-9.75 4.66-30.82 10.24-46.83 13.42-38.47 30.42-54.03 63.55-58.18 40.78-5.09 52.47-12.02 67.32-39.87 9.72-18.25 17.39-26.88 29.26-32.93 8.84-4.52 19.01-12.39 22.59-17.51 9.16-13.08 8.09-37.98-2.53-58.55-6.54-12.69-9.49-27.22-10.71-52.85-1.07-22.34-4.8-43.11-10.14-56.44l-8.45-21.1 8.83-17.3c13.24-25.96 23.9-31.33 53.32-26.88 17.15 2.6 30.36 2.1 44.93-1.68 25.36-6.57 60.53-7.05 73.81-1 5.45 2.49 12.99 9.76 16.78 16.17s13.52 17.48 21.62 24.6c25.1 22.04 50.42 16.31 92.06-20.85 13.78-12.29 30.48-25.15 37.12-28.57s26.1-15.3 43.25-26.39c29.26-18.94 32.45-20.03 51.69-17.8 16.54 1.92 25.17 0.28 44.64-8.46 24.81-11.14 24.44-11.12 75.12-3.01 20.04 3.2 23.95-5.23 11.91-25.65-12.45-21.1-11.12-27.65 9.96-49.03 10.29-10.44 18.71-22 18.71-25.69 0-19.36-19.63-31.11-51.94-31.11-12.18 0-19.73-2.52-24.99-8.34-9.37-10.35-5.95-19.04 18.23-46.36 9.42-10.64 17.08-21.87 17.03-24.95-0.17-10.72-15.62-39.05-36.79-67.5-11.73-15.75-21.32-31.12-21.32-34.16 0-3.03 6.24-9.8 13.86-15.02 7.63-5.23 22.26-16.99 32.53-26.14l18.65-16.64-3.23-343.1c-1.78-188.7-5.16-624.7-7.51-968.9-2.35-344.2-7.05-748.4-10.44-898.2-3.39-149.8-8.15-385.6-10.57-524-2.44-138.4-5.48-268.9-6.77-290l-2.35-38.46-69.25 0.74c-38.08 0.408-153.4 2.067-256.3 3.693z" clip-rule="evenodd" fill="none" fill-rule="evenodd" stroke="#464eff" stroke-linejoin="round" stroke-width="100"/></g><g filter="url(#d)"><path d="m3599 204.4c-102.9 1.621-464 3.455-802.4 4.071l-615.3 1.118-33.26 18.74c-18.29 10.31-36.33 21.35-40.1 24.55-7.72 6.554-98.66 51.7-142.8 70.9-16 6.957-45 17.39-64.44 23.19-90.81 27.08-136.7 26.13-219.5-4.554-30.53-11.31-32.81-14.43-21.83-29.85 5.01-7.036 7.21-12.8 4.88-12.8s-6.01 3.185-8.2 7.081c-3.29 5.88-5.05 6.171-10.41 1.722-3.56-2.949-8.18-4.296-10.29-2.994-4.83 2.99-38.66-22.6-49.43-37.39l-8.1-11.12-2.79 126.4c-2.96 134.1-8.37 495.5-15.11 1009-2.26 172-6.92 405.9-10.35 519.8-5.45 180.6-14.69 811.9-14.69 1003 0 62.63-0.47 66.66-7.87 66.66-4.33 0-8.95 2.8-10.26 6.24-1.49 3.87-7.83 6.23-16.74 6.23-12.11 0-15.82 2.43-23.86 15.6-5.24 8.58-12.4 17.87-15.93 20.66-5.71 4.51-5.65 5.08 0.62 5.19 9.39 0.18 13.46 7.53 7.89 14.25-3.02 3.63-3.3 11.88-0.86 24.96 4.39 23.5 6.87 26.51 16.77 20.33 6.99-4.37 7.63-2.9 8.12 18.56 0.36 15.55-1.77 26.84-6.42 33.92-8.58 13.11-22.48 25.02-29.41 25.2-2.86 0.08-5.2 2.72-5.2 5.87s-4.21 8.84-9.35 12.63c-6.42 4.74-7.73 7.62-4.16 9.18 8.41 3.66 5.94 9.3-3.04 6.95-6.16-1.61-9.34 0.71-12.56 9.19-3.74 9.83-2.84 12.82 6.68 22.3 10.7 10.66 10.76 10.98 2.16 12.28-16.52 2.48-10.19 13.22 7.8 13.22 18.02 0 18.75 0.75 12.38 12.66-3.64 6.78-2.21 8.8 9.77 13.81 19.42 8.11 33.8 28.74 27.82 39.92-3.37 6.3-3 11.27 1.49 19.95 5.02 9.72 5.09 13.21 0.44 21.87-4.73 8.81-4.58 11.36 1.03 17.58 6 6.66 5.95 7.28-0.56 7.28-11.79 0-3.26 7.75 14.33 13.02 19.23 5.76 38.7 27.83 32.83 37.19-2.05 3.26-2.63 9.42-1.3 13.7 1.33 4.27-0.03 12.35-3.02 17.94-4.49 8.39-4.48 10.76 0.02 13.55 4.02 2.48 2.03 5.42-7.46 11.02-13.34 7.89-15.69 11.98-9.17 16.01 4.12 2.55-3.83 23.02-8.96 23.08-6.72 0.07-2.65 7.94 5.43 10.5 9.86 3.13 17.4 19.45 17.11 37.03-0.12 7.26 5.09 19.53 12.94 30.47l13.15 18.31-10.29 7.9c-8.34 6.42-8.91 7.93-3.01 8 10.17 0.13 9.79 28.53-0.63 46.64-4.35 7.56-9.17 19.81-10.72 27.22-3.27 15.72-17.83 28.53-36.65 32.24-24.53 4.84-36.25 11.31-38.78 21.4-1.37 5.46-5.22 11.45-8.55 13.32-3.33 1.86-6.59 7.92-7.23 13.46s-2.47 15.85-4.05 22.92c-2.07 9.21-1.08 14.35 3.49 18.15 8.8 7.3 3.92 13.23-8.34 10.15-8.2-2.06-10.14-0.97-10.14 5.71 0 4.54-2.81 10.59-6.24 13.44-3.43 2.84-6.23 8.24-6.23 11.98s-3.82 9.19-8.5 12.11c-8.45 5.28-8.44 5.4 2.55 25.59 12.03 22.12 10.49 31.36-4.62 27.57-7.36-1.84-10.31-0.35-12.42 6.29-3.09 9.74-31.65 24.34-47.9 24.48-19.18 0.17-29.29 21.79-12.26 26.25 8.71 2.28 11.28 13.1 4.16 17.5-2.29 1.42-4.16 8.42-4.16 15.55 0 19.52-30.48 64.27-46.1 67.7-19.93 4.38-33.33 26.29-37.1 60.69-2.41 21.95-5.58 31.92-12.24 38.49-8.92 8.8-9.02 8.8-15.09 0.62-3.73-5.02-5.17-12.58-3.68-19.35 1.47-6.67 0.43-12.37-2.59-14.24-5.24-3.24-7.17-1.1-24.35 27.16-11.2 18.4-23.95 23.33-19.13 7.39 5.56-18.39 4.67-21.83-5.68-21.83-12.18 0-25.48 20.39-22.35 34.27 1.39 6.13-0.17 10.19-4.57 11.88-3.67 1.41-6.68 6.1-6.68 10.43 0 10.72-4.32 9.88-14.41-2.77l-8.48-10.65 0.13 31.3c0.15 34.47 7.29 49.55 28.33 59.87 6.66 3.27 11.06 8.85 11.06 14.02 0 7.06 1.09 7.7 6.05 3.58 5.92-4.91 14.74-2.81 14.74 3.5 0 7.39-30.57 38.26-35.87 36.22-8.65-3.32-18.18 1.73-18.18 9.64 0 10.25-8.39 17.02-21.11 17.02-13.18 0-21.67 8.66-17.96 18.31 2.88 7.53 13.34 6.05 29.57-4.19 5.07-3.19 11.88-5.8 15.14-5.8 6.85 0 12.19 16.99 8.42 26.81-4.34 11.32-36.17 27.24-54.45 27.24-17.01 0-29.2 8.3-24.16 16.46 1.47 2.38 8.18 4.34 14.91 4.34 13.8 0 15.57 6.04 5.16 17.55-6.17 6.82-6.38 9.51-1.61 21.12 10.74 26.14 10.43 34.83-1.51 42.66-9.42 6.17-10.84 9.71-9.78 24.28 1.33 18.11 1.28 18.14-23.69 14.21-5.2-0.82-8.31 1.03-8.31 4.93 0 4.28 6.85 7.4 21.89 9.95 17.82 3.02 22.35 5.49 24.3 13.28 3.3 13.17-1.18 19.37-10.44 14.42-4.06-2.18-11.57-2.87-16.67-1.53-5.98 1.56-13.55-0.73-21.29-6.45-23.87-17.65-26.07-11.05-8.16 24.43 9.58 19 16.36 26.73 29.1 33.23 10.84 5.53 16.6 11.31 16.6 16.63 0 11.58-16.84 14.72-33.28 6.21-16.8-8.68-23.44-3.73-17.67 13.17 3.81 11.15 5.22 11.73 25.42 10.64 17.5-0.96 21.38 0.07 21.38 5.64 0 4.55 2.22 5.95 6.7 4.23 7.32-2.81 30.54 9.6 48.04 25.67l11.09 10.18 7.62-9.63c4.19-5.3 14.84-16.49 23.66-24.87 15.3-14.52 15.91-16.08 13-33.44-1.68-10.04-8.41-25-15.01-33.35-6.57-8.34-11.95-19.39-11.95-24.58 0-13.37 31.49-53.83 41.89-53.83 9.21 0 20.18 10.45 39.18 37.31 19.77 27.96 41.13 32.2 71.79 14.23 13.84-8.11 21.72-10.17 31.44-8.23 7.92 1.58 20.57-0.14 32.55-4.45 16.64-5.99 20.62-6.2 26.43-1.38 7.32 6.08 6.76 11.81-3.97 40.78-5.57 15.02-5.79 19.81-1.35 29.11 4.51 9.47 8.33 11.33 25.38 12.42 23.27 1.49 36.44-5.4 48.65-25.42 13.23-21.7 10.76-38.36-8.5-57.44-19.79-19.59-21.79-34.8-6.47-49.2 5.6-5.25 10.74-14.46 11.44-20.47 0.89-7.68 3.71-10.93 9.48-10.93 5.86 0 11.37 6.58 19.22 22.97 8.63 17.99 15.67 25.86 32.6 36.38 11.87 7.38 23.5 13.42 25.85 13.42 2.34 0 11.76-6.42 20.94-14.28 38.11-32.63 64.85-34.43 104-7.01 12.36 8.66 31.42 20.21 42.36 25.68 10.93 5.46 34.21 21.92 51.73 36.57 34.41 28.79 51.68 38.05 70.9 38.05 18.35 0 34.98 16.46 43.3 42.82 6 19.05 9.03 23.13 18.54 24.98 15.42 3 37.65-8.2 47.26-23.8 11.63-18.87 20.83-51.09 22.55-78.89 1.11-18.23 3.88-27.04 10.77-34.38 15.78-16.79 44.08-30.81 66.99-33.18 36.09-3.74 46.27-8.72 67.11-32.87 11.13-12.89 28.75-27.44 40.37-33.33 19.74-10.01 21.11-10.16 32.31-3.54 7.79 4.6 14.18 14 19.19 28.21 15.84 45.01 44.43 89.92 57.23 89.92 2 0 11.79-5.61 21.76-12.47 18.38-12.65 25.24-14.49 37.07-9.95 8.29 3.18 8.33 15.03 0.12 42.65-3.55 11.96-5.29 25.4-3.87 29.87 3.13 9.88 18.23 10.7 35.23 1.91 19.13-9.9 24.99-21.79 24.99-50.7 0-31.7 5.25-35.98 39.2-31.99 17.72 2.08 25.3 1.13 33.43-4.2 12.8-8.38 12.98-12.55 1.66-38.14-7.4-16.74-8.49-25.27-6.66-51.98 2.99-43.72 6.71-49.63 31.25-49.71 22.99-0.07 36.45-6.1 47.81-21.4 10.67-14.39 7.11-28.32-9.66-37.76-10.29-5.79-12.6-9.54-11.55-18.71 1.87-16.23 19.86-17.84 38.71-3.45 16.75 12.77 21.51 13.3 24.85 2.75 4-12.59 12.94-17.7 35.98-20.57 36.7-4.57 39.23-27.27 3.99-35.86-19.45-4.73-27.3-14.39-23.63-29.03 3.97-15.83 13.46-15.53 33.33 1.04 10.18 8.49 24.62 19.18 32.09 23.75 21.52 13.18 28.99 29.48 23.82 52-2.36 10.28-3.48 28.83-2.51 41.21 1.96 24.68 7.95 31.86 52.23 62.58 29.31 20.34 43.31 24.3 67.96 19.25 31.23-6.4 52.41 2.38 65.85 27.3 15.13 28.04 24.83 37.84 31.77 32.08 3.08-2.56 5.6-10.86 5.6-18.45s1.56-14.76 3.46-15.93c1.9-1.18 21.07-5.97 42.61-10.66 47.96-10.43 52.12-14.97 64.77-70.77 7.18-31.67 8.53-47.54 6.71-79.24-2.71-46.97 0.73-56.15 34.27-91.6 18.23-19.27 22.71-27.12 26.86-47.15 5.98-28.81 14.24-38.07 37.43-41.99 15.28-2.58 18.84-1.6 28.74 7.88 6.21 5.95 14.1 10.82 17.54 10.82 10.29 0 54.82-28.44 66.98-42.78 16.88-19.9 28.16-46.39 28.26-66.33 0.05-9.75 4.66-30.82 10.24-46.83 13.42-38.47 30.42-54.03 63.55-58.18 40.78-5.09 52.47-12.02 67.32-39.87 9.72-18.25 17.39-26.88 29.26-32.93 8.84-4.52 19.01-12.39 22.59-17.51 9.16-13.08 8.09-37.98-2.53-58.55-6.54-12.69-9.49-27.22-10.71-52.85-1.07-22.34-4.8-43.11-10.14-56.44l-8.45-21.1 8.83-17.3c13.24-25.96 23.9-31.33 53.32-26.88 17.15 2.6 30.36 2.1 44.93-1.68 25.36-6.57 60.53-7.05 73.81-1 5.45 2.49 12.99 9.76 16.78 16.17s13.52 17.48 21.62 24.6c25.1 22.04 50.42 16.31 92.06-20.85 13.78-12.29 30.48-25.15 37.12-28.57s26.1-15.3 43.25-26.39c29.26-18.94 32.45-20.03 51.69-17.8 16.54 1.92 25.17 0.28 44.64-8.46 24.81-11.14 24.44-11.12 75.12-3.01 20.04 3.2 23.95-5.23 11.91-25.65-12.45-21.1-11.12-27.65 9.96-49.03 10.29-10.44 18.71-22 18.71-25.69 0-19.36-19.63-31.11-51.94-31.11-12.18 0-19.73-2.52-24.99-8.34-9.37-10.35-5.95-19.04 18.23-46.36 9.42-10.64 17.08-21.87 17.03-24.95-0.17-10.72-15.62-39.05-36.79-67.5-11.73-15.75-21.32-31.12-21.32-34.16 0-3.03 6.24-9.8 13.86-15.02 7.63-5.23 22.26-16.99 32.53-26.14l18.65-16.64-3.23-343.1c-1.78-188.7-5.16-624.7-7.51-968.9-2.35-344.2-7.05-748.4-10.44-898.2-3.39-149.8-8.15-385.6-10.57-524-2.44-138.4-5.48-268.9-6.77-290l-2.35-38.46-69.25 0.74c-38.08 0.408-153.4 2.067-256.3 3.693z" clip-rule="evenodd" fill="none" fill-rule="evenodd" stroke="#464eff" stroke-linejoin="round" stroke-width="100"/></g><path d="m3599 204.4c-102.9 1.621-464 3.455-802.4 4.071l-615.3 1.118-33.26 18.74c-18.29 10.31-36.33 21.35-40.1 24.55-7.72 6.554-98.66 51.7-142.8 70.9-16 6.957-45 17.39-64.44 23.19-90.81 27.08-136.7 26.13-219.5-4.554-30.53-11.31-32.81-14.43-21.83-29.85 5.01-7.036 7.21-12.8 4.88-12.8s-6.01 3.185-8.2 7.081c-3.29 5.88-5.05 6.171-10.41 1.722-3.56-2.949-8.18-4.296-10.29-2.994-4.83 2.99-38.66-22.6-49.43-37.39l-8.1-11.12-2.79 126.4c-2.96 134.1-8.37 495.5-15.11 1009-2.26 172-6.92 405.9-10.35 519.8-5.45 180.6-14.69 811.9-14.69 1003 0 62.63-0.47 66.66-7.87 66.66-4.33 0-8.95 2.8-10.26 6.24-1.49 3.87-7.83 6.23-16.74 6.23-12.11 0-15.82 2.43-23.86 15.6-5.24 8.58-12.4 17.87-15.93 20.66-5.71 4.51-5.65 5.08 0.62 5.19 9.39 0.18 13.46 7.53 7.89 14.25-3.02 3.63-3.3 11.88-0.86 24.96 4.39 23.5 6.87 26.51 16.77 20.33 6.99-4.37 7.63-2.9 8.12 18.56 0.36 15.55-1.77 26.84-6.42 33.92-8.58 13.11-22.48 25.02-29.41 25.2-2.86 0.08-5.2 2.72-5.2 5.87s-4.21 8.84-9.35 12.63c-6.42 4.74-7.73 7.62-4.16 9.18 8.41 3.66 5.94 9.3-3.04 6.95-6.16-1.61-9.34 0.71-12.56 9.19-3.74 9.83-2.84 12.82 6.68 22.3 10.7 10.66 10.76 10.98 2.16 12.28-16.52 2.48-10.19 13.22 7.8 13.22 18.02 0 18.75 0.75 12.38 12.66-3.64 6.78-2.21 8.8 9.77 13.81 19.42 8.11 33.8 28.74 27.82 39.92-3.37 6.3-3 11.27 1.49 19.95 5.02 9.72 5.09 13.21 0.44 21.87-4.73 8.81-4.58 11.36 1.03 17.58 6 6.66 5.95 7.28-0.56 7.28-11.79 0-3.26 7.75 14.33 13.02 19.23 5.76 38.7 27.83 32.83 37.19-2.05 3.26-2.63 9.42-1.3 13.7 1.33 4.27-0.03 12.35-3.02 17.94-4.49 8.39-4.48 10.76 0.02 13.55 4.02 2.48 2.03 5.42-7.46 11.02-13.34 7.89-15.69 11.98-9.17 16.01 4.12 2.55-3.83 23.02-8.96 23.08-6.72 0.07-2.65 7.94 5.43 10.5 9.86 3.13 17.4 19.45 17.11 37.03-0.12 7.26 5.09 19.53 12.94 30.47l13.15 18.31-10.29 7.9c-8.34 6.42-8.91 7.93-3.01 8 10.17 0.13 9.79 28.53-0.63 46.64-4.35 7.56-9.17 19.81-10.72 27.22-3.27 15.72-17.83 28.53-36.65 32.24-24.53 4.84-36.25 11.31-38.78 21.4-1.37 5.46-5.22 11.45-8.55 13.32-3.33 1.86-6.59 7.92-7.23 13.46s-2.47 15.85-4.05 22.92c-2.07 9.21-1.08 14.35 3.49 18.15 8.8 7.3 3.92 13.23-8.34 10.15-8.2-2.06-10.14-0.97-10.14 5.71 0 4.54-2.81 10.59-6.24 13.44-3.43 2.84-6.23 8.24-6.23 11.98s-3.82 9.19-8.5 12.11c-8.45 5.28-8.44 5.4 2.55 25.59 12.03 22.12 10.49 31.36-4.62 27.57-7.36-1.84-10.31-0.35-12.42 6.29-3.09 9.74-31.65 24.34-47.9 24.48-19.18 0.17-29.29 21.79-12.26 26.25 8.71 2.28 11.28 13.1 4.16 17.5-2.29 1.42-4.16 8.42-4.16 15.55 0 19.52-30.48 64.27-46.1 67.7-19.93 4.38-33.33 26.29-37.1 60.69-2.41 21.95-5.58 31.92-12.24 38.49-8.92 8.8-9.02 8.8-15.09 0.62-3.73-5.02-5.17-12.58-3.68-19.35 1.47-6.67 0.43-12.37-2.59-14.24-5.24-3.24-7.17-1.1-24.35 27.16-11.2 18.4-23.95 23.33-19.13 7.39 5.56-18.39 4.67-21.83-5.68-21.83-12.18 0-25.48 20.39-22.35 34.27 1.39 6.13-0.17 10.19-4.57 11.88-3.67 1.41-6.68 6.1-6.68 10.43 0 10.72-4.32 9.88-14.41-2.77l-8.48-10.65 0.13 31.3c0.15 34.47 7.29 49.55 28.33 59.87 6.66 3.27 11.06 8.85 11.06 14.02 0 7.06 1.09 7.7 6.05 3.58 5.92-4.91 14.74-2.81 14.74 3.5 0 7.39-30.57 38.26-35.87 36.22-8.65-3.32-18.18 1.73-18.18 9.64 0 10.25-8.39 17.02-21.11 17.02-13.18 0-21.67 8.66-17.96 18.31 2.88 7.53 13.34 6.05 29.57-4.19 5.07-3.19 11.88-5.8 15.14-5.8 6.85 0 12.19 16.99 8.42 26.81-4.34 11.32-36.17 27.24-54.45 27.24-17.01 0-29.2 8.3-24.16 16.46 1.47 2.38 8.18 4.34 14.91 4.34 13.8 0 15.57 6.04 5.16 17.55-6.17 6.82-6.38 9.51-1.61 21.12 10.74 26.14 10.43 34.83-1.51 42.66-9.42 6.17-10.84 9.71-9.78 24.28 1.33 18.11 1.28 18.14-23.69 14.21-5.2-0.82-8.31 1.03-8.31 4.93 0 4.28 6.85 7.4 21.89 9.95 17.82 3.02 22.35 5.49 24.3 13.28 3.3 13.17-1.18 19.37-10.44 14.42-4.06-2.18-11.57-2.87-16.67-1.53-5.98 1.56-13.55-0.73-21.29-6.45-23.87-17.65-26.07-11.05-8.16 24.43 9.58 19 16.36 26.73 29.1 33.23 10.84 5.53 16.6 11.31 16.6 16.63 0 11.58-16.84 14.72-33.28 6.21-16.8-8.68-23.44-3.73-17.67 13.17 3.81 11.15 5.22 11.73 25.42 10.64 17.5-0.96 21.38 0.07 21.38 5.64 0 4.55 2.22 5.95 6.7 4.23 7.32-2.81 30.54 9.6 48.04 25.67l11.09 10.18 7.62-9.63c4.19-5.3 14.84-16.49 23.66-24.87 15.3-14.52 15.91-16.08 13-33.44-1.68-10.04-8.41-25-15.01-33.35-6.57-8.34-11.95-19.39-11.95-24.58 0-13.37 31.49-53.83 41.89-53.83 9.21 0 20.18 10.45 39.18 37.31 19.77 27.96 41.13 32.2 71.79 14.23 13.84-8.11 21.72-10.17 31.44-8.23 7.92 1.58 20.57-0.14 32.55-4.45 16.64-5.99 20.62-6.2 26.43-1.38 7.32 6.08 6.76 11.81-3.97 40.78-5.57 15.02-5.79 19.81-1.35 29.11 4.51 9.47 8.33 11.33 25.38 12.42 23.27 1.49 36.44-5.4 48.65-25.42 13.23-21.7 10.76-38.36-8.5-57.44-19.79-19.59-21.79-34.8-6.47-49.2 5.6-5.25 10.74-14.46 11.44-20.47 0.89-7.68 3.71-10.93 9.48-10.93 5.86 0 11.37 6.58 19.22 22.97 8.63 17.99 15.67 25.86 32.6 36.38 11.87 7.38 23.5 13.42 25.85 13.42 2.34 0 11.76-6.42 20.94-14.28 38.11-32.63 64.85-34.43 104-7.01 12.36 8.66 31.42 20.21 42.36 25.68 10.93 5.46 34.21 21.92 51.73 36.57 34.41 28.79 51.68 38.05 70.9 38.05 18.35 0 34.98 16.46 43.3 42.82 6 19.05 9.03 23.13 18.54 24.98 15.42 3 37.65-8.2 47.26-23.8 11.63-18.87 20.83-51.09 22.55-78.89 1.11-18.23 3.88-27.04 10.77-34.38 15.78-16.79 44.08-30.81 66.99-33.18 36.09-3.74 46.27-8.72 67.11-32.87 11.13-12.89 28.75-27.44 40.37-33.33 19.74-10.01 21.11-10.16 32.31-3.54 7.79 4.6 14.18 14 19.19 28.21 15.84 45.01 44.43 89.92 57.23 89.92 2 0 11.79-5.61 21.76-12.47 18.38-12.65 25.24-14.49 37.07-9.95 8.29 3.18 8.33 15.03 0.12 42.65-3.55 11.96-5.29 25.4-3.87 29.87 3.13 9.88 18.23 10.7 35.23 1.91 19.13-9.9 24.99-21.79 24.99-50.7 0-31.7 5.25-35.98 39.2-31.99 17.72 2.08 25.3 1.13 33.43-4.2 12.8-8.38 12.98-12.55 1.66-38.14-7.4-16.74-8.49-25.27-6.66-51.98 2.99-43.72 6.71-49.63 31.25-49.71 22.99-0.07 36.45-6.1 47.81-21.4 10.67-14.39 7.11-28.32-9.66-37.76-10.29-5.79-12.6-9.54-11.55-18.71 1.87-16.23 19.86-17.84 38.71-3.45 16.75 12.77 21.51 13.3 24.85 2.75 4-12.59 12.94-17.7 35.98-20.57 36.7-4.57 39.23-27.27 3.99-35.86-19.45-4.73-27.3-14.39-23.63-29.03 3.97-15.83 13.46-15.53 33.33 1.04 10.18 8.49 24.62 19.18 32.09 23.75 21.52 13.18 28.99 29.48 23.82 52-2.36 10.28-3.48 28.83-2.51 41.21 1.96 24.68 7.95 31.86 52.23 62.58 29.31 20.34 43.31 24.3 67.96 19.25 31.23-6.4 52.41 2.38 65.85 27.3 15.13 28.04 24.83 37.84 31.77 32.08 3.08-2.56 5.6-10.86 5.6-18.45s1.56-14.76 3.46-15.93c1.9-1.18 21.07-5.97 42.61-10.66 47.96-10.43 52.12-14.97 64.77-70.77 7.18-31.67 8.53-47.54 6.71-79.24-2.71-46.97 0.73-56.15 34.27-91.6 18.23-19.27 22.71-27.12 26.86-47.15 5.98-28.81 14.24-38.07 37.43-41.99 15.28-2.58 18.84-1.6 28.74 7.88 6.21 5.95 14.1 10.82 17.54 10.82 10.29 0 54.82-28.44 66.98-42.78 16.88-19.9 28.16-46.39 28.26-66.33 0.05-9.75 4.66-30.82 10.24-46.83 13.42-38.47 30.42-54.03 63.55-58.18 40.78-5.09 52.47-12.02 67.32-39.87 9.72-18.25 17.39-26.88 29.26-32.93 8.84-4.52 19.01-12.39 22.59-17.51 9.16-13.08 8.09-37.98-2.53-58.55-6.54-12.69-9.49-27.22-10.71-52.85-1.07-22.34-4.8-43.11-10.14-56.44l-8.45-21.1 8.83-17.3c13.24-25.96 23.9-31.33 53.32-26.88 17.15 2.6 30.36 2.1 44.93-1.68 25.36-6.57 60.53-7.05 73.81-1 5.45 2.49 12.99 9.76 16.78 16.17s13.52 17.48 21.62 24.6c25.1 22.04 50.42 16.31 92.06-20.85 13.78-12.29 30.48-25.15 37.12-28.57s26.1-15.3 43.25-26.39c29.26-18.94 32.45-20.03 51.69-17.8 16.54 1.92 25.17 0.28 44.64-8.46 24.81-11.14 24.44-11.12 75.12-3.01 20.04 3.2 23.95-5.23 11.91-25.65-12.45-21.1-11.12-27.65 9.96-49.03 10.29-10.44 18.71-22 18.71-25.69 0-19.36-19.63-31.11-51.94-31.11-12.18 0-19.73-2.52-24.99-8.34-9.37-10.35-5.95-19.04 18.23-46.36 9.42-10.64 17.08-21.87 17.03-24.95-0.17-10.72-15.62-39.05-36.79-67.5-11.73-15.75-21.32-31.12-21.32-34.16 0-3.03 6.24-9.8 13.86-15.02 7.63-5.23 22.26-16.99 32.53-26.14l18.65-16.64-3.23-343.1c-1.78-188.7-5.16-624.7-7.51-968.9-2.35-344.2-7.05-748.4-10.44-898.2-3.39-149.8-8.15-385.6-10.57-524-2.44-138.4-5.48-268.9-6.77-290l-2.35-38.46-69.25 0.74c-38.08 0.408-153.4 2.067-256.3 3.693z" clip-rule="evenodd" fill-rule="evenodd" stroke="#9eeeff" stroke-linejoin="round" stroke-width="100"/><g filter="url(#c)"><path d="m3599 204.4c-102.9 1.621-464 3.455-802.4 4.071l-615.3 1.118-33.26 18.74c-18.29 10.31-36.33 21.35-40.1 24.55-7.72 6.554-98.66 51.7-142.8 70.9-16 6.957-45 17.39-64.44 23.19-90.81 27.08-136.7 26.13-219.5-4.554-30.53-11.31-32.81-14.43-21.83-29.85 5.01-7.036 7.21-12.8 4.88-12.8s-6.01 3.185-8.2 7.081c-3.29 5.88-5.05 6.171-10.41 1.722-3.56-2.949-8.18-4.296-10.29-2.994-4.83 2.99-38.66-22.6-49.43-37.39l-8.1-11.12-2.79 126.4c-2.96 134.1-8.37 495.5-15.11 1009-2.26 172-6.92 405.9-10.35 519.8-5.45 180.6-14.69 811.9-14.69 1003 0 62.63-0.47 66.66-7.87 66.66-4.33 0-8.95 2.8-10.26 6.24-1.49 3.87-7.83 6.23-16.74 6.23-12.11 0-15.82 2.43-23.86 15.6-5.24 8.58-12.4 17.87-15.93 20.66-5.71 4.51-5.65 5.08 0.62 5.19 9.39 0.18 13.46 7.53 7.89 14.25-3.02 3.63-3.3 11.88-0.86 24.96 4.39 23.5 6.87 26.51 16.77 20.33 6.99-4.37 7.63-2.9 8.12 18.56 0.36 15.55-1.77 26.84-6.42 33.92-8.58 13.11-22.48 25.02-29.41 25.2-2.86 0.08-5.2 2.72-5.2 5.87s-4.21 8.84-9.35 12.63c-6.42 4.74-7.73 7.62-4.16 9.18 8.41 3.66 5.94 9.3-3.04 6.95-6.16-1.61-9.34 0.71-12.56 9.19-3.74 9.83-2.84 12.82 6.68 22.3 10.7 10.66 10.76 10.98 2.16 12.28-16.52 2.48-10.19 13.22 7.8 13.22 18.02 0 18.75 0.75 12.38 12.66-3.64 6.78-2.21 8.8 9.77 13.81 19.42 8.11 33.8 28.74 27.82 39.92-3.37 6.3-3 11.27 1.49 19.95 5.02 9.72 5.09 13.21 0.44 21.87-4.73 8.81-4.58 11.36 1.03 17.58 6 6.66 5.95 7.28-0.56 7.28-11.79 0-3.26 7.75 14.33 13.02 19.23 5.76 38.7 27.83 32.83 37.19-2.05 3.26-2.63 9.42-1.3 13.7 1.33 4.27-0.03 12.35-3.02 17.94-4.49 8.39-4.48 10.76 0.02 13.55 4.02 2.48 2.03 5.42-7.46 11.02-13.34 7.89-15.69 11.98-9.17 16.01 4.12 2.55-3.83 23.02-8.96 23.08-6.72 0.07-2.65 7.94 5.43 10.5 9.86 3.13 17.4 19.45 17.11 37.03-0.12 7.26 5.09 19.53 12.94 30.47l13.15 18.31-10.29 7.9c-8.34 6.42-8.91 7.93-3.01 8 10.17 0.13 9.79 28.53-0.63 46.64-4.35 7.56-9.17 19.81-10.72 27.22-3.27 15.72-17.83 28.53-36.65 32.24-24.53 4.84-36.25 11.31-38.78 21.4-1.37 5.46-5.22 11.45-8.55 13.32-3.33 1.86-6.59 7.92-7.23 13.46s-2.47 15.85-4.05 22.92c-2.07 9.21-1.08 14.35 3.49 18.15 8.8 7.3 3.92 13.23-8.34 10.15-8.2-2.06-10.14-0.97-10.14 5.71 0 4.54-2.81 10.59-6.24 13.44-3.43 2.84-6.23 8.24-6.23 11.98s-3.82 9.19-8.5 12.11c-8.45 5.28-8.44 5.4 2.55 25.59 12.03 22.12 10.49 31.36-4.62 27.57-7.36-1.84-10.31-0.35-12.42 6.29-3.09 9.74-31.65 24.34-47.9 24.48-19.18 0.17-29.29 21.79-12.26 26.25 8.71 2.28 11.28 13.1 4.16 17.5-2.29 1.42-4.16 8.42-4.16 15.55 0 19.52-30.48 64.27-46.1 67.7-19.93 4.38-33.33 26.29-37.1 60.69-2.41 21.95-5.58 31.92-12.24 38.49-8.92 8.8-9.02 8.8-15.09 0.62-3.73-5.02-5.17-12.58-3.68-19.35 1.47-6.67 0.43-12.37-2.59-14.24-5.24-3.24-7.17-1.1-24.35 27.16-11.2 18.4-23.95 23.33-19.13 7.39 5.56-18.39 4.67-21.83-5.68-21.83-12.18 0-25.48 20.39-22.35 34.27 1.39 6.13-0.17 10.19-4.57 11.88-3.67 1.41-6.68 6.1-6.68 10.43 0 10.72-4.32 9.88-14.41-2.77l-8.48-10.65 0.13 31.3c0.15 34.47 7.29 49.55 28.33 59.87 6.66 3.27 11.06 8.85 11.06 14.02 0 7.06 1.09 7.7 6.05 3.58 5.92-4.91 14.74-2.81 14.74 3.5 0 7.39-30.57 38.26-35.87 36.22-8.65-3.32-18.18 1.73-18.18 9.64 0 10.25-8.39 17.02-21.11 17.02-13.18 0-21.67 8.66-17.96 18.31 2.88 7.53 13.34 6.05 29.57-4.19 5.07-3.19 11.88-5.8 15.14-5.8 6.85 0 12.19 16.99 8.42 26.81-4.34 11.32-36.17 27.24-54.45 27.24-17.01 0-29.2 8.3-24.16 16.46 1.47 2.38 8.18 4.34 14.91 4.34 13.8 0 15.57 6.04 5.16 17.55-6.17 6.82-6.38 9.51-1.61 21.12 10.74 26.14 10.43 34.83-1.51 42.66-9.42 6.17-10.84 9.71-9.78 24.28 1.33 18.11 1.28 18.14-23.69 14.21-5.2-0.82-8.31 1.03-8.31 4.93 0 4.28 6.85 7.4 21.89 9.95 17.82 3.02 22.35 5.49 24.3 13.28 3.3 13.17-1.18 19.37-10.44 14.42-4.06-2.18-11.57-2.87-16.67-1.53-5.98 1.56-13.55-0.73-21.29-6.45-23.87-17.65-26.07-11.05-8.16 24.43 9.58 19 16.36 26.73 29.1 33.23 10.84 5.53 16.6 11.31 16.6 16.63 0 11.58-16.84 14.72-33.28 6.21-16.8-8.68-23.44-3.73-17.67 13.17 3.81 11.15 5.22 11.73 25.42 10.64 17.5-0.96 21.38 0.07 21.38 5.64 0 4.55 2.22 5.95 6.7 4.23 7.32-2.81 30.54 9.6 48.04 25.67l11.09 10.18 7.62-9.63c4.19-5.3 14.84-16.49 23.66-24.87 15.3-14.52 15.91-16.08 13-33.44-1.68-10.04-8.41-25-15.01-33.35-6.57-8.34-11.95-19.39-11.95-24.58 0-13.37 31.49-53.83 41.89-53.83 9.21 0 20.18 10.45 39.18 37.31 19.77 27.96 41.13 32.2 71.79 14.23 13.84-8.11 21.72-10.17 31.44-8.23 7.92 1.58 20.57-0.14 32.55-4.45 16.64-5.99 20.62-6.2 26.43-1.38 7.32 6.08 6.76 11.81-3.97 40.78-5.57 15.02-5.79 19.81-1.35 29.11 4.51 9.47 8.33 11.33 25.38 12.42 23.27 1.49 36.44-5.4 48.65-25.42 13.23-21.7 10.76-38.36-8.5-57.44-19.79-19.59-21.79-34.8-6.47-49.2 5.6-5.25 10.74-14.46 11.44-20.47 0.89-7.68 3.71-10.93 9.48-10.93 5.86 0 11.37 6.58 19.22 22.97 8.63 17.99 15.67 25.86 32.6 36.38 11.87 7.38 23.5 13.42 25.85 13.42 2.34 0 11.76-6.42 20.94-14.28 38.11-32.63 64.85-34.43 104-7.01 12.36 8.66 31.42 20.21 42.36 25.68 10.93 5.46 34.21 21.92 51.73 36.57 34.41 28.79 51.68 38.05 70.9 38.05 18.35 0 34.98 16.46 43.3 42.82 6 19.05 9.03 23.13 18.54 24.98 15.42 3 37.65-8.2 47.26-23.8 11.63-18.87 20.83-51.09 22.55-78.89 1.11-18.23 3.88-27.04 10.77-34.38 15.78-16.79 44.08-30.81 66.99-33.18 36.09-3.74 46.27-8.72 67.11-32.87 11.13-12.89 28.75-27.44 40.37-33.33 19.74-10.01 21.11-10.16 32.31-3.54 7.79 4.6 14.18 14 19.19 28.21 15.84 45.01 44.43 89.92 57.23 89.92 2 0 11.79-5.61 21.76-12.47 18.38-12.65 25.24-14.49 37.07-9.95 8.29 3.18 8.33 15.03 0.12 42.65-3.55 11.96-5.29 25.4-3.87 29.87 3.13 9.88 18.23 10.7 35.23 1.91 19.13-9.9 24.99-21.79 24.99-50.7 0-31.7 5.25-35.98 39.2-31.99 17.72 2.08 25.3 1.13 33.43-4.2 12.8-8.38 12.98-12.55 1.66-38.14-7.4-16.74-8.49-25.27-6.66-51.98 2.99-43.72 6.71-49.63 31.25-49.71 22.99-0.07 36.45-6.1 47.81-21.4 10.67-14.39 7.11-28.32-9.66-37.76-10.29-5.79-12.6-9.54-11.55-18.71 1.87-16.23 19.86-17.84 38.71-3.45 16.75 12.77 21.51 13.3 24.85 2.75 4-12.59 12.94-17.7 35.98-20.57 36.7-4.57 39.23-27.27 3.99-35.86-19.45-4.73-27.3-14.39-23.63-29.03 3.97-15.83 13.46-15.53 33.33 1.04 10.18 8.49 24.62 19.18 32.09 23.75 21.52 13.18 28.99 29.48 23.82 52-2.36 10.28-3.48 28.83-2.51 41.21 1.96 24.68 7.95 31.86 52.23 62.58 29.31 20.34 43.31 24.3 67.96 19.25 31.23-6.4 52.41 2.38 65.85 27.3 15.13 28.04 24.83 37.84 31.77 32.08 3.08-2.56 5.6-10.86 5.6-18.45s1.56-14.76 3.46-15.93c1.9-1.18 21.07-5.97 42.61-10.66 47.96-10.43 52.12-14.97 64.77-70.77 7.18-31.67 8.53-47.54 6.71-79.24-2.71-46.97 0.73-56.15 34.27-91.6 18.23-19.27 22.71-27.12 26.86-47.15 5.98-28.81 14.24-38.07 37.43-41.99 15.28-2.58 18.84-1.6 28.74 7.88 6.21 5.95 14.1 10.82 17.54 10.82 10.29 0 54.82-28.44 66.98-42.78 16.88-19.9 28.16-46.39 28.26-66.33 0.05-9.75 4.66-30.82 10.24-46.83 13.42-38.47 30.42-54.03 63.55-58.18 40.78-5.09 52.47-12.02 67.32-39.87 9.72-18.25 17.39-26.88 29.26-32.93 8.84-4.52 19.01-12.39 22.59-17.51 9.16-13.08 8.09-37.98-2.53-58.55-6.54-12.69-9.49-27.22-10.71-52.85-1.07-22.34-4.8-43.11-10.14-56.44l-8.45-21.1 8.83-17.3c13.24-25.96 23.9-31.33 53.32-26.88 17.15 2.6 30.36 2.1 44.93-1.68 25.36-6.57 60.53-7.05 73.81-1 5.45 2.49 12.99 9.76 16.78 16.17s13.52 17.48 21.62 24.6c25.1 22.04 50.42 16.31 92.06-20.85 13.78-12.29 30.48-25.15 37.12-28.57s26.1-15.3 43.25-26.39c29.26-18.94 32.45-20.03 51.69-17.8 16.54 1.92 25.17 0.28 44.64-8.46 24.81-11.14 24.44-11.12 75.12-3.01 20.04 3.2 23.95-5.23 11.91-25.65-12.45-21.1-11.12-27.65 9.96-49.03 10.29-10.44 18.71-22 18.71-25.69 0-19.36-19.63-31.11-51.94-31.11-12.18 0-19.73-2.52-24.99-8.34-9.37-10.35-5.95-19.04 18.23-46.36 9.42-10.64 17.08-21.87 17.03-24.95-0.17-10.72-15.62-39.05-36.79-67.5-11.73-15.75-21.32-31.12-21.32-34.16 0-3.03 6.24-9.8 13.86-15.02 7.63-5.23 22.26-16.99 32.53-26.14l18.65-16.64-3.23-343.1c-1.78-188.7-5.16-624.7-7.51-968.9-2.35-344.2-7.05-748.4-10.44-898.2-3.39-149.8-8.15-385.6-10.57-524-2.44-138.4-5.48-268.9-6.77-290l-2.35-38.46-69.25 0.74c-38.08 0.408-153.4 2.067-256.3 3.693z" clip-rule="evenodd" fill="none" fill-rule="evenodd" stroke="#464eff" stroke-linejoin="round" stroke-width="100"/></g><g filter="url(#b)"><path d="m3599 204.4c-102.9 1.621-464 3.455-802.4 4.071l-615.3 1.118-33.26 18.74c-18.29 10.31-36.33 21.35-40.1 24.55-7.72 6.554-98.66 51.7-142.8 70.9-16 6.957-45 17.39-64.44 23.19-90.81 27.08-136.7 26.13-219.5-4.554-30.53-11.31-32.81-14.43-21.83-29.85 5.01-7.036 7.21-12.8 4.88-12.8s-6.01 3.185-8.2 7.081c-3.29 5.88-5.05 6.171-10.41 1.722-3.56-2.949-8.18-4.296-10.29-2.994-4.83 2.99-38.66-22.6-49.43-37.39l-8.1-11.12-2.79 126.4c-2.96 134.1-8.37 495.5-15.11 1009-2.26 172-6.92 405.9-10.35 519.8-5.45 180.6-14.69 811.9-14.69 1003 0 62.63-0.47 66.66-7.87 66.66-4.33 0-8.95 2.8-10.26 6.24-1.49 3.87-7.83 6.23-16.74 6.23-12.11 0-15.82 2.43-23.86 15.6-5.24 8.58-12.4 17.87-15.93 20.66-5.71 4.51-5.65 5.08 0.62 5.19 9.39 0.18 13.46 7.53 7.89 14.25-3.02 3.63-3.3 11.88-0.86 24.96 4.39 23.5 6.87 26.51 16.77 20.33 6.99-4.37 7.63-2.9 8.12 18.56 0.36 15.55-1.77 26.84-6.42 33.92-8.58 13.11-22.48 25.02-29.41 25.2-2.86 0.08-5.2 2.72-5.2 5.87s-4.21 8.84-9.35 12.63c-6.42 4.74-7.73 7.62-4.16 9.18 8.41 3.66 5.94 9.3-3.04 6.95-6.16-1.61-9.34 0.71-12.56 9.19-3.74 9.83-2.84 12.82 6.68 22.3 10.7 10.66 10.76 10.98 2.16 12.28-16.52 2.48-10.19 13.22 7.8 13.22 18.02 0 18.75 0.75 12.38 12.66-3.64 6.78-2.21 8.8 9.77 13.81 19.42 8.11 33.8 28.74 27.82 39.92-3.37 6.3-3 11.27 1.49 19.95 5.02 9.72 5.09 13.21 0.44 21.87-4.73 8.81-4.58 11.36 1.03 17.58 6 6.66 5.95 7.28-0.56 7.28-11.79 0-3.26 7.75 14.33 13.02 19.23 5.76 38.7 27.83 32.83 37.19-2.05 3.26-2.63 9.42-1.3 13.7 1.33 4.27-0.03 12.35-3.02 17.94-4.49 8.39-4.48 10.76 0.02 13.55 4.02 2.48 2.03 5.42-7.46 11.02-13.34 7.89-15.69 11.98-9.17 16.01 4.12 2.55-3.83 23.02-8.96 23.08-6.72 0.07-2.65 7.94 5.43 10.5 9.86 3.13 17.4 19.45 17.11 37.03-0.12 7.26 5.09 19.53 12.94 30.47l13.15 18.31-10.29 7.9c-8.34 6.42-8.91 7.93-3.01 8 10.17 0.13 9.79 28.53-0.63 46.64-4.35 7.56-9.17 19.81-10.72 27.22-3.27 15.72-17.83 28.53-36.65 32.24-24.53 4.84-36.25 11.31-38.78 21.4-1.37 5.46-5.22 11.45-8.55 13.32-3.33 1.86-6.59 7.92-7.23 13.46s-2.47 15.85-4.05 22.92c-2.07 9.21-1.08 14.35 3.49 18.15 8.8 7.3 3.92 13.23-8.34 10.15-8.2-2.06-10.14-0.97-10.14 5.71 0 4.54-2.81 10.59-6.24 13.44-3.43 2.84-6.23 8.24-6.23 11.98s-3.82 9.19-8.5 12.11c-8.45 5.28-8.44 5.4 2.55 25.59 12.03 22.12 10.49 31.36-4.62 27.57-7.36-1.84-10.31-0.35-12.42 6.29-3.09 9.74-31.65 24.34-47.9 24.48-19.18 0.17-29.29 21.79-12.26 26.25 8.71 2.28 11.28 13.1 4.16 17.5-2.29 1.42-4.16 8.42-4.16 15.55 0 19.52-30.48 64.27-46.1 67.7-19.93 4.38-33.33 26.29-37.1 60.69-2.41 21.95-5.58 31.92-12.24 38.49-8.92 8.8-9.02 8.8-15.09 0.62-3.73-5.02-5.17-12.58-3.68-19.35 1.47-6.67 0.43-12.37-2.59-14.24-5.24-3.24-7.17-1.1-24.35 27.16-11.2 18.4-23.95 23.33-19.13 7.39 5.56-18.39 4.67-21.83-5.68-21.83-12.18 0-25.48 20.39-22.35 34.27 1.39 6.13-0.17 10.19-4.57 11.88-3.67 1.41-6.68 6.1-6.68 10.43 0 10.72-4.32 9.88-14.41-2.77l-8.48-10.65 0.13 31.3c0.15 34.47 7.29 49.55 28.33 59.87 6.66 3.27 11.06 8.85 11.06 14.02 0 7.06 1.09 7.7 6.05 3.58 5.92-4.91 14.74-2.81 14.74 3.5 0 7.39-30.57 38.26-35.87 36.22-8.65-3.32-18.18 1.73-18.18 9.64 0 10.25-8.39 17.02-21.11 17.02-13.18 0-21.67 8.66-17.96 18.31 2.88 7.53 13.34 6.05 29.57-4.19 5.07-3.19 11.88-5.8 15.14-5.8 6.85 0 12.19 16.99 8.42 26.81-4.34 11.32-36.17 27.24-54.45 27.24-17.01 0-29.2 8.3-24.16 16.46 1.47 2.38 8.18 4.34 14.91 4.34 13.8 0 15.57 6.04 5.16 17.55-6.17 6.82-6.38 9.51-1.61 21.12 10.74 26.14 10.43 34.83-1.51 42.66-9.42 6.17-10.84 9.71-9.78 24.28 1.33 18.11 1.28 18.14-23.69 14.21-5.2-0.82-8.31 1.03-8.31 4.93 0 4.28 6.85 7.4 21.89 9.95 17.82 3.02 22.35 5.49 24.3 13.28 3.3 13.17-1.18 19.37-10.44 14.42-4.06-2.18-11.57-2.87-16.67-1.53-5.98 1.56-13.55-0.73-21.29-6.45-23.87-17.65-26.07-11.05-8.16 24.43 9.58 19 16.36 26.73 29.1 33.23 10.84 5.53 16.6 11.31 16.6 16.63 0 11.58-16.84 14.72-33.28 6.21-16.8-8.68-23.44-3.73-17.67 13.17 3.81 11.15 5.22 11.73 25.42 10.64 17.5-0.96 21.38 0.07 21.38 5.64 0 4.55 2.22 5.95 6.7 4.23 7.32-2.81 30.54 9.6 48.04 25.67l11.09 10.18 7.62-9.63c4.19-5.3 14.84-16.49 23.66-24.87 15.3-14.52 15.91-16.08 13-33.44-1.68-10.04-8.41-25-15.01-33.35-6.57-8.34-11.95-19.39-11.95-24.58 0-13.37 31.49-53.83 41.89-53.83 9.21 0 20.18 10.45 39.18 37.31 19.77 27.96 41.13 32.2 71.79 14.23 13.84-8.11 21.72-10.17 31.44-8.23 7.92 1.58 20.57-0.14 32.55-4.45 16.64-5.99 20.62-6.2 26.43-1.38 7.32 6.08 6.76 11.81-3.97 40.78-5.57 15.02-5.79 19.81-1.35 29.11 4.51 9.47 8.33 11.33 25.38 12.42 23.27 1.49 36.44-5.4 48.65-25.42 13.23-21.7 10.76-38.36-8.5-57.44-19.79-19.59-21.79-34.8-6.47-49.2 5.6-5.25 10.74-14.46 11.44-20.47 0.89-7.68 3.71-10.93 9.48-10.93 5.86 0 11.37 6.58 19.22 22.97 8.63 17.99 15.67 25.86 32.6 36.38 11.87 7.38 23.5 13.42 25.85 13.42 2.34 0 11.76-6.42 20.94-14.28 38.11-32.63 64.85-34.43 104-7.01 12.36 8.66 31.42 20.21 42.36 25.68 10.93 5.46 34.21 21.92 51.73 36.57 34.41 28.79 51.68 38.05 70.9 38.05 18.35 0 34.98 16.46 43.3 42.82 6 19.05 9.03 23.13 18.54 24.98 15.42 3 37.65-8.2 47.26-23.8 11.63-18.87 20.83-51.09 22.55-78.89 1.11-18.23 3.88-27.04 10.77-34.38 15.78-16.79 44.08-30.81 66.99-33.18 36.09-3.74 46.27-8.72 67.11-32.87 11.13-12.89 28.75-27.44 40.37-33.33 19.74-10.01 21.11-10.16 32.31-3.54 7.79 4.6 14.18 14 19.19 28.21 15.84 45.01 44.43 89.92 57.23 89.92 2 0 11.79-5.61 21.76-12.47 18.38-12.65 25.24-14.49 37.07-9.95 8.29 3.18 8.33 15.03 0.12 42.65-3.55 11.96-5.29 25.4-3.87 29.87 3.13 9.88 18.23 10.7 35.23 1.91 19.13-9.9 24.99-21.79 24.99-50.7 0-31.7 5.25-35.98 39.2-31.99 17.72 2.08 25.3 1.13 33.43-4.2 12.8-8.38 12.98-12.55 1.66-38.14-7.4-16.74-8.49-25.27-6.66-51.98 2.99-43.72 6.71-49.63 31.25-49.71 22.99-0.07 36.45-6.1 47.81-21.4 10.67-14.39 7.11-28.32-9.66-37.76-10.29-5.79-12.6-9.54-11.55-18.71 1.87-16.23 19.86-17.84 38.71-3.45 16.75 12.77 21.51 13.3 24.85 2.75 4-12.59 12.94-17.7 35.98-20.57 36.7-4.57 39.23-27.27 3.99-35.86-19.45-4.73-27.3-14.39-23.63-29.03 3.97-15.83 13.46-15.53 33.33 1.04 10.18 8.49 24.62 19.18 32.09 23.75 21.52 13.18 28.99 29.48 23.82 52-2.36 10.28-3.48 28.83-2.51 41.21 1.96 24.68 7.95 31.86 52.23 62.58 29.31 20.34 43.31 24.3 67.96 19.25 31.23-6.4 52.41 2.38 65.85 27.3 15.13 28.04 24.83 37.84 31.77 32.08 3.08-2.56 5.6-10.86 5.6-18.45s1.56-14.76 3.46-15.93c1.9-1.18 21.07-5.97 42.61-10.66 47.96-10.43 52.12-14.97 64.77-70.77 7.18-31.67 8.53-47.54 6.71-79.24-2.71-46.97 0.73-56.15 34.27-91.6 18.23-19.27 22.71-27.12 26.86-47.15 5.98-28.81 14.24-38.07 37.43-41.99 15.28-2.58 18.84-1.6 28.74 7.88 6.21 5.95 14.1 10.82 17.54 10.82 10.29 0 54.82-28.44 66.98-42.78 16.88-19.9 28.16-46.39 28.26-66.33 0.05-9.75 4.66-30.82 10.24-46.83 13.42-38.47 30.42-54.03 63.55-58.18 40.78-5.09 52.47-12.02 67.32-39.87 9.72-18.25 17.39-26.88 29.26-32.93 8.84-4.52 19.01-12.39 22.59-17.51 9.16-13.08 8.09-37.98-2.53-58.55-6.54-12.69-9.49-27.22-10.71-52.85-1.07-22.34-4.8-43.11-10.14-56.44l-8.45-21.1 8.83-17.3c13.24-25.96 23.9-31.33 53.32-26.88 17.15 2.6 30.36 2.1 44.93-1.68 25.36-6.57 60.53-7.05 73.81-1 5.45 2.49 12.99 9.76 16.78 16.17s13.52 17.48 21.62 24.6c25.1 22.04 50.42 16.31 92.06-20.85 13.78-12.29 30.48-25.15 37.12-28.57s26.1-15.3 43.25-26.39c29.26-18.94 32.45-20.03 51.69-17.8 16.54 1.92 25.17 0.28 44.64-8.46 24.81-11.14 24.44-11.12 75.12-3.01 20.04 3.2 23.95-5.23 11.91-25.65-12.45-21.1-11.12-27.65 9.96-49.03 10.29-10.44 18.71-22 18.71-25.69 0-19.36-19.63-31.11-51.94-31.11-12.18 0-19.73-2.52-24.99-8.34-9.37-10.35-5.95-19.04 18.23-46.36 9.42-10.64 17.08-21.87 17.03-24.95-0.17-10.72-15.62-39.05-36.79-67.5-11.73-15.75-21.32-31.12-21.32-34.16 0-3.03 6.24-9.8 13.86-15.02 7.63-5.23 22.26-16.99 32.53-26.14l18.65-16.64-3.23-343.1c-1.78-188.7-5.16-624.7-7.51-968.9-2.35-344.2-7.05-748.4-10.44-898.2-3.39-149.8-8.15-385.6-10.57-524-2.44-138.4-5.48-268.9-6.77-290l-2.35-38.46-69.25 0.74c-38.08 0.408-153.4 2.067-256.3 3.693z" clip-rule="evenodd" fill="none" fill-rule="evenodd" stroke="#fff" stroke-linejoin="round" stroke-width="40"/></g></g><defs><filter id="g" x="909" y="110" width="3181" height="4780" color-interpolation-filters="sRGB" filterUnits="userSpaceOnUse"><feFlood flood-opacity="0" result="BackgroundImageFix"/><feBlend in="SourceGraphic" in2="BackgroundImageFix" result="shape"/><feGaussianBlur result="effect1_foregroundBlur_510_3788" stdDeviation="20"/></filter><filter id="f" x="889" y="90" width="3221" height="4820" color-interpolation-filters="sRGB" filterUnits="userSpaceOnUse"><feFlood flood-opacity="0" result="BackgroundImageFix"/><feBlend in="SourceGraphic" in2="BackgroundImageFix" result="shape"/><feGaussianBlur result="effect1_foregroundBlur_510_3788" stdDeviation="30"/></filter><filter id="e" x="849" y="50" width="3301" height="4900" color-interpolation-filters="sRGB" filterUnits="userSpaceOnUse"><feFlood flood-opacity="0" result="BackgroundImageFix"/><feBlend in="SourceGraphic" in2="BackgroundImageFix" result="shape"/><feGaussianBlur result="effect1_foregroundBlur_510_3788" stdDeviation="50"/></filter><filter id="d" x="749" y="-50" width="3501" height="5100" color-interpolation-filters="sRGB" filterUnits="userSpaceOnUse"><feFlood flood-opacity="0" result="BackgroundImageFix"/><feBlend in="SourceGraphic" in2="BackgroundImageFix" result="shape"/><feGaussianBlur result="effect1_foregroundBlur_510_3788" stdDeviation="100"/></filter><filter id="c" x="899" y="100" width="3201" height="4800" color-interpolation-filters="sRGB" filterUnits="userSpaceOnUse"><feFlood flood-opacity="0" result="BackgroundImageFix"/><feBlend in="SourceGraphic" in2="BackgroundImageFix" result="shape"/><feGaussianBlur result="effect1_foregroundBlur_510_3788" stdDeviation="25"/></filter><filter id="b" x="959" y="160" width="3081" height="4680" color-interpolation-filters="sRGB" filterUnits="userSpaceOnUse"><feFlood flood-opacity="0" result="BackgroundImageFix"/><feBlend in="SourceGraphic" in2="BackgroundImageFix" result="shape"/><feGaussianBlur result="effect1_foregroundBlur_510_3788" stdDeviation="10"/></filter><clipPath id="h"><rect width="5e3" height="5e3" fill="#fff"/></clipPath><style>
      .cls-1 {
        fill: #2c2d3c;
      }

      .cls-1, .cls-2 {
        stroke-width: 0px;
      }

      .cls-2 {
        fill: #67ea94;
      }

      .cls-3 {
        fill: #fff;
        stroke: #2c2d3c;
        stroke-miterlimit: 10;
        stroke-width: 4px;
      }
    </style><filter id="a" x="-.02918" y="-.03021" width="1.083" height="1.082" color-interpolation-filters="sRGB"><feColorMatrix result="colormatrix" values="1 0 0 0 0 0 1 0 0 0 0 0 1 0 0 0 0 0 1 -0 "/><feComposite in2="colormatrix" k2="0.851064" operator="arithmetic" result="fbSourceGraphic"/><feColorMatrix in="fbSourceGraphic" result="fbSourceGraphicAlpha" values="0 0 0 -1 0 0 0 0 -1 0 0 0 0 -1 0 0 0 0 1 0"/><feFlood flood-color="rgb(0,0,0)" flood-opacity=".498" in="fbSourceGraphic" result="flood"/><feGaussianBlur in="fbSourceGraphic" result="blur" stdDeviation="12.158054"/><feOffset dx="24.164133" dy="20.820669" in="blur" result="offset"/><feComposite in="flood" in2="offset" operator="in" result="comp1"/><feComposite in="fbSourceGraphic" in2="comp1" result="fbSourceGraphic"/><feColorMatrix in="fbSourceGraphic" result="fbSourceGraphicAlpha" values="0 0 0 -1 0 0 0 0 -1 0 0 0 0 -1 0 0 0 0 1 0"/><feColorMatrix in="fbSourceGraphic" result="colormatrix" values="1 0 0 0 0 0 1 0 0 0 0 0 1 0 0 0 0 0 1 -0 "/><feComposite in2="colormatrix" k2="0.74772" operator="arithmetic" result="composite"/></filter></defs><g transform="matrix(2.072 0 0 2.072 957.1 1432)" filter="url(#a)"><g><path class="cls-2" d="m94.03 0h812.4c51.63 0 93.56 41.92 93.56 93.56v492.9h-999.5v-492.9c0-51.63 41.92-93.56 93.56-93.56z"/><path class="cls-1" d="m0 586.4h1e3v285.7c0 51.67-41.95 93.62-93.62 93.62h-812.8c-51.67 0-93.62-41.95-93.62-93.62z"/></g><g><path class="cls-1" d="m618.4 187.3c-5.377 7.611-10.87 15.31-16.29 23.06-63.56 90.92-127.1 181.9-190.7 272.8-2.577 3.686-5.214 7.331-7.731 11.06-2.11 3.124-4.497 3.455-7.599 1.366-14.09-9.493-28.3-18.81-42.33-28.41-5.189-3.552-5.215-5.176-1.075-11.1 21.89-31.34 43.82-62.66 65.77-93.96 36-51.36 72.02-102.7 108-154.1 21.08-30.08 42.15-60.17 63.21-90.26 14.49-20.69 42.92-19.51 55-2.133 12.12 17.43 24.8 34.47 37.07 51.81 68.29 96.47 136.5 193 204.8 289.5 4.834 6.834 4.75 7.294-2.442 12.2-10.73 7.326-21.49 14.61-32.24 21.91-2.894 1.965-5.75 3.991-8.699 5.871-4.703 2.998-5.792 2.853-9.114-1.867-9.059-12.87-17.99-25.83-26.99-38.75-61.42-88.16-122.8-176.3-184.3-264.4-1.098-1.574-1.724-3.651-4.343-4.536z"/><path class="cls-1" d="m158.5 497.8c-0.95-0.6003-2.021-1.235-3.049-1.933-13.63-9.253-27.31-18.44-40.86-27.81-5.658-3.912-5.685-4.708-1.5-10.69 44.37-63.46 88.76-126.9 133.1-190.3 38.8-55.46 77.59-110.9 116.4-166.4 0.8586-1.227 1.722-2.452 2.602-3.664 1.086-1.495 2.375-1.592 3.847-0.5488 1.222 0.866 2.482 1.679 3.711 2.534 12.92 8.988 25.86 17.94 38.73 26.99 5.695 4.004 5.654 4.112 1.669 9.812-31.49 45.03-62.98 90.06-94.47 135.1-38.08 54.44-76.16 108.9-114.2 163.3-13.89 19.85-27.78 39.7-41.68 59.54-1.114 1.59-1.847 3.613-4.296 4.083z"/></g><g><path class="cls-3" d="m137.9 696.7c20.97 0 37.07 3.791 48.3 11.37 11.23 7.581 16.84 19.99 16.84 37.23 0 17.38-5.682 29.93-17.05 37.65-11.36 7.719-27.6 11.58-48.7 11.58h-9.943c-2.9e-4 0-5.3e-4 2.4e-4 -5.3e-4 5.3e-4v48.39c0 2.9e-4 -2.4e-4 5.2e-4 -5.3e-4 5.2e-4h-31.66c-2.92e-4 0-5.29e-4 -2.3e-4 -5.29e-4 -5.2e-4v-142.5c0-2.5e-4 1.77e-4 -4.7e-4 4.26e-4 -5.2e-4 6.9-1.389 14.21-2.363 21.92-2.92 7.711-0.5547 14.47-0.835 20.29-0.835zm2.029 27.74c-2.302 0-4.566 0.0713-6.798 0.209-2.232 0.1396-4.16 0.2802-5.783 0.417-2.8e-4 2e-5 -4.7e-4 2.5e-4 -4.7e-4 5.2e-4l1e-5 41.72c0 2.9e-4 2.4e-4 5.2e-4 5.3e-4 5.2e-4h9.943c10.96 0 19.21-1.528 24.76-4.589 5.546-3.057 8.32-8.761 8.32-17.1 0-4.031-0.7104-7.369-2.131-10.01-1.42-2.64-3.45-4.762-6.088-6.361-2.638-1.598-5.854-2.712-9.639-3.338-3.79-0.626-7.984-0.9385-12.58-0.9385z"/><path class="cls-3" d="m321.5 787.9c0 8.624-1.218 16.51-3.653 23.67-2.435 7.164-5.955 13.28-10.55 18.36-4.601 5.078-10.11 9.006-16.54 11.79-6.427 2.78-13.63 4.172-21.61 4.172-7.848 0-14.99-1.392-21.41-4.172-6.427-2.779-11.94-6.707-16.54-11.79-4.601-5.074-8.187-11.19-10.76-18.36-2.572-7.16-3.856-15.05-3.856-23.67 0-8.621 1.319-16.48 3.957-23.57 2.638-7.092 6.291-13.14 10.96-18.15 4.667-5.006 10.21-8.897 16.64-11.68 6.424-2.78 13.43-4.172 21-4.172 7.711 0 14.78 1.392 21.21 4.172 6.424 2.783 11.94 6.675 16.54 11.68 4.598 5.007 8.184 11.06 10.76 18.15 2.568 7.093 3.856 14.95 3.856 23.57zm-30.85 0c0-9.596-1.861-17.14-5.581-22.63-3.723-5.491-9.031-8.239-15.93-8.239-6.9 0-12.25 2.748-16.03 8.239-3.789 5.495-5.682 13.04-5.682 22.63 0 9.595 1.893 17.21 5.682 22.84 3.786 5.632 9.132 8.448 16.03 8.448 6.899 0 12.21-2.816 15.93-8.448 3.719-5.632 5.581-13.25 5.581-22.84z"/><path class="cls-3" d="m407.9 779.9c-2e-4 -7.8e-4 -1e-3 -7.8e-4 -2e-3 0-2.708 10.57-5.581 21.07-8.624 31.5-3.044 10.43-6.259 20.93-9.639 31.5-7e-5 2.1e-4 -2.8e-4 3.6e-4 -5.1e-4 3.6e-4l-23.54 2e-5c-2.1e-4 0-3.9e-4 -1.2e-4 -4.7e-4 -3.1e-4 -2.441-5.841-5.089-12.79-7.936-20.86-2.851-8.063-5.803-16.86-8.853-26.39-3.053-9.523-6.173-19.61-9.363-30.25-3.19-10.64-6.275-21.38-9.259-32.23-9e-5 -3.4e-4 1.6e-4 -6.7e-4 5.1e-4 -6.7e-4l31.86-2e-5c2.5e-4 0 4.6e-4 1.6e-4 5.1e-4 4e-4 1.087 5.006 2.277 10.47 3.57 16.37 1.293 5.912 2.654 11.99 4.084 18.25 1.43 6.258 2.927 12.55 4.493 18.88 1.563 6.33 3.161 12.41 4.797 18.25 1.756-6.117 3.481-12.38 5.175-18.77 1.69-6.395 3.313-12.69 4.87-18.88 1.554-6.186 3.044-12.17 4.465-17.94 1.42-5.768 2.669-11.16 3.754-16.17 6e-5 -2.4e-4 2.7e-4 -4.1e-4 5.2e-4 -4.1e-4l21.92 1e-5c2.5e-4 0 4.6e-4 1.7e-4 5.1e-4 4.1e-4 1.081 5.006 2.299 10.4 3.652 16.17 1.351 5.772 2.771 11.75 4.262 17.94 1.487 6.189 3.044 12.48 4.667 18.88 1.624 6.398 3.313 12.66 5.073 18.77 1.633-5.841 3.266-11.92 4.899-18.25 1.633-6.326 3.165-12.62 4.595-18.88 1.427-6.257 2.787-12.34 4.081-18.25 1.294-5.909 2.483-11.37 3.574-16.38 0 2e-5 31.43 2e-5 31.45 2e-5 3.5e-4 0-8e-5 3.3e-4 -1.7e-4 6.7e-4 -2.987 10.85-6.072 21.59-9.262 32.23-3.19 10.64-6.31 20.72-9.36 30.25-3.053 9.526-6.037 18.32-8.954 26.39-2.917 8.066-5.597 15.02-8.038 20.86-8e-5 2e-4 -2.7e-4 3.1e-4 -4.7e-4 3.1e-4l-23.54-1e-5c-2.3e-4 0-4.4e-4 -1.5e-4 -5.1e-4 -3.7e-4 -3.383-10.57-6.697-21.07-9.944-31.5-3.247-10.43-6.224-20.93-8.928-31.5z"/><path class="cls-3" d="m494.9 788.9c0-9.732 1.452-18.25 4.363-25.55 2.907-7.301 6.729-13.38 11.47-18.25 4.733-4.866 10.18-8.552 16.34-11.06 6.154-2.503 12.48-3.754 18.97-3.754 15.15 0 27.12 4.765 35.92 14.29 8.793 9.527 13.19 23.54 13.19 42.03 0 1.81-0.0693 3.791-0.2021 5.945-0.1367 2.157-0.2734 4.067-0.4062 5.736-2e-5 2.7e-4 -2.5e-4 4.7e-4 -5.2e-4 4.7e-4h-68.59c-3e-4 0-5.4e-4 2.8e-4 -5.1e-4 5.8e-4 0.6749 6.397 3.583 11.47 8.725 15.23 5.141 3.754 12.04 5.632 20.7 5.632 5.546 0 10.99-0.5215 16.34-1.564 5.342-1.043 9.706-2.327 13.09-3.859 3.2e-4 -1.4e-4 6.7e-4 6e-5 7.3e-4 4.1e-4l4.059 25.24c4e-5 2.2e-4 -6e-5 4.4e-4 -2.7e-4 5.5e-4 -1.624 0.8339-3.79 1.668-6.494 2.503-2.708 0.834-5.717 1.564-9.03 2.19-3.317 0.625-6.868 1.146-10.65 1.564-3.789 0.417-7.578 0.625-11.36 0.625-9.607 0-17.96-1.46-25.06-4.38-7.104-2.921-12.99-6.916-17.66-11.99-4.668-5.075-8.117-11.09-10.35-18.04-2.232-6.952-3.349-14.46-3.349-22.53zm71.03-11.89c3.1e-4 0 5.6e-4 -2.6e-4 5.4e-4 -5.7e-4 -0.1368-2.64-0.5772-5.214-1.319-7.717-0.7451-2.504-1.896-4.727-3.449-6.676-1.558-1.945-3.521-3.546-5.886-4.797-2.368-1.252-5.311-1.878-8.827-1.878-3.384 0-6.291 0.5938-8.727 1.773-2.435 1.183-4.464 2.747-6.088 4.693-1.623 1.949-2.876 4.208-3.754 6.779-0.8818 2.574-1.522 5.181-1.928 7.822-4e-5 3.2e-4 2.1e-4 6.1e-4 5.4e-4 6.1e-4z"/><path class="cls-3" d="m683.2 760.7c-6e-5 3e-4 -3.4e-4 4.9e-4 -6.3e-4 4.1e-4 -2.707-0.6943-5.884-1.424-9.537-2.19-3.653-0.7627-7.578-1.146-11.77-1.146-1.896 0-4.16 0.1758-6.798 0.5215-2.638 0.3486-4.635 0.7294-5.986 1.146-2.2e-4 7e-5 -3.5e-4 2.7e-4 -3.5e-4 5e-4l2e-5 83.85c0 2.9e-4 -2.3e-4 5.2e-4 -5.2e-4 5.2e-4h-30.24c-2.9e-4 0-5.3e-4 -2.3e-4 -5.3e-4 -5.3e-4l-2e-5 -103.9c0-2.1e-4 1.2e-4 -3.9e-4 3.2e-4 -4.6e-4 5.409-1.946 11.8-3.787 19.18-5.528 7.373-1.736 15.59-2.606 24.66-2.606 1.624 0 3.583 0.1035 5.886 0.3125 2.299 0.209 4.598 0.4893 6.899 0.834 2.299 0.3486 4.598 0.7666 6.899 1.252 2.299 0.4892 4.261 1.079 5.885 1.772 2.3e-4 1e-4 3.5e-4 3.4e-4 3e-4 5.9e-4z"/><path class="cls-3" d="m697.8 788.9c0-9.732 1.452-18.25 4.363-25.55 2.907-7.301 6.729-13.38 11.47-18.25 4.733-4.866 10.18-8.552 16.34-11.06 6.154-2.503 12.48-3.754 18.97-3.754 15.15 0 27.12 4.765 35.92 14.29 8.793 9.527 13.19 23.54 13.19 42.03 0 1.81-0.0693 3.791-0.2021 5.945-0.1367 2.157-0.2734 4.067-0.4062 5.736-2e-5 2.7e-4 -2.5e-4 4.7e-4 -5.2e-4 4.7e-4h-68.59c-3e-4 0-5.4e-4 2.8e-4 -5.1e-4 5.8e-4 0.6749 6.397 3.583 11.47 8.725 15.23 5.141 3.754 12.04 5.632 20.7 5.632 5.546 0 10.99-0.5215 16.34-1.564 5.342-1.043 9.706-2.327 13.09-3.859 3.2e-4 -1.4e-4 6.7e-4 6e-5 7.3e-4 4.1e-4l4.059 25.24c4e-5 2.2e-4 -6e-5 4.4e-4 -2.7e-4 5.5e-4 -1.624 0.8339-3.79 1.668-6.494 2.503-2.708 0.834-5.717 1.564-9.03 2.19-3.317 0.625-6.868 1.146-10.65 1.564-3.789 0.417-7.578 0.625-11.36 0.625-9.607 0-17.96-1.46-25.06-4.38-7.104-2.921-12.99-6.916-17.66-11.99-4.668-5.075-8.117-11.09-10.35-18.04-2.232-6.952-3.349-14.46-3.349-22.53zm71.03-11.89c3.1e-4 0 5.6e-4 -2.6e-4 5.4e-4 -5.7e-4 -0.1368-2.64-0.5772-5.214-1.319-7.717-0.7451-2.504-1.896-4.727-3.449-6.676-1.558-1.945-3.521-3.546-5.886-4.797-2.368-1.252-5.311-1.878-8.827-1.878-3.384 0-6.291 0.5938-8.727 1.773-2.435 1.183-4.464 2.747-6.088 4.693-1.623 1.949-2.876 4.208-3.754 6.779-0.8818 2.574-1.522 5.181-1.928 7.822-5e-5 3.2e-4 2e-4 6.1e-4 5.3e-4 6.1e-4z"/><path class="cls-3" d="m915.9 839.4c0 2.3e-4 -1.4e-4 4.3e-4 -3.6e-4 4.9e-4 -2.707 0.834-5.818 1.636-9.335 2.398-3.52 0.7666-7.203 1.425-11.06 1.981-3.855 0.5547-7.781 1.008-11.77 1.356-3.992 0.3457-7.813 0.5215-11.47 0.5215-8.796 0-16.64-1.323-23.54-3.964-6.899-2.64-12.72-6.43-17.45-11.37-4.737-4.935-8.355-10.92-10.86-17.94-2.505-7.021-3.754-14.92-3.754-23.68 0-8.897 1.081-16.93 3.247-24.09 2.162-7.161 5.276-13.25 9.335-18.25 4.059-5.007 9.03-8.829 14.92-11.47 5.886-2.64 12.61-3.963 20.19-3.963 4.191 0 7.945 0.417 11.26 1.251 3.313 0.8339 6.661 2.017 10.04 3.546 3.4e-4 1.5e-4 7.4e-4 -1e-4 7.4e-4 -4.8e-4v-49.64c0-2.5e-4 1.8e-4 -4.8e-4 4.4e-4 -5.2e-4l30.24-5.007c3.2e-4 -5e-5 6.2e-4 2e-4 6.2e-4 5.2e-4zm-68.39-52.15c0 9.596 2.096 17.31 6.291 23.15 4.191 5.84 10.42 8.761 18.67 8.761 2.704 0 5.206-0.1045 7.508-0.3135 2.299-0.208 4.192-0.4492 5.682-0.7294 2.5e-4 -5e-5 4.1e-4 -2.6e-4 4.1e-4 -5.2e-4l2e-5 -56.53c0-1.6e-4 -8e-5 -3.1e-4 -2.2e-4 -4.1e-4 -1.896-1.252-4.363-2.295-7.407-3.129-3.044-0.835-6.123-1.252-9.233-1.252-14.34 0-21.51 10.01-21.51 30.04z"/></g></g></svg>
