<svg width="5000" height="5000" fill="none" version="1.1" viewBox="0 0 5000 5000" xml:space="preserve" xmlns="http://www.w3.org/2000/svg"><g fill="none"><g transform="translate(0)" filter="url(#f)"><path d="m3599 204.4c-102.9 1.621-464 3.455-802.4 4.071l-615.3 1.118-33.26 18.74c-18.29 10.31-36.33 21.35-40.1 24.55-7.72 6.554-98.66 51.7-142.8 70.9-16 6.957-45 17.39-64.44 23.19-90.81 27.08-136.7 26.13-219.5-4.554-30.53-11.31-32.81-14.43-21.83-29.85 5.01-7.036 7.21-12.8 4.88-12.8s-6.01 3.185-8.2 7.081c-3.29 5.88-5.05 6.171-10.41 1.722-3.56-2.949-8.18-4.296-10.29-2.994-4.83 2.99-38.66-22.6-49.43-37.39l-8.1-11.12-2.79 126.4c-2.96 134.1-8.37 495.5-15.11 1009-2.26 172-6.92 405.9-10.35 519.8-5.45 180.6-14.69 811.9-14.69 1003 0 62.63-0.47 66.66-7.87 66.66-4.33 0-8.95 2.8-10.26 6.24-1.49 3.87-7.83 6.23-16.74 6.23-12.11 0-15.82 2.43-23.86 15.6-5.24 8.58-12.4 17.87-15.93 20.66-5.71 4.51-5.65 5.08 0.62 5.19 9.39 0.18 13.46 7.53 7.89 14.25-3.02 3.63-3.3 11.88-0.86 24.96 4.39 23.5 6.87 26.51 16.77 20.33 6.99-4.37 7.63-2.9 8.12 18.56 0.36 15.55-1.77 26.84-6.42 33.92-8.58 13.11-22.48 25.02-29.41 25.2-2.86 0.08-5.2 2.72-5.2 5.87s-4.21 8.84-9.35 12.63c-6.42 4.74-7.73 7.62-4.16 9.18 8.41 3.66 5.94 9.3-3.04 6.95-6.16-1.61-9.34 0.71-12.56 9.19-3.74 9.83-2.84 12.82 6.68 22.3 10.7 10.66 10.76 10.98 2.16 12.28-16.52 2.48-10.19 13.22 7.8 13.22 18.02 0 18.75 0.75 12.38 12.66-3.64 6.78-2.21 8.8 9.77 13.81 19.42 8.11 33.8 28.74 27.82 39.92-3.37 6.3-3 11.27 1.49 19.95 5.02 9.72 5.09 13.21 0.44 21.87-4.73 8.81-4.58 11.36 1.03 17.58 6 6.66 5.95 7.28-0.56 7.28-11.79 0-3.26 7.75 14.33 13.02 19.23 5.76 38.7 27.83 32.83 37.19-2.05 3.26-2.63 9.42-1.3 13.7 1.33 4.27-0.03 12.35-3.02 17.94-4.49 8.39-4.48 10.76 0.02 13.55 4.02 2.48 2.03 5.42-7.46 11.02-13.34 7.89-15.69 11.98-9.17 16.01 4.12 2.55-3.83 23.02-8.96 23.08-6.72 0.07-2.65 7.94 5.43 10.5 9.86 3.13 17.4 19.45 17.11 37.03-0.12 7.26 5.09 19.53 12.94 30.47l13.15 18.31-10.29 7.9c-8.34 6.42-8.91 7.93-3.01 8 10.17 0.13 9.79 28.53-0.63 46.64-4.35 7.56-9.17 19.81-10.72 27.22-3.27 15.72-17.83 28.53-36.65 32.24-24.53 4.84-36.25 11.31-38.78 21.4-1.37 5.46-5.22 11.45-8.55 13.32-3.33 1.86-6.59 7.92-7.23 13.46s-2.47 15.85-4.05 22.92c-2.07 9.21-1.08 14.35 3.49 18.15 8.8 7.3 3.92 13.23-8.34 10.15-8.2-2.06-10.14-0.97-10.14 5.71 0 4.54-2.81 10.59-6.24 13.44-3.43 2.84-6.23 8.24-6.23 11.98s-3.82 9.19-8.5 12.11c-8.45 5.28-8.44 5.4 2.55 25.59 12.03 22.12 10.49 31.36-4.62 27.57-7.36-1.84-10.31-0.35-12.42 6.29-3.09 9.74-31.65 24.34-47.9 24.48-19.18 0.17-29.29 21.79-12.26 26.25 8.71 2.28 11.28 13.1 4.16 17.5-2.29 1.42-4.16 8.42-4.16 15.55 0 19.52-30.48 64.27-46.1 67.7-19.93 4.38-33.33 26.29-37.1 60.69-2.41 21.95-5.58 31.92-12.24 38.49-8.92 8.8-9.02 8.8-15.09 0.62-3.73-5.02-5.17-12.58-3.68-19.35 1.47-6.67 0.43-12.37-2.59-14.24-5.24-3.24-7.17-1.1-24.35 27.16-11.2 18.4-23.95 23.33-19.13 7.39 5.56-18.39 4.67-21.83-5.68-21.83-12.18 0-25.48 20.39-22.35 34.27 1.39 6.13-0.17 10.19-4.57 11.88-3.67 1.41-6.68 6.1-6.68 10.43 0 10.72-4.32 9.88-14.41-2.77l-8.48-10.65 0.13 31.3c0.15 34.47 7.29 49.55 28.33 59.87 6.66 3.27 11.06 8.85 11.06 14.02 0 7.06 1.09 7.7 6.05 3.58 5.92-4.91 14.74-2.81 14.74 3.5 0 7.39-30.57 38.26-35.87 36.22-8.65-3.32-18.18 1.73-18.18 9.64 0 10.25-8.39 17.02-21.11 17.02-13.18 0-21.67 8.66-17.96 18.31 2.88 7.53 13.34 6.05 29.57-4.19 5.07-3.19 11.88-5.8 15.14-5.8 6.85 0 12.19 16.99 8.42 26.81-4.34 11.32-36.17 27.24-54.45 27.24-17.01 0-29.2 8.3-24.16 16.46 1.47 2.38 8.18 4.34 14.91 4.34 13.8 0 15.57 6.04 5.16 17.55-6.17 6.82-6.38 9.51-1.61 21.12 10.74 26.14 10.43 34.83-1.51 42.66-9.42 6.17-10.84 9.71-9.78 24.28 1.33 18.11 1.28 18.14-23.69 14.21-5.2-0.82-8.31 1.03-8.31 4.93 0 4.28 6.85 7.4 21.89 9.95 17.82 3.02 22.35 5.49 24.3 13.28 3.3 13.17-1.18 19.37-10.44 14.42-4.06-2.18-11.57-2.87-16.67-1.53-5.98 1.56-13.55-0.73-21.29-6.45-23.87-17.65-26.07-11.05-8.16 24.43 9.58 19 16.36 26.73 29.1 33.23 10.84 5.53 16.6 11.31 16.6 16.63 0 11.58-16.84 14.72-33.28 6.21-16.8-8.68-23.44-3.73-17.67 13.17 3.81 11.15 5.22 11.73 25.42 10.64 17.5-0.96 21.38 0.07 21.38 5.64 0 4.55 2.22 5.95 6.7 4.23 7.32-2.81 30.54 9.6 48.04 25.67l11.09 10.18 7.62-9.63c4.19-5.3 14.84-16.49 23.66-24.87 15.3-14.52 15.91-16.08 13-33.44-1.68-10.04-8.41-25-15.01-33.35-6.57-8.34-11.95-19.39-11.95-24.58 0-13.37 31.49-53.83 41.89-53.83 9.21 0 20.18 10.45 39.18 37.31 19.77 27.96 41.13 32.2 71.79 14.23 13.84-8.11 21.72-10.17 31.44-8.23 7.92 1.58 20.57-0.14 32.55-4.45 16.64-5.99 20.62-6.2 26.43-1.38 7.32 6.08 6.76 11.81-3.97 40.78-5.57 15.02-5.79 19.81-1.35 29.11 4.51 9.47 8.33 11.33 25.38 12.42 23.27 1.49 36.44-5.4 48.65-25.42 13.23-21.7 10.76-38.36-8.5-57.44-19.79-19.59-21.79-34.8-6.47-49.2 5.6-5.25 10.74-14.46 11.44-20.47 0.89-7.68 3.71-10.93 9.48-10.93 5.86 0 11.37 6.58 19.22 22.97 8.63 17.99 15.67 25.86 32.6 36.38 11.87 7.38 23.5 13.42 25.85 13.42 2.34 0 11.76-6.42 20.94-14.28 38.11-32.63 64.85-34.43 104-7.01 12.36 8.66 31.42 20.21 42.36 25.68 10.93 5.46 34.21 21.92 51.73 36.57 34.41 28.79 51.68 38.05 70.9 38.05 18.35 0 34.98 16.46 43.3 42.82 6 19.05 9.03 23.13 18.54 24.98 15.42 3 37.65-8.2 47.26-23.8 11.63-18.87 20.83-51.09 22.55-78.89 1.11-18.23 3.88-27.04 10.77-34.38 15.78-16.79 44.08-30.81 66.99-33.18 36.09-3.74 46.27-8.72 67.11-32.87 11.13-12.89 28.75-27.44 40.37-33.33 19.74-10.01 21.11-10.16 32.31-3.54 7.79 4.6 14.18 14 19.19 28.21 15.84 45.01 44.43 89.92 57.23 89.92 2 0 11.79-5.61 21.76-12.47 18.38-12.65 25.24-14.49 37.07-9.95 8.29 3.18 8.33 15.03 0.12 42.65-3.55 11.96-5.29 25.4-3.87 29.87 3.13 9.88 18.23 10.7 35.23 1.91 19.13-9.9 24.99-21.79 24.99-50.7 0-31.7 5.25-35.98 39.2-31.99 17.72 2.08 25.3 1.13 33.43-4.2 12.8-8.38 12.98-12.55 1.66-38.14-7.4-16.74-8.49-25.27-6.66-51.98 2.99-43.72 6.71-49.63 31.25-49.71 22.99-0.07 36.45-6.1 47.81-21.4 10.67-14.39 7.11-28.32-9.66-37.76-10.29-5.79-12.6-9.54-11.55-18.71 1.87-16.23 19.86-17.84 38.71-3.45 16.75 12.77 21.51 13.3 24.85 2.75 4-12.59 12.94-17.7 35.98-20.57 36.7-4.57 39.23-27.27 3.99-35.86-19.45-4.73-27.3-14.39-23.63-29.03 3.97-15.83 13.46-15.53 33.33 1.04 10.18 8.49 24.62 19.18 32.09 23.75 21.52 13.18 28.99 29.48 23.82 52-2.36 10.28-3.48 28.83-2.51 41.21 1.96 24.68 7.95 31.86 52.23 62.58 29.31 20.34 43.31 24.3 67.96 19.25 31.23-6.4 52.41 2.38 65.85 27.3 15.13 28.04 24.83 37.84 31.77 32.08 3.08-2.56 5.6-10.86 5.6-18.45s1.56-14.76 3.46-15.93c1.9-1.18 21.07-5.97 42.61-10.66 47.96-10.43 52.12-14.97 64.77-70.77 7.18-31.67 8.53-47.54 6.71-79.24-2.71-46.97 0.73-56.15 34.27-91.6 18.23-19.27 22.71-27.12 26.86-47.15 5.98-28.81 14.24-38.07 37.43-41.99 15.28-2.58 18.84-1.6 28.74 7.88 6.21 5.95 14.1 10.82 17.54 10.82 10.29 0 54.82-28.44 66.98-42.78 16.88-19.9 28.16-46.39 28.26-66.33 0.05-9.75 4.66-30.82 10.24-46.83 13.42-38.47 30.42-54.03 63.55-58.18 40.78-5.09 52.47-12.02 67.32-39.87 9.72-18.25 17.39-26.88 29.26-32.93 8.84-4.52 19.01-12.39 22.59-17.51 9.16-13.08 8.09-37.98-2.53-58.55-6.54-12.69-9.49-27.22-10.71-52.85-1.07-22.34-4.8-43.11-10.14-56.44l-8.45-21.1 8.83-17.3c13.24-25.96 23.9-31.33 53.32-26.88 17.15 2.6 30.36 2.1 44.93-1.68 25.36-6.57 60.53-7.05 73.81-1 5.45 2.49 12.99 9.76 16.78 16.17s13.52 17.48 21.62 24.6c25.1 22.04 50.42 16.31 92.06-20.85 13.78-12.29 30.48-25.15 37.12-28.57s26.1-15.3 43.25-26.39c29.26-18.94 32.45-20.03 51.69-17.8 16.54 1.92 25.17 0.28 44.64-8.46 24.81-11.14 24.44-11.12 75.12-3.01 20.04 3.2 23.95-5.23 11.91-25.65-12.45-21.1-11.12-27.65 9.96-49.03 10.29-10.44 18.71-22 18.71-25.69 0-19.36-19.63-31.11-51.94-31.11-12.18 0-19.73-2.52-24.99-8.34-9.37-10.35-5.95-19.04 18.23-46.36 9.42-10.64 17.08-21.87 17.03-24.95-0.17-10.72-15.62-39.05-36.79-67.5-11.73-15.75-21.32-31.12-21.32-34.16 0-3.03 6.24-9.8 13.86-15.02 7.63-5.23 22.26-16.99 32.53-26.14l18.65-16.64-3.23-343.1c-1.78-188.7-5.16-624.7-7.51-968.9-2.35-344.2-7.05-748.4-10.44-898.2-3.39-149.8-8.15-385.6-10.57-524-2.44-138.4-5.48-268.9-6.77-290l-2.35-38.46-69.25 0.74c-38.08 0.408-153.4 2.067-256.3 3.693z" clip-rule="evenodd" fill="none" fill-rule="evenodd" stroke="#464eff" stroke-linejoin="round" stroke-width="100"/></g><g transform="translate(0)" filter="url(#e)"><path d="m3599 204.4c-102.9 1.621-464 3.455-802.4 4.071l-615.3 1.118-33.26 18.74c-18.29 10.31-36.33 21.35-40.1 24.55-7.72 6.554-98.66 51.7-142.8 70.9-16 6.957-45 17.39-64.44 23.19-90.81 27.08-136.7 26.13-219.5-4.554-30.53-11.31-32.81-14.43-21.83-29.85 5.01-7.036 7.21-12.8 4.88-12.8s-6.01 3.185-8.2 7.081c-3.29 5.88-5.05 6.171-10.41 1.722-3.56-2.949-8.18-4.296-10.29-2.994-4.83 2.99-38.66-22.6-49.43-37.39l-8.1-11.12-2.79 126.4c-2.96 134.1-8.37 495.5-15.11 1009-2.26 172-6.92 405.9-10.35 519.8-5.45 180.6-14.69 811.9-14.69 1003 0 62.63-0.47 66.66-7.87 66.66-4.33 0-8.95 2.8-10.26 6.24-1.49 3.87-7.83 6.23-16.74 6.23-12.11 0-15.82 2.43-23.86 15.6-5.24 8.58-12.4 17.87-15.93 20.66-5.71 4.51-5.65 5.08 0.62 5.19 9.39 0.18 13.46 7.53 7.89 14.25-3.02 3.63-3.3 11.88-0.86 24.96 4.39 23.5 6.87 26.51 16.77 20.33 6.99-4.37 7.63-2.9 8.12 18.56 0.36 15.55-1.77 26.84-6.42 33.92-8.58 13.11-22.48 25.02-29.41 25.2-2.86 0.08-5.2 2.72-5.2 5.87s-4.21 8.84-9.35 12.63c-6.42 4.74-7.73 7.62-4.16 9.18 8.41 3.66 5.94 9.3-3.04 6.95-6.16-1.61-9.34 0.71-12.56 9.19-3.74 9.83-2.84 12.82 6.68 22.3 10.7 10.66 10.76 10.98 2.16 12.28-16.52 2.48-10.19 13.22 7.8 13.22 18.02 0 18.75 0.75 12.38 12.66-3.64 6.78-2.21 8.8 9.77 13.81 19.42 8.11 33.8 28.74 27.82 39.92-3.37 6.3-3 11.27 1.49 19.95 5.02 9.72 5.09 13.21 0.44 21.87-4.73 8.81-4.58 11.36 1.03 17.58 6 6.66 5.95 7.28-0.56 7.28-11.79 0-3.26 7.75 14.33 13.02 19.23 5.76 38.7 27.83 32.83 37.19-2.05 3.26-2.63 9.42-1.3 13.7 1.33 4.27-0.03 12.35-3.02 17.94-4.49 8.39-4.48 10.76 0.02 13.55 4.02 2.48 2.03 5.42-7.46 11.02-13.34 7.89-15.69 11.98-9.17 16.01 4.12 2.55-3.83 23.02-8.96 23.08-6.72 0.07-2.65 7.94 5.43 10.5 9.86 3.13 17.4 19.45 17.11 37.03-0.12 7.26 5.09 19.53 12.94 30.47l13.15 18.31-10.29 7.9c-8.34 6.42-8.91 7.93-3.01 8 10.17 0.13 9.79 28.53-0.63 46.64-4.35 7.56-9.17 19.81-10.72 27.22-3.27 15.72-17.83 28.53-36.65 32.24-24.53 4.84-36.25 11.31-38.78 21.4-1.37 5.46-5.22 11.45-8.55 13.32-3.33 1.86-6.59 7.92-7.23 13.46s-2.47 15.85-4.05 22.92c-2.07 9.21-1.08 14.35 3.49 18.15 8.8 7.3 3.92 13.23-8.34 10.15-8.2-2.06-10.14-0.97-10.14 5.71 0 4.54-2.81 10.59-6.24 13.44-3.43 2.84-6.23 8.24-6.23 11.98s-3.82 9.19-8.5 12.11c-8.45 5.28-8.44 5.4 2.55 25.59 12.03 22.12 10.49 31.36-4.62 27.57-7.36-1.84-10.31-0.35-12.42 6.29-3.09 9.74-31.65 24.34-47.9 24.48-19.18 0.17-29.29 21.79-12.26 26.25 8.71 2.28 11.28 13.1 4.16 17.5-2.29 1.42-4.16 8.42-4.16 15.55 0 19.52-30.48 64.27-46.1 67.7-19.93 4.38-33.33 26.29-37.1 60.69-2.41 21.95-5.58 31.92-12.24 38.49-8.92 8.8-9.02 8.8-15.09 0.62-3.73-5.02-5.17-12.58-3.68-19.35 1.47-6.67 0.43-12.37-2.59-14.24-5.24-3.24-7.17-1.1-24.35 27.16-11.2 18.4-23.95 23.33-19.13 7.39 5.56-18.39 4.67-21.83-5.68-21.83-12.18 0-25.48 20.39-22.35 34.27 1.39 6.13-0.17 10.19-4.57 11.88-3.67 1.41-6.68 6.1-6.68 10.43 0 10.72-4.32 9.88-14.41-2.77l-8.48-10.65 0.13 31.3c0.15 34.47 7.29 49.55 28.33 59.87 6.66 3.27 11.06 8.85 11.06 14.02 0 7.06 1.09 7.7 6.05 3.58 5.92-4.91 14.74-2.81 14.74 3.5 0 7.39-30.57 38.26-35.87 36.22-8.65-3.32-18.18 1.73-18.18 9.64 0 10.25-8.39 17.02-21.11 17.02-13.18 0-21.67 8.66-17.96 18.31 2.88 7.53 13.34 6.05 29.57-4.19 5.07-3.19 11.88-5.8 15.14-5.8 6.85 0 12.19 16.99 8.42 26.81-4.34 11.32-36.17 27.24-54.45 27.24-17.01 0-29.2 8.3-24.16 16.46 1.47 2.38 8.18 4.34 14.91 4.34 13.8 0 15.57 6.04 5.16 17.55-6.17 6.82-6.38 9.51-1.61 21.12 10.74 26.14 10.43 34.83-1.51 42.66-9.42 6.17-10.84 9.71-9.78 24.28 1.33 18.11 1.28 18.14-23.69 14.21-5.2-0.82-8.31 1.03-8.31 4.93 0 4.28 6.85 7.4 21.89 9.95 17.82 3.02 22.35 5.49 24.3 13.28 3.3 13.17-1.18 19.37-10.44 14.42-4.06-2.18-11.57-2.87-16.67-1.53-5.98 1.56-13.55-0.73-21.29-6.45-23.87-17.65-26.07-11.05-8.16 24.43 9.58 19 16.36 26.73 29.1 33.23 10.84 5.53 16.6 11.31 16.6 16.63 0 11.58-16.84 14.72-33.28 6.21-16.8-8.68-23.44-3.73-17.67 13.17 3.81 11.15 5.22 11.73 25.42 10.64 17.5-0.96 21.38 0.07 21.38 5.64 0 4.55 2.22 5.95 6.7 4.23 7.32-2.81 30.54 9.6 48.04 25.67l11.09 10.18 7.62-9.63c4.19-5.3 14.84-16.49 23.66-24.87 15.3-14.52 15.91-16.08 13-33.44-1.68-10.04-8.41-25-15.01-33.35-6.57-8.34-11.95-19.39-11.95-24.58 0-13.37 31.49-53.83 41.89-53.83 9.21 0 20.18 10.45 39.18 37.31 19.77 27.96 41.13 32.2 71.79 14.23 13.84-8.11 21.72-10.17 31.44-8.23 7.92 1.58 20.57-0.14 32.55-4.45 16.64-5.99 20.62-6.2 26.43-1.38 7.32 6.08 6.76 11.81-3.97 40.78-5.57 15.02-5.79 19.81-1.35 29.11 4.51 9.47 8.33 11.33 25.38 12.42 23.27 1.49 36.44-5.4 48.65-25.42 13.23-21.7 10.76-38.36-8.5-57.44-19.79-19.59-21.79-34.8-6.47-49.2 5.6-5.25 10.74-14.46 11.44-20.47 0.89-7.68 3.71-10.93 9.48-10.93 5.86 0 11.37 6.58 19.22 22.97 8.63 17.99 15.67 25.86 32.6 36.38 11.87 7.38 23.5 13.42 25.85 13.42 2.34 0 11.76-6.42 20.94-14.28 38.11-32.63 64.85-34.43 104-7.01 12.36 8.66 31.42 20.21 42.36 25.68 10.93 5.46 34.21 21.92 51.73 36.57 34.41 28.79 51.68 38.05 70.9 38.05 18.35 0 34.98 16.46 43.3 42.82 6 19.05 9.03 23.13 18.54 24.98 15.42 3 37.65-8.2 47.26-23.8 11.63-18.87 20.83-51.09 22.55-78.89 1.11-18.23 3.88-27.04 10.77-34.38 15.78-16.79 44.08-30.81 66.99-33.18 36.09-3.74 46.27-8.72 67.11-32.87 11.13-12.89 28.75-27.44 40.37-33.33 19.74-10.01 21.11-10.16 32.31-3.54 7.79 4.6 14.18 14 19.19 28.21 15.84 45.01 44.43 89.92 57.23 89.92 2 0 11.79-5.61 21.76-12.47 18.38-12.65 25.24-14.49 37.07-9.95 8.29 3.18 8.33 15.03 0.12 42.65-3.55 11.96-5.29 25.4-3.87 29.87 3.13 9.88 18.23 10.7 35.23 1.91 19.13-9.9 24.99-21.79 24.99-50.7 0-31.7 5.25-35.98 39.2-31.99 17.72 2.08 25.3 1.13 33.43-4.2 12.8-8.38 12.98-12.55 1.66-38.14-7.4-16.74-8.49-25.27-6.66-51.98 2.99-43.72 6.71-49.63 31.25-49.71 22.99-0.07 36.45-6.1 47.81-21.4 10.67-14.39 7.11-28.32-9.66-37.76-10.29-5.79-12.6-9.54-11.55-18.71 1.87-16.23 19.86-17.84 38.71-3.45 16.75 12.77 21.51 13.3 24.85 2.75 4-12.59 12.94-17.7 35.98-20.57 36.7-4.57 39.23-27.27 3.99-35.86-19.45-4.73-27.3-14.39-23.63-29.03 3.97-15.83 13.46-15.53 33.33 1.04 10.18 8.49 24.62 19.18 32.09 23.75 21.52 13.18 28.99 29.48 23.82 52-2.36 10.28-3.48 28.83-2.51 41.21 1.96 24.68 7.95 31.86 52.23 62.58 29.31 20.34 43.31 24.3 67.96 19.25 31.23-6.4 52.41 2.38 65.85 27.3 15.13 28.04 24.83 37.84 31.77 32.08 3.08-2.56 5.6-10.86 5.6-18.45s1.56-14.76 3.46-15.93c1.9-1.18 21.07-5.97 42.61-10.66 47.96-10.43 52.12-14.97 64.77-70.77 7.18-31.67 8.53-47.54 6.71-79.24-2.71-46.97 0.73-56.15 34.27-91.6 18.23-19.27 22.71-27.12 26.86-47.15 5.98-28.81 14.24-38.07 37.43-41.99 15.28-2.58 18.84-1.6 28.74 7.88 6.21 5.95 14.1 10.82 17.54 10.82 10.29 0 54.82-28.44 66.98-42.78 16.88-19.9 28.16-46.39 28.26-66.33 0.05-9.75 4.66-30.82 10.24-46.83 13.42-38.47 30.42-54.03 63.55-58.18 40.78-5.09 52.47-12.02 67.32-39.87 9.72-18.25 17.39-26.88 29.26-32.93 8.84-4.52 19.01-12.39 22.59-17.51 9.16-13.08 8.09-37.98-2.53-58.55-6.54-12.69-9.49-27.22-10.71-52.85-1.07-22.34-4.8-43.11-10.14-56.44l-8.45-21.1 8.83-17.3c13.24-25.96 23.9-31.33 53.32-26.88 17.15 2.6 30.36 2.1 44.93-1.68 25.36-6.57 60.53-7.05 73.81-1 5.45 2.49 12.99 9.76 16.78 16.17s13.52 17.48 21.62 24.6c25.1 22.04 50.42 16.31 92.06-20.85 13.78-12.29 30.48-25.15 37.12-28.57s26.1-15.3 43.25-26.39c29.26-18.94 32.45-20.03 51.69-17.8 16.54 1.92 25.17 0.28 44.64-8.46 24.81-11.14 24.44-11.12 75.12-3.01 20.04 3.2 23.95-5.23 11.91-25.65-12.45-21.1-11.12-27.65 9.96-49.03 10.29-10.44 18.71-22 18.71-25.69 0-19.36-19.63-31.11-51.94-31.11-12.18 0-19.73-2.52-24.99-8.34-9.37-10.35-5.95-19.04 18.23-46.36 9.42-10.64 17.08-21.87 17.03-24.95-0.17-10.72-15.62-39.05-36.79-67.5-11.73-15.75-21.32-31.12-21.32-34.16 0-3.03 6.24-9.8 13.86-15.02 7.63-5.23 22.26-16.99 32.53-26.14l18.65-16.64-3.23-343.1c-1.78-188.7-5.16-624.7-7.51-968.9-2.35-344.2-7.05-748.4-10.44-898.2-3.39-149.8-8.15-385.6-10.57-524-2.44-138.4-5.48-268.9-6.77-290l-2.35-38.46-69.25 0.74c-38.08 0.408-153.4 2.067-256.3 3.693z" clip-rule="evenodd" fill="none" fill-rule="evenodd" stroke="#464eff" stroke-linejoin="round" stroke-width="100"/></g><g transform="translate(0)" filter="url(#d)"><path d="m3599 204.4c-102.9 1.621-464 3.455-802.4 4.071l-615.3 1.118-33.26 18.74c-18.29 10.31-36.33 21.35-40.1 24.55-7.72 6.554-98.66 51.7-142.8 70.9-16 6.957-45 17.39-64.44 23.19-90.81 27.08-136.7 26.13-219.5-4.554-30.53-11.31-32.81-14.43-21.83-29.85 5.01-7.036 7.21-12.8 4.88-12.8s-6.01 3.185-8.2 7.081c-3.29 5.88-5.05 6.171-10.41 1.722-3.56-2.949-8.18-4.296-10.29-2.994-4.83 2.99-38.66-22.6-49.43-37.39l-8.1-11.12-2.79 126.4c-2.96 134.1-8.37 495.5-15.11 1009-2.26 172-6.92 405.9-10.35 519.8-5.45 180.6-14.69 811.9-14.69 1003 0 62.63-0.47 66.66-7.87 66.66-4.33 0-8.95 2.8-10.26 6.24-1.49 3.87-7.83 6.23-16.74 6.23-12.11 0-15.82 2.43-23.86 15.6-5.24 8.58-12.4 17.87-15.93 20.66-5.71 4.51-5.65 5.08 0.62 5.19 9.39 0.18 13.46 7.53 7.89 14.25-3.02 3.63-3.3 11.88-0.86 24.96 4.39 23.5 6.87 26.51 16.77 20.33 6.99-4.37 7.63-2.9 8.12 18.56 0.36 15.55-1.77 26.84-6.42 33.92-8.58 13.11-22.48 25.02-29.41 25.2-2.86 0.08-5.2 2.72-5.2 5.87s-4.21 8.84-9.35 12.63c-6.42 4.74-7.73 7.62-4.16 9.18 8.41 3.66 5.94 9.3-3.04 6.95-6.16-1.61-9.34 0.71-12.56 9.19-3.74 9.83-2.84 12.82 6.68 22.3 10.7 10.66 10.76 10.98 2.16 12.28-16.52 2.48-10.19 13.22 7.8 13.22 18.02 0 18.75 0.75 12.38 12.66-3.64 6.78-2.21 8.8 9.77 13.81 19.42 8.11 33.8 28.74 27.82 39.92-3.37 6.3-3 11.27 1.49 19.95 5.02 9.72 5.09 13.21 0.44 21.87-4.73 8.81-4.58 11.36 1.03 17.58 6 6.66 5.95 7.28-0.56 7.28-11.79 0-3.26 7.75 14.33 13.02 19.23 5.76 38.7 27.83 32.83 37.19-2.05 3.26-2.63 9.42-1.3 13.7 1.33 4.27-0.03 12.35-3.02 17.94-4.49 8.39-4.48 10.76 0.02 13.55 4.02 2.48 2.03 5.42-7.46 11.02-13.34 7.89-15.69 11.98-9.17 16.01 4.12 2.55-3.83 23.02-8.96 23.08-6.72 0.07-2.65 7.94 5.43 10.5 9.86 3.13 17.4 19.45 17.11 37.03-0.12 7.26 5.09 19.53 12.94 30.47l13.15 18.31-10.29 7.9c-8.34 6.42-8.91 7.93-3.01 8 10.17 0.13 9.79 28.53-0.63 46.64-4.35 7.56-9.17 19.81-10.72 27.22-3.27 15.72-17.83 28.53-36.65 32.24-24.53 4.84-36.25 11.31-38.78 21.4-1.37 5.46-5.22 11.45-8.55 13.32-3.33 1.86-6.59 7.92-7.23 13.46s-2.47 15.85-4.05 22.92c-2.07 9.21-1.08 14.35 3.49 18.15 8.8 7.3 3.92 13.23-8.34 10.15-8.2-2.06-10.14-0.97-10.14 5.71 0 4.54-2.81 10.59-6.24 13.44-3.43 2.84-6.23 8.24-6.23 11.98s-3.82 9.19-8.5 12.11c-8.45 5.28-8.44 5.4 2.55 25.59 12.03 22.12 10.49 31.36-4.62 27.57-7.36-1.84-10.31-0.35-12.42 6.29-3.09 9.74-31.65 24.34-47.9 24.48-19.18 0.17-29.29 21.79-12.26 26.25 8.71 2.28 11.28 13.1 4.16 17.5-2.29 1.42-4.16 8.42-4.16 15.55 0 19.52-30.48 64.27-46.1 67.7-19.93 4.38-33.33 26.29-37.1 60.69-2.41 21.95-5.58 31.92-12.24 38.49-8.92 8.8-9.02 8.8-15.09 0.62-3.73-5.02-5.17-12.58-3.68-19.35 1.47-6.67 0.43-12.37-2.59-14.24-5.24-3.24-7.17-1.1-24.35 27.16-11.2 18.4-23.95 23.33-19.13 7.39 5.56-18.39 4.67-21.83-5.68-21.83-12.18 0-25.48 20.39-22.35 34.27 1.39 6.13-0.17 10.19-4.57 11.88-3.67 1.41-6.68 6.1-6.68 10.43 0 10.72-4.32 9.88-14.41-2.77l-8.48-10.65 0.13 31.3c0.15 34.47 7.29 49.55 28.33 59.87 6.66 3.27 11.06 8.85 11.06 14.02 0 7.06 1.09 7.7 6.05 3.58 5.92-4.91 14.74-2.81 14.74 3.5 0 7.39-30.57 38.26-35.87 36.22-8.65-3.32-18.18 1.73-18.18 9.64 0 10.25-8.39 17.02-21.11 17.02-13.18 0-21.67 8.66-17.96 18.31 2.88 7.53 13.34 6.05 29.57-4.19 5.07-3.19 11.88-5.8 15.14-5.8 6.85 0 12.19 16.99 8.42 26.81-4.34 11.32-36.17 27.24-54.45 27.24-17.01 0-29.2 8.3-24.16 16.46 1.47 2.38 8.18 4.34 14.91 4.34 13.8 0 15.57 6.04 5.16 17.55-6.17 6.82-6.38 9.51-1.61 21.12 10.74 26.14 10.43 34.83-1.51 42.66-9.42 6.17-10.84 9.71-9.78 24.28 1.33 18.11 1.28 18.14-23.69 14.21-5.2-0.82-8.31 1.03-8.31 4.93 0 4.28 6.85 7.4 21.89 9.95 17.82 3.02 22.35 5.49 24.3 13.28 3.3 13.17-1.18 19.37-10.44 14.42-4.06-2.18-11.57-2.87-16.67-1.53-5.98 1.56-13.55-0.73-21.29-6.45-23.87-17.65-26.07-11.05-8.16 24.43 9.58 19 16.36 26.73 29.1 33.23 10.84 5.53 16.6 11.31 16.6 16.63 0 11.58-16.84 14.72-33.28 6.21-16.8-8.68-23.44-3.73-17.67 13.17 3.81 11.15 5.22 11.73 25.42 10.64 17.5-0.96 21.38 0.07 21.38 5.64 0 4.55 2.22 5.95 6.7 4.23 7.32-2.81 30.54 9.6 48.04 25.67l11.09 10.18 7.62-9.63c4.19-5.3 14.84-16.49 23.66-24.87 15.3-14.52 15.91-16.08 13-33.44-1.68-10.04-8.41-25-15.01-33.35-6.57-8.34-11.95-19.39-11.95-24.58 0-13.37 31.49-53.83 41.89-53.83 9.21 0 20.18 10.45 39.18 37.31 19.77 27.96 41.13 32.2 71.79 14.23 13.84-8.11 21.72-10.17 31.44-8.23 7.92 1.58 20.57-0.14 32.55-4.45 16.64-5.99 20.62-6.2 26.43-1.38 7.32 6.08 6.76 11.81-3.97 40.78-5.57 15.02-5.79 19.81-1.35 29.11 4.51 9.47 8.33 11.33 25.38 12.42 23.27 1.49 36.44-5.4 48.65-25.42 13.23-21.7 10.76-38.36-8.5-57.44-19.79-19.59-21.79-34.8-6.47-49.2 5.6-5.25 10.74-14.46 11.44-20.47 0.89-7.68 3.71-10.93 9.48-10.93 5.86 0 11.37 6.58 19.22 22.97 8.63 17.99 15.67 25.86 32.6 36.38 11.87 7.38 23.5 13.42 25.85 13.42 2.34 0 11.76-6.42 20.94-14.28 38.11-32.63 64.85-34.43 104-7.01 12.36 8.66 31.42 20.21 42.36 25.68 10.93 5.46 34.21 21.92 51.73 36.57 34.41 28.79 51.68 38.05 70.9 38.05 18.35 0 34.98 16.46 43.3 42.82 6 19.05 9.03 23.13 18.54 24.98 15.42 3 37.65-8.2 47.26-23.8 11.63-18.87 20.83-51.09 22.55-78.89 1.11-18.23 3.88-27.04 10.77-34.38 15.78-16.79 44.08-30.81 66.99-33.18 36.09-3.74 46.27-8.72 67.11-32.87 11.13-12.89 28.75-27.44 40.37-33.33 19.74-10.01 21.11-10.16 32.31-3.54 7.79 4.6 14.18 14 19.19 28.21 15.84 45.01 44.43 89.92 57.23 89.92 2 0 11.79-5.61 21.76-12.47 18.38-12.65 25.24-14.49 37.07-9.95 8.29 3.18 8.33 15.03 0.12 42.65-3.55 11.96-5.29 25.4-3.87 29.87 3.13 9.88 18.23 10.7 35.23 1.91 19.13-9.9 24.99-21.79 24.99-50.7 0-31.7 5.25-35.98 39.2-31.99 17.72 2.08 25.3 1.13 33.43-4.2 12.8-8.38 12.98-12.55 1.66-38.14-7.4-16.74-8.49-25.27-6.66-51.98 2.99-43.72 6.71-49.63 31.25-49.71 22.99-0.07 36.45-6.1 47.81-21.4 10.67-14.39 7.11-28.32-9.66-37.76-10.29-5.79-12.6-9.54-11.55-18.71 1.87-16.23 19.86-17.84 38.71-3.45 16.75 12.77 21.51 13.3 24.85 2.75 4-12.59 12.94-17.7 35.98-20.57 36.7-4.57 39.23-27.27 3.99-35.86-19.45-4.73-27.3-14.39-23.63-29.03 3.97-15.83 13.46-15.53 33.33 1.04 10.18 8.49 24.62 19.18 32.09 23.75 21.52 13.18 28.99 29.48 23.82 52-2.36 10.28-3.48 28.83-2.51 41.21 1.96 24.68 7.95 31.86 52.23 62.58 29.31 20.34 43.31 24.3 67.96 19.25 31.23-6.4 52.41 2.38 65.85 27.3 15.13 28.04 24.83 37.84 31.77 32.08 3.08-2.56 5.6-10.86 5.6-18.45s1.56-14.76 3.46-15.93c1.9-1.18 21.07-5.97 42.61-10.66 47.96-10.43 52.12-14.97 64.77-70.77 7.18-31.67 8.53-47.54 6.71-79.24-2.71-46.97 0.73-56.15 34.27-91.6 18.23-19.27 22.71-27.12 26.86-47.15 5.98-28.81 14.24-38.07 37.43-41.99 15.28-2.58 18.84-1.6 28.74 7.88 6.21 5.95 14.1 10.82 17.54 10.82 10.29 0 54.82-28.44 66.98-42.78 16.88-19.9 28.16-46.39 28.26-66.33 0.05-9.75 4.66-30.82 10.24-46.83 13.42-38.47 30.42-54.03 63.55-58.18 40.78-5.09 52.47-12.02 67.32-39.87 9.72-18.25 17.39-26.88 29.26-32.93 8.84-4.52 19.01-12.39 22.59-17.51 9.16-13.08 8.09-37.98-2.53-58.55-6.54-12.69-9.49-27.22-10.71-52.85-1.07-22.34-4.8-43.11-10.14-56.44l-8.45-21.1 8.83-17.3c13.24-25.96 23.9-31.33 53.32-26.88 17.15 2.6 30.36 2.1 44.93-1.68 25.36-6.57 60.53-7.05 73.81-1 5.45 2.49 12.99 9.76 16.78 16.17s13.52 17.48 21.62 24.6c25.1 22.04 50.42 16.31 92.06-20.85 13.78-12.29 30.48-25.15 37.12-28.57s26.1-15.3 43.25-26.39c29.26-18.94 32.45-20.03 51.69-17.8 16.54 1.92 25.17 0.28 44.64-8.46 24.81-11.14 24.44-11.12 75.12-3.01 20.04 3.2 23.95-5.23 11.91-25.65-12.45-21.1-11.12-27.65 9.96-49.03 10.29-10.44 18.71-22 18.71-25.69 0-19.36-19.63-31.11-51.94-31.11-12.18 0-19.73-2.52-24.99-8.34-9.37-10.35-5.95-19.04 18.23-46.36 9.42-10.64 17.08-21.87 17.03-24.95-0.17-10.72-15.62-39.05-36.79-67.5-11.73-15.75-21.32-31.12-21.32-34.16 0-3.03 6.24-9.8 13.86-15.02 7.63-5.23 22.26-16.99 32.53-26.14l18.65-16.64-3.23-343.1c-1.78-188.7-5.16-624.7-7.51-968.9-2.35-344.2-7.05-748.4-10.44-898.2-3.39-149.8-8.15-385.6-10.57-524-2.44-138.4-5.48-268.9-6.77-290l-2.35-38.46-69.25 0.74c-38.08 0.408-153.4 2.067-256.3 3.693z" clip-rule="evenodd" fill="none" fill-rule="evenodd" stroke="#464eff" stroke-linejoin="round" stroke-width="100"/></g><g transform="translate(0)" clip-path="url(#g)" filter="url(#c)"><path d="m3599 204.4c-102.9 1.621-464 3.455-802.4 4.071l-615.3 1.118-33.26 18.74c-18.29 10.31-36.33 21.35-40.1 24.55-7.72 6.554-98.66 51.7-142.8 70.9-16 6.957-45 17.39-64.44 23.19-90.81 27.08-136.7 26.13-219.5-4.554-30.53-11.31-32.81-14.43-21.83-29.85 5.01-7.036 7.21-12.8 4.88-12.8s-6.01 3.185-8.2 7.081c-3.29 5.88-5.05 6.171-10.41 1.722-3.56-2.949-8.18-4.296-10.29-2.994-4.83 2.99-38.66-22.6-49.43-37.39l-8.1-11.12-2.79 126.4c-2.96 134.1-8.37 495.5-15.11 1009-2.26 172-6.92 405.9-10.35 519.8-5.45 180.6-14.69 811.9-14.69 1003 0 62.63-0.47 66.66-7.87 66.66-4.33 0-8.95 2.8-10.26 6.24-1.49 3.87-7.83 6.23-16.74 6.23-12.11 0-15.82 2.43-23.86 15.6-5.24 8.58-12.4 17.87-15.93 20.66-5.71 4.51-5.65 5.08 0.62 5.19 9.39 0.18 13.46 7.53 7.89 14.25-3.02 3.63-3.3 11.88-0.86 24.96 4.39 23.5 6.87 26.51 16.77 20.33 6.99-4.37 7.63-2.9 8.12 18.56 0.36 15.55-1.77 26.84-6.42 33.92-8.58 13.11-22.48 25.02-29.41 25.2-2.86 0.08-5.2 2.72-5.2 5.87s-4.21 8.84-9.35 12.63c-6.42 4.74-7.73 7.62-4.16 9.18 8.41 3.66 5.94 9.3-3.04 6.95-6.16-1.61-9.34 0.71-12.56 9.19-3.74 9.83-2.84 12.82 6.68 22.3 10.7 10.66 10.76 10.98 2.16 12.28-16.52 2.48-10.19 13.22 7.8 13.22 18.02 0 18.75 0.75 12.38 12.66-3.64 6.78-2.21 8.8 9.77 13.81 19.42 8.11 33.8 28.74 27.82 39.92-3.37 6.3-3 11.27 1.49 19.95 5.02 9.72 5.09 13.21 0.44 21.87-4.73 8.81-4.58 11.36 1.03 17.58 6 6.66 5.95 7.28-0.56 7.28-11.79 0-3.26 7.75 14.33 13.02 19.23 5.76 38.7 27.83 32.83 37.19-2.05 3.26-2.63 9.42-1.3 13.7 1.33 4.27-0.03 12.35-3.02 17.94-4.49 8.39-4.48 10.76 0.02 13.55 4.02 2.48 2.03 5.42-7.46 11.02-13.34 7.89-15.69 11.98-9.17 16.01 4.12 2.55-3.83 23.02-8.96 23.08-6.72 0.07-2.65 7.94 5.43 10.5 9.86 3.13 17.4 19.45 17.11 37.03-0.12 7.26 5.09 19.53 12.94 30.47l13.15 18.31-10.29 7.9c-8.34 6.42-8.91 7.93-3.01 8 10.17 0.13 9.79 28.53-0.63 46.64-4.35 7.56-9.17 19.81-10.72 27.22-3.27 15.72-17.83 28.53-36.65 32.24-24.53 4.84-36.25 11.31-38.78 21.4-1.37 5.46-5.22 11.45-8.55 13.32-3.33 1.86-6.59 7.92-7.23 13.46s-2.47 15.85-4.05 22.92c-2.07 9.21-1.08 14.35 3.49 18.15 8.8 7.3 3.92 13.23-8.34 10.15-8.2-2.06-10.14-0.97-10.14 5.71 0 4.54-2.81 10.59-6.24 13.44-3.43 2.84-6.23 8.24-6.23 11.98s-3.82 9.19-8.5 12.11c-8.45 5.28-8.44 5.4 2.55 25.59 12.03 22.12 10.49 31.36-4.62 27.57-7.36-1.84-10.31-0.35-12.42 6.29-3.09 9.74-31.65 24.34-47.9 24.48-19.18 0.17-29.29 21.79-12.26 26.25 8.71 2.28 11.28 13.1 4.16 17.5-2.29 1.42-4.16 8.42-4.16 15.55 0 19.52-30.48 64.27-46.1 67.7-19.93 4.38-33.33 26.29-37.1 60.69-2.41 21.95-5.58 31.92-12.24 38.49-8.92 8.8-9.02 8.8-15.09 0.62-3.73-5.02-5.17-12.58-3.68-19.35 1.47-6.67 0.43-12.37-2.59-14.24-5.24-3.24-7.17-1.1-24.35 27.16-11.2 18.4-23.95 23.33-19.13 7.39 5.56-18.39 4.67-21.83-5.68-21.83-12.18 0-25.48 20.39-22.35 34.27 1.39 6.13-0.17 10.19-4.57 11.88-3.67 1.41-6.68 6.1-6.68 10.43 0 10.72-4.32 9.88-14.41-2.77l-8.48-10.65 0.13 31.3c0.15 34.47 7.29 49.55 28.33 59.87 6.66 3.27 11.06 8.85 11.06 14.02 0 7.06 1.09 7.7 6.05 3.58 5.92-4.91 14.74-2.81 14.74 3.5 0 7.39-30.57 38.26-35.87 36.22-8.65-3.32-18.18 1.73-18.18 9.64 0 10.25-8.39 17.02-21.11 17.02-13.18 0-21.67 8.66-17.96 18.31 2.88 7.53 13.34 6.05 29.57-4.19 5.07-3.19 11.88-5.8 15.14-5.8 6.85 0 12.19 16.99 8.42 26.81-4.34 11.32-36.17 27.24-54.45 27.24-17.01 0-29.2 8.3-24.16 16.46 1.47 2.38 8.18 4.34 14.91 4.34 13.8 0 15.57 6.04 5.16 17.55-6.17 6.82-6.38 9.51-1.61 21.12 10.74 26.14 10.43 34.83-1.51 42.66-9.42 6.17-10.84 9.71-9.78 24.28 1.33 18.11 1.28 18.14-23.69 14.21-5.2-0.82-8.31 1.03-8.31 4.93 0 4.28 6.85 7.4 21.89 9.95 17.82 3.02 22.35 5.49 24.3 13.28 3.3 13.17-1.18 19.37-10.44 14.42-4.06-2.18-11.57-2.87-16.67-1.53-5.98 1.56-13.55-0.73-21.29-6.45-23.87-17.65-26.07-11.05-8.16 24.43 9.58 19 16.36 26.73 29.1 33.23 10.84 5.53 16.6 11.31 16.6 16.63 0 11.58-16.84 14.72-33.28 6.21-16.8-8.68-23.44-3.73-17.67 13.17 3.81 11.15 5.22 11.73 25.42 10.64 17.5-0.96 21.38 0.07 21.38 5.64 0 4.55 2.22 5.95 6.7 4.23 7.32-2.81 30.54 9.6 48.04 25.67l11.09 10.18 7.62-9.63c4.19-5.3 14.84-16.49 23.66-24.87 15.3-14.52 15.91-16.08 13-33.44-1.68-10.04-8.41-25-15.01-33.35-6.57-8.34-11.95-19.39-11.95-24.58 0-13.37 31.49-53.83 41.89-53.83 9.21 0 20.18 10.45 39.18 37.31 19.77 27.96 41.13 32.2 71.79 14.23 13.84-8.11 21.72-10.17 31.44-8.23 7.92 1.58 20.57-0.14 32.55-4.45 16.64-5.99 20.62-6.2 26.43-1.38 7.32 6.08 6.76 11.81-3.97 40.78-5.57 15.02-5.79 19.81-1.35 29.11 4.51 9.47 8.33 11.33 25.38 12.42 23.27 1.49 36.44-5.4 48.65-25.42 13.23-21.7 10.76-38.36-8.5-57.44-19.79-19.59-21.79-34.8-6.47-49.2 5.6-5.25 10.74-14.46 11.44-20.47 0.89-7.68 3.71-10.93 9.48-10.93 5.86 0 11.37 6.58 19.22 22.97 8.63 17.99 15.67 25.86 32.6 36.38 11.87 7.38 23.5 13.42 25.85 13.42 2.34 0 11.76-6.42 20.94-14.28 38.11-32.63 64.85-34.43 104-7.01 12.36 8.66 31.42 20.21 42.36 25.68 10.93 5.46 34.21 21.92 51.73 36.57 34.41 28.79 51.68 38.05 70.9 38.05 18.35 0 34.98 16.46 43.3 42.82 6 19.05 9.03 23.13 18.54 24.98 15.42 3 37.65-8.2 47.26-23.8 11.63-18.87 20.83-51.09 22.55-78.89 1.11-18.23 3.88-27.04 10.77-34.38 15.78-16.79 44.08-30.81 66.99-33.18 36.09-3.74 46.27-8.72 67.11-32.87 11.13-12.89 28.75-27.44 40.37-33.33 19.74-10.01 21.11-10.16 32.31-3.54 7.79 4.6 14.18 14 19.19 28.21 15.84 45.01 44.43 89.92 57.23 89.92 2 0 11.79-5.61 21.76-12.47 18.38-12.65 25.24-14.49 37.07-9.95 8.29 3.18 8.33 15.03 0.12 42.65-3.55 11.96-5.29 25.4-3.87 29.87 3.13 9.88 18.23 10.7 35.23 1.91 19.13-9.9 24.99-21.79 24.99-50.7 0-31.7 5.25-35.98 39.2-31.99 17.72 2.08 25.3 1.13 33.43-4.2 12.8-8.38 12.98-12.55 1.66-38.14-7.4-16.74-8.49-25.27-6.66-51.98 2.99-43.72 6.71-49.63 31.25-49.71 22.99-0.07 36.45-6.1 47.81-21.4 10.67-14.39 7.11-28.32-9.66-37.76-10.29-5.79-12.6-9.54-11.55-18.71 1.87-16.23 19.86-17.84 38.71-3.45 16.75 12.77 21.51 13.3 24.85 2.75 4-12.59 12.94-17.7 35.98-20.57 36.7-4.57 39.23-27.27 3.99-35.86-19.45-4.73-27.3-14.39-23.63-29.03 3.97-15.83 13.46-15.53 33.33 1.04 10.18 8.49 24.62 19.18 32.09 23.75 21.52 13.18 28.99 29.48 23.82 52-2.36 10.28-3.48 28.83-2.51 41.21 1.96 24.68 7.95 31.86 52.23 62.58 29.31 20.34 43.31 24.3 67.96 19.25 31.23-6.4 52.41 2.38 65.85 27.3 15.13 28.04 24.83 37.84 31.77 32.08 3.08-2.56 5.6-10.86 5.6-18.45s1.56-14.76 3.46-15.93c1.9-1.18 21.07-5.97 42.61-10.66 47.96-10.43 52.12-14.97 64.77-70.77 7.18-31.67 8.53-47.54 6.71-79.24-2.71-46.97 0.73-56.15 34.27-91.6 18.23-19.27 22.71-27.12 26.86-47.15 5.98-28.81 14.24-38.07 37.43-41.99 15.28-2.58 18.84-1.6 28.74 7.88 6.21 5.95 14.1 10.82 17.54 10.82 10.29 0 54.82-28.44 66.98-42.78 16.88-19.9 28.16-46.39 28.26-66.33 0.05-9.75 4.66-30.82 10.24-46.83 13.42-38.47 30.42-54.03 63.55-58.18 40.78-5.09 52.47-12.02 67.32-39.87 9.72-18.25 17.39-26.88 29.26-32.93 8.84-4.52 19.01-12.39 22.59-17.51 9.16-13.08 8.09-37.98-2.53-58.55-6.54-12.69-9.49-27.22-10.71-52.85-1.07-22.34-4.8-43.11-10.14-56.44l-8.45-21.1 8.83-17.3c13.24-25.96 23.9-31.33 53.32-26.88 17.15 2.6 30.36 2.1 44.93-1.68 25.36-6.57 60.53-7.05 73.81-1 5.45 2.49 12.99 9.76 16.78 16.17s13.52 17.48 21.62 24.6c25.1 22.04 50.42 16.31 92.06-20.85 13.78-12.29 30.48-25.15 37.12-28.57s26.1-15.3 43.25-26.39c29.26-18.94 32.45-20.03 51.69-17.8 16.54 1.92 25.17 0.28 44.64-8.46 24.81-11.14 24.44-11.12 75.12-3.01 20.04 3.2 23.95-5.23 11.91-25.65-12.45-21.1-11.12-27.65 9.96-49.03 10.29-10.44 18.71-22 18.71-25.69 0-19.36-19.63-31.11-51.94-31.11-12.18 0-19.73-2.52-24.99-8.34-9.37-10.35-5.95-19.04 18.23-46.36 9.42-10.64 17.08-21.87 17.03-24.95-0.17-10.72-15.62-39.05-36.79-67.5-11.73-15.75-21.32-31.12-21.32-34.16 0-3.03 6.24-9.8 13.86-15.02 7.63-5.23 22.26-16.99 32.53-26.14l18.65-16.64-3.23-343.1c-1.78-188.7-5.16-624.7-7.51-968.9-2.35-344.2-7.05-748.4-10.44-898.2-3.39-149.8-8.15-385.6-10.57-524-2.44-138.4-5.48-268.9-6.77-290l-2.35-38.46-69.25 0.74c-38.08 0.408-153.4 2.067-256.3 3.693z" clip-rule="evenodd" fill="none" fill-rule="evenodd" stroke="#464eff" stroke-linejoin="round" stroke-width="100"/></g><path d="m2850 204.4c-102.9 1.621-464 3.455-802.4 4.071l-615.3 1.118-33.26 18.74c-18.29 10.31-36.33 21.35-40.1 24.55-7.72 6.554-98.66 51.7-142.8 70.9-16 6.957-45 17.39-64.44 23.19-90.81 27.08-136.7 26.13-219.5-4.554-30.53-11.31-32.81-14.43-21.83-29.85 5.01-7.036 7.21-12.8 4.88-12.8s-6.01 3.185-8.2 7.081c-3.29 5.88-5.05 6.171-10.41 1.722-3.56-2.949-8.18-4.296-10.29-2.994-4.83 2.99-38.66-22.6-49.43-37.39l-8.1-11.12-2.79 126.4c-2.96 134.1-8.37 495.5-15.11 1009-2.26 172-6.92 405.9-10.35 519.8-5.45 180.6-14.69 811.9-14.69 1003 0 62.63-0.47 66.66-7.87 66.66-4.33 0-8.95 2.8-10.26 6.24-1.49 3.87-7.83 6.23-16.74 6.23-12.11 0-15.82 2.43-23.86 15.6-5.24 8.58-12.4 17.87-15.93 20.66-5.71 4.51-5.65 5.08 0.62 5.19 9.39 0.18 13.46 7.53 7.89 14.25-3.02 3.63-3.3 11.88-0.86 24.96 4.39 23.5 6.87 26.51 16.77 20.33 6.99-4.37 7.63-2.9 8.12 18.56 0.36 15.55-1.77 26.84-6.42 33.92-8.58 13.11-22.48 25.02-29.41 25.2-2.86 0.08-5.2 2.72-5.2 5.87s-4.21 8.84-9.35 12.63c-6.42 4.74-7.73 7.62-4.16 9.18 8.41 3.66 5.94 9.3-3.04 6.95-6.16-1.61-9.34 0.71-12.56 9.19-3.74 9.83-2.84 12.82 6.68 22.3 10.7 10.66 10.76 10.98 2.16 12.28-16.52 2.48-10.19 13.22 7.8 13.22 18.02 0 18.75 0.75 12.38 12.66-3.64 6.78-2.21 8.8 9.77 13.81 19.42 8.11 33.8 28.74 27.82 39.92-3.37 6.3-3 11.27 1.49 19.95 5.02 9.72 5.09 13.21 0.44 21.87-4.73 8.81-4.58 11.36 1.03 17.58 6 6.66 5.95 7.28-0.56 7.28-11.79 0-3.26 7.75 14.33 13.02 19.23 5.76 38.7 27.83 32.83 37.19-2.05 3.26-2.63 9.42-1.3 13.7 1.33 4.27-0.03 12.35-3.02 17.94-4.49 8.39-4.48 10.76 0.02 13.55 4.02 2.48 2.03 5.42-7.46 11.02-13.34 7.89-15.69 11.98-9.17 16.01 4.12 2.55-3.83 23.02-8.96 23.08-6.72 0.07-2.65 7.94 5.43 10.5 9.86 3.13 17.4 19.45 17.11 37.03-0.12 7.26 5.09 19.53 12.94 30.47l13.15 18.31-10.29 7.9c-8.34 6.42-8.91 7.93-3.01 8 10.17 0.13 9.79 28.53-0.63 46.64-4.35 7.56-9.17 19.81-10.72 27.22-3.27 15.72-17.83 28.53-36.65 32.24-24.53 4.84-36.25 11.31-38.78 21.4-1.37 5.46-5.22 11.45-8.55 13.32-3.33 1.86-6.59 7.92-7.23 13.46s-2.47 15.85-4.05 22.92c-2.07 9.21-1.08 14.35 3.49 18.15 8.8 7.3 3.92 13.23-8.34 10.15-8.2-2.06-10.14-0.97-10.14 5.71 0 4.54-2.81 10.59-6.24 13.44-3.43 2.84-6.23 8.24-6.23 11.98s-3.82 9.19-8.5 12.11c-8.45 5.28-8.44 5.4 2.55 25.59 12.03 22.12 10.49 31.36-4.62 27.57-7.36-1.84-10.31-0.35-12.42 6.29-3.09 9.74-31.65 24.34-47.9 24.48-19.18 0.17-29.29 21.79-12.26 26.25 8.71 2.28 11.28 13.1 4.16 17.5-2.29 1.42-4.16 8.42-4.16 15.55 0 19.52-30.48 64.27-46.1 67.7-19.93 4.38-33.33 26.29-37.1 60.69-2.41 21.95-5.58 31.92-12.24 38.49-8.92 8.8-9.02 8.8-15.09 0.62-3.73-5.02-5.17-12.58-3.68-19.35 1.47-6.67 0.43-12.37-2.59-14.24-5.24-3.24-7.17-1.1-24.35 27.16-11.2 18.4-23.95 23.33-19.13 7.39 5.56-18.39 4.67-21.83-5.68-21.83-12.18 0-25.48 20.39-22.35 34.27 1.39 6.13-0.17 10.19-4.57 11.88-3.67 1.41-6.68 6.1-6.68 10.43 0 10.72-4.32 9.88-14.41-2.77l-8.48-10.65 0.13 31.3c0.15 34.47 7.29 49.55 28.33 59.87 6.66 3.27 11.06 8.85 11.06 14.02 0 7.06 1.09 7.7 6.05 3.58 5.92-4.91 14.74-2.81 14.74 3.5 0 7.39-30.57 38.26-35.87 36.22-8.65-3.32-18.18 1.73-18.18 9.64 0 10.25-8.39 17.02-21.11 17.02-13.18 0-21.67 8.66-17.96 18.31 2.88 7.53 13.34 6.05 29.57-4.19 5.07-3.19 11.88-5.8 15.14-5.8 6.85 0 12.19 16.99 8.42 26.81-4.34 11.32-36.17 27.24-54.45 27.24-17.01 0-29.2 8.3-24.16 16.46 1.47 2.38 8.18 4.34 14.91 4.34 13.8 0 15.57 6.04 5.16 17.55-6.17 6.82-6.38 9.51-1.61 21.12 10.74 26.14 10.43 34.83-1.51 42.66-9.42 6.17-10.84 9.71-9.78 24.28 1.33 18.11 1.28 18.14-23.69 14.21-5.2-0.82-8.31 1.03-8.31 4.93 0 4.28 6.85 7.4 21.89 9.95 17.82 3.02 22.35 5.49 24.3 13.28 3.3 13.17-1.18 19.37-10.44 14.42-4.06-2.18-11.57-2.87-16.67-1.53-5.98 1.56-13.55-0.73-21.29-6.45-23.87-17.65-26.07-11.05-8.16 24.43 9.58 19 16.36 26.73 29.1 33.23 10.84 5.53 16.6 11.31 16.6 16.63 0 11.58-16.84 14.72-33.28 6.21-16.8-8.68-23.44-3.73-17.67 13.17 3.81 11.15 5.22 11.73 25.42 10.64 17.5-0.96 21.38 0.07 21.38 5.64 0 4.55 2.22 5.95 6.7 4.23 7.32-2.81 30.54 9.6 48.04 25.67l11.09 10.18 7.62-9.63c4.19-5.3 14.84-16.49 23.66-24.87 15.3-14.52 15.91-16.08 13-33.44-1.68-10.04-8.41-25-15.01-33.35-6.57-8.34-11.95-19.39-11.95-24.58 0-13.37 31.49-53.83 41.89-53.83 9.21 0 20.18 10.45 39.18 37.31 19.77 27.96 41.13 32.2 71.79 14.23 13.84-8.11 21.72-10.17 31.44-8.23 7.92 1.58 20.57-0.14 32.55-4.45 16.64-5.99 20.62-6.2 26.43-1.38 7.32 6.08 6.76 11.81-3.97 40.78-5.57 15.02-5.79 19.81-1.35 29.11 4.51 9.47 8.33 11.33 25.38 12.42 23.27 1.49 36.44-5.4 48.65-25.42 13.23-21.7 10.76-38.36-8.5-57.44-19.79-19.59-21.79-34.8-6.47-49.2 5.6-5.25 10.74-14.46 11.44-20.47 0.89-7.68 3.71-10.93 9.48-10.93 5.86 0 11.37 6.58 19.22 22.97 8.63 17.99 15.67 25.86 32.6 36.38 11.87 7.38 23.5 13.42 25.85 13.42 2.34 0 11.76-6.42 20.94-14.28 38.11-32.63 64.85-34.43 104-7.01 12.36 8.66 31.42 20.21 42.36 25.68 10.93 5.46 34.21 21.92 51.73 36.57 34.41 28.79 51.68 38.05 70.9 38.05 18.35 0 34.98 16.46 43.3 42.82 6 19.05 9.03 23.13 18.54 24.98 15.42 3 37.65-8.2 47.26-23.8 11.63-18.87 20.83-51.09 22.55-78.89 1.11-18.23 3.88-27.04 10.77-34.38 15.78-16.79 44.08-30.81 66.99-33.18 36.09-3.74 46.27-8.72 67.11-32.87 11.13-12.89 28.75-27.44 40.37-33.33 19.74-10.01 21.11-10.16 32.31-3.54 7.79 4.6 14.18 14 19.19 28.21 15.84 45.01 44.43 89.92 57.23 89.92 2 0 11.79-5.61 21.76-12.47 18.38-12.65 25.24-14.49 37.07-9.95 8.29 3.18 8.33 15.03 0.12 42.65-3.55 11.96-5.29 25.4-3.87 29.87 3.13 9.88 18.23 10.7 35.23 1.91 19.13-9.9 24.99-21.79 24.99-50.7 0-31.7 5.25-35.98 39.2-31.99 17.72 2.08 25.3 1.13 33.43-4.2 12.8-8.38 12.98-12.55 1.66-38.14-7.4-16.74-8.49-25.27-6.66-51.98 2.99-43.72 6.71-49.63 31.25-49.71 22.99-0.07 36.45-6.1 47.81-21.4 10.67-14.39 7.11-28.32-9.66-37.76-10.29-5.79-12.6-9.54-11.55-18.71 1.87-16.23 19.86-17.84 38.71-3.45 16.75 12.77 21.51 13.3 24.85 2.75 4-12.59 12.94-17.7 35.98-20.57 36.7-4.57 39.23-27.27 3.99-35.86-19.45-4.73-27.3-14.39-23.63-29.03 3.97-15.83 13.46-15.53 33.33 1.04 10.18 8.49 24.62 19.18 32.09 23.75 21.52 13.18 28.99 29.48 23.82 52-2.36 10.28-3.48 28.83-2.51 41.21 1.96 24.68 7.95 31.86 52.23 62.58 29.31 20.34 43.31 24.3 67.96 19.25 31.23-6.4 52.41 2.38 65.85 27.3 15.13 28.04 24.83 37.84 31.77 32.08 3.08-2.56 5.6-10.86 5.6-18.45s1.56-14.76 3.46-15.93c1.9-1.18 21.07-5.97 42.61-10.66 47.96-10.43 52.12-14.97 64.77-70.77 7.18-31.67 8.53-47.54 6.71-79.24-2.71-46.97 0.73-56.15 34.27-91.6 18.23-19.27 22.71-27.12 26.86-47.15 5.98-28.81 14.24-38.07 37.43-41.99 15.28-2.58 18.84-1.6 28.74 7.88 6.21 5.95 14.1 10.82 17.54 10.82 10.29 0 54.82-28.44 66.98-42.78 16.88-19.9 28.16-46.39 28.26-66.33 0.05-9.75 4.66-30.82 10.24-46.83 13.42-38.47 30.42-54.03 63.55-58.18 40.78-5.09 52.47-12.02 67.32-39.87 9.72-18.25 17.39-26.88 29.26-32.93 8.84-4.52 19.01-12.39 22.59-17.51 9.16-13.08 8.09-37.98-2.53-58.55-6.54-12.69-9.49-27.22-10.71-52.85-1.07-22.34-4.8-43.11-10.14-56.44l-8.45-21.1 8.83-17.3c13.24-25.96 23.9-31.33 53.32-26.88 17.15 2.6 30.36 2.1 44.93-1.68 25.36-6.57 60.53-7.05 73.81-1 5.45 2.49 12.99 9.76 16.78 16.17s13.52 17.48 21.62 24.6c25.1 22.04 50.42 16.31 92.06-20.85 13.78-12.29 30.48-25.15 37.12-28.57s26.1-15.3 43.25-26.39c29.26-18.94 32.45-20.03 51.69-17.8 16.54 1.92 25.17 0.28 44.64-8.46 24.81-11.14 24.44-11.12 75.12-3.01 20.04 3.2 23.95-5.23 11.91-25.65-12.45-21.1-11.12-27.65 9.96-49.03 10.29-10.44 18.71-22 18.71-25.69 0-19.36-19.63-31.11-51.94-31.11-12.18 0-19.73-2.52-24.99-8.34-9.37-10.35-5.95-19.04 18.23-46.36 9.42-10.64 17.08-21.87 17.03-24.95-0.17-10.72-15.62-39.05-36.79-67.5-11.73-15.75-21.32-31.12-21.32-34.16 0-3.03 6.24-9.8 13.86-15.02 7.63-5.23 22.26-16.99 32.53-26.14l18.65-16.64-3.23-343.1c-1.78-188.7-5.16-624.7-7.51-968.9-2.35-344.2-7.05-748.4-10.44-898.2-3.39-149.8-8.15-385.6-10.57-524-2.44-138.4-5.48-268.9-6.77-290l-2.35-38.46-69.25 0.74c-38.08 0.408-153.4 2.067-256.3 3.693z" clip-rule="evenodd" fill-rule="evenodd" stroke="#9eeeff" stroke-linejoin="round" stroke-width="100"/><g transform="translate(0)" filter="url(#b)"><path d="m3599 204.4c-102.9 1.621-464 3.455-802.4 4.071l-615.3 1.118-33.26 18.74c-18.29 10.31-36.33 21.35-40.1 24.55-7.72 6.554-98.66 51.7-142.8 70.9-16 6.957-45 17.39-64.44 23.19-90.81 27.08-136.7 26.13-219.5-4.554-30.53-11.31-32.81-14.43-21.83-29.85 5.01-7.036 7.21-12.8 4.88-12.8s-6.01 3.185-8.2 7.081c-3.29 5.88-5.05 6.171-10.41 1.722-3.56-2.949-8.18-4.296-10.29-2.994-4.83 2.99-38.66-22.6-49.43-37.39l-8.1-11.12-2.79 126.4c-2.96 134.1-8.37 495.5-15.11 1009-2.26 172-6.92 405.9-10.35 519.8-5.45 180.6-14.69 811.9-14.69 1003 0 62.63-0.47 66.66-7.87 66.66-4.33 0-8.95 2.8-10.26 6.24-1.49 3.87-7.83 6.23-16.74 6.23-12.11 0-15.82 2.43-23.86 15.6-5.24 8.58-12.4 17.87-15.93 20.66-5.71 4.51-5.65 5.08 0.62 5.19 9.39 0.18 13.46 7.53 7.89 14.25-3.02 3.63-3.3 11.88-0.86 24.96 4.39 23.5 6.87 26.51 16.77 20.33 6.99-4.37 7.63-2.9 8.12 18.56 0.36 15.55-1.77 26.84-6.42 33.92-8.58 13.11-22.48 25.02-29.41 25.2-2.86 0.08-5.2 2.72-5.2 5.87s-4.21 8.84-9.35 12.63c-6.42 4.74-7.73 7.62-4.16 9.18 8.41 3.66 5.94 9.3-3.04 6.95-6.16-1.61-9.34 0.71-12.56 9.19-3.74 9.83-2.84 12.82 6.68 22.3 10.7 10.66 10.76 10.98 2.16 12.28-16.52 2.48-10.19 13.22 7.8 13.22 18.02 0 18.75 0.75 12.38 12.66-3.64 6.78-2.21 8.8 9.77 13.81 19.42 8.11 33.8 28.74 27.82 39.92-3.37 6.3-3 11.27 1.49 19.95 5.02 9.72 5.09 13.21 0.44 21.87-4.73 8.81-4.58 11.36 1.03 17.58 6 6.66 5.95 7.28-0.56 7.28-11.79 0-3.26 7.75 14.33 13.02 19.23 5.76 38.7 27.83 32.83 37.19-2.05 3.26-2.63 9.42-1.3 13.7 1.33 4.27-0.03 12.35-3.02 17.94-4.49 8.39-4.48 10.76 0.02 13.55 4.02 2.48 2.03 5.42-7.46 11.02-13.34 7.89-15.69 11.98-9.17 16.01 4.12 2.55-3.83 23.02-8.96 23.08-6.72 0.07-2.65 7.94 5.43 10.5 9.86 3.13 17.4 19.45 17.11 37.03-0.12 7.26 5.09 19.53 12.94 30.47l13.15 18.31-10.29 7.9c-8.34 6.42-8.91 7.93-3.01 8 10.17 0.13 9.79 28.53-0.63 46.64-4.35 7.56-9.17 19.81-10.72 27.22-3.27 15.72-17.83 28.53-36.65 32.24-24.53 4.84-36.25 11.31-38.78 21.4-1.37 5.46-5.22 11.45-8.55 13.32-3.33 1.86-6.59 7.92-7.23 13.46s-2.47 15.85-4.05 22.92c-2.07 9.21-1.08 14.35 3.49 18.15 8.8 7.3 3.92 13.23-8.34 10.15-8.2-2.06-10.14-0.97-10.14 5.71 0 4.54-2.81 10.59-6.24 13.44-3.43 2.84-6.23 8.24-6.23 11.98s-3.82 9.19-8.5 12.11c-8.45 5.28-8.44 5.4 2.55 25.59 12.03 22.12 10.49 31.36-4.62 27.57-7.36-1.84-10.31-0.35-12.42 6.29-3.09 9.74-31.65 24.34-47.9 24.48-19.18 0.17-29.29 21.79-12.26 26.25 8.71 2.28 11.28 13.1 4.16 17.5-2.29 1.42-4.16 8.42-4.16 15.55 0 19.52-30.48 64.27-46.1 67.7-19.93 4.38-33.33 26.29-37.1 60.69-2.41 21.95-5.58 31.92-12.24 38.49-8.92 8.8-9.02 8.8-15.09 0.62-3.73-5.02-5.17-12.58-3.68-19.35 1.47-6.67 0.43-12.37-2.59-14.24-5.24-3.24-7.17-1.1-24.35 27.16-11.2 18.4-23.95 23.33-19.13 7.39 5.56-18.39 4.67-21.83-5.68-21.83-12.18 0-25.48 20.39-22.35 34.27 1.39 6.13-0.17 10.19-4.57 11.88-3.67 1.41-6.68 6.1-6.68 10.43 0 10.72-4.32 9.88-14.41-2.77l-8.48-10.65 0.13 31.3c0.15 34.47 7.29 49.55 28.33 59.87 6.66 3.27 11.06 8.85 11.06 14.02 0 7.06 1.09 7.7 6.05 3.58 5.92-4.91 14.74-2.81 14.74 3.5 0 7.39-30.57 38.26-35.87 36.22-8.65-3.32-18.18 1.73-18.18 9.64 0 10.25-8.39 17.02-21.11 17.02-13.18 0-21.67 8.66-17.96 18.31 2.88 7.53 13.34 6.05 29.57-4.19 5.07-3.19 11.88-5.8 15.14-5.8 6.85 0 12.19 16.99 8.42 26.81-4.34 11.32-36.17 27.24-54.45 27.24-17.01 0-29.2 8.3-24.16 16.46 1.47 2.38 8.18 4.34 14.91 4.34 13.8 0 15.57 6.04 5.16 17.55-6.17 6.82-6.38 9.51-1.61 21.12 10.74 26.14 10.43 34.83-1.51 42.66-9.42 6.17-10.84 9.71-9.78 24.28 1.33 18.11 1.28 18.14-23.69 14.21-5.2-0.82-8.31 1.03-8.31 4.93 0 4.28 6.85 7.4 21.89 9.95 17.82 3.02 22.35 5.49 24.3 13.28 3.3 13.17-1.18 19.37-10.44 14.42-4.06-2.18-11.57-2.87-16.67-1.53-5.98 1.56-13.55-0.73-21.29-6.45-23.87-17.65-26.07-11.05-8.16 24.43 9.58 19 16.36 26.73 29.1 33.23 10.84 5.53 16.6 11.31 16.6 16.63 0 11.58-16.84 14.72-33.28 6.21-16.8-8.68-23.44-3.73-17.67 13.17 3.81 11.15 5.22 11.73 25.42 10.64 17.5-0.96 21.38 0.07 21.38 5.64 0 4.55 2.22 5.95 6.7 4.23 7.32-2.81 30.54 9.6 48.04 25.67l11.09 10.18 7.62-9.63c4.19-5.3 14.84-16.49 23.66-24.87 15.3-14.52 15.91-16.08 13-33.44-1.68-10.04-8.41-25-15.01-33.35-6.57-8.34-11.95-19.39-11.95-24.58 0-13.37 31.49-53.83 41.89-53.83 9.21 0 20.18 10.45 39.18 37.31 19.77 27.96 41.13 32.2 71.79 14.23 13.84-8.11 21.72-10.17 31.44-8.23 7.92 1.58 20.57-0.14 32.55-4.45 16.64-5.99 20.62-6.2 26.43-1.38 7.32 6.08 6.76 11.81-3.97 40.78-5.57 15.02-5.79 19.81-1.35 29.11 4.51 9.47 8.33 11.33 25.38 12.42 23.27 1.49 36.44-5.4 48.65-25.42 13.23-21.7 10.76-38.36-8.5-57.44-19.79-19.59-21.79-34.8-6.47-49.2 5.6-5.25 10.74-14.46 11.44-20.47 0.89-7.68 3.71-10.93 9.48-10.93 5.86 0 11.37 6.58 19.22 22.97 8.63 17.99 15.67 25.86 32.6 36.38 11.87 7.38 23.5 13.42 25.85 13.42 2.34 0 11.76-6.42 20.94-14.28 38.11-32.63 64.85-34.43 104-7.01 12.36 8.66 31.42 20.21 42.36 25.68 10.93 5.46 34.21 21.92 51.73 36.57 34.41 28.79 51.68 38.05 70.9 38.05 18.35 0 34.98 16.46 43.3 42.82 6 19.05 9.03 23.13 18.54 24.98 15.42 3 37.65-8.2 47.26-23.8 11.63-18.87 20.83-51.09 22.55-78.89 1.11-18.23 3.88-27.04 10.77-34.38 15.78-16.79 44.08-30.81 66.99-33.18 36.09-3.74 46.27-8.72 67.11-32.87 11.13-12.89 28.75-27.44 40.37-33.33 19.74-10.01 21.11-10.16 32.31-3.54 7.79 4.6 14.18 14 19.19 28.21 15.84 45.01 44.43 89.92 57.23 89.92 2 0 11.79-5.61 21.76-12.47 18.38-12.65 25.24-14.49 37.07-9.95 8.29 3.18 8.33 15.03 0.12 42.65-3.55 11.96-5.29 25.4-3.87 29.87 3.13 9.88 18.23 10.7 35.23 1.91 19.13-9.9 24.99-21.79 24.99-50.7 0-31.7 5.25-35.98 39.2-31.99 17.72 2.08 25.3 1.13 33.43-4.2 12.8-8.38 12.98-12.55 1.66-38.14-7.4-16.74-8.49-25.27-6.66-51.98 2.99-43.72 6.71-49.63 31.25-49.71 22.99-0.07 36.45-6.1 47.81-21.4 10.67-14.39 7.11-28.32-9.66-37.76-10.29-5.79-12.6-9.54-11.55-18.71 1.87-16.23 19.86-17.84 38.71-3.45 16.75 12.77 21.51 13.3 24.85 2.75 4-12.59 12.94-17.7 35.98-20.57 36.7-4.57 39.23-27.27 3.99-35.86-19.45-4.73-27.3-14.39-23.63-29.03 3.97-15.83 13.46-15.53 33.33 1.04 10.18 8.49 24.62 19.18 32.09 23.75 21.52 13.18 28.99 29.48 23.82 52-2.36 10.28-3.48 28.83-2.51 41.21 1.96 24.68 7.95 31.86 52.23 62.58 29.31 20.34 43.31 24.3 67.96 19.25 31.23-6.4 52.41 2.38 65.85 27.3 15.13 28.04 24.83 37.84 31.77 32.08 3.08-2.56 5.6-10.86 5.6-18.45s1.56-14.76 3.46-15.93c1.9-1.18 21.07-5.97 42.61-10.66 47.96-10.43 52.12-14.97 64.77-70.77 7.18-31.67 8.53-47.54 6.71-79.24-2.71-46.97 0.73-56.15 34.27-91.6 18.23-19.27 22.71-27.12 26.86-47.15 5.98-28.81 14.24-38.07 37.43-41.99 15.28-2.58 18.84-1.6 28.74 7.88 6.21 5.95 14.1 10.82 17.54 10.82 10.29 0 54.82-28.44 66.98-42.78 16.88-19.9 28.16-46.39 28.26-66.33 0.05-9.75 4.66-30.82 10.24-46.83 13.42-38.47 30.42-54.03 63.55-58.18 40.78-5.09 52.47-12.02 67.32-39.87 9.72-18.25 17.39-26.88 29.26-32.93 8.84-4.52 19.01-12.39 22.59-17.51 9.16-13.08 8.09-37.98-2.53-58.55-6.54-12.69-9.49-27.22-10.71-52.85-1.07-22.34-4.8-43.11-10.14-56.44l-8.45-21.1 8.83-17.3c13.24-25.96 23.9-31.33 53.32-26.88 17.15 2.6 30.36 2.1 44.93-1.68 25.36-6.57 60.53-7.05 73.81-1 5.45 2.49 12.99 9.76 16.78 16.17s13.52 17.48 21.62 24.6c25.1 22.04 50.42 16.31 92.06-20.85 13.78-12.29 30.48-25.15 37.12-28.57s26.1-15.3 43.25-26.39c29.26-18.94 32.45-20.03 51.69-17.8 16.54 1.92 25.17 0.28 44.64-8.46 24.81-11.14 24.44-11.12 75.12-3.01 20.04 3.2 23.95-5.23 11.91-25.65-12.45-21.1-11.12-27.65 9.96-49.03 10.29-10.44 18.71-22 18.71-25.69 0-19.36-19.63-31.11-51.94-31.11-12.18 0-19.73-2.52-24.99-8.34-9.37-10.35-5.95-19.04 18.23-46.36 9.42-10.64 17.08-21.87 17.03-24.95-0.17-10.72-15.62-39.05-36.79-67.5-11.73-15.75-21.32-31.12-21.32-34.16 0-3.03 6.24-9.8 13.86-15.02 7.63-5.23 22.26-16.99 32.53-26.14l18.65-16.64-3.23-343.1c-1.78-188.7-5.16-624.7-7.51-968.9-2.35-344.2-7.05-748.4-10.44-898.2-3.39-149.8-8.15-385.6-10.57-524-2.44-138.4-5.48-268.9-6.77-290l-2.35-38.46-69.25 0.74c-38.08 0.408-153.4 2.067-256.3 3.693z" clip-rule="evenodd" fill="none" fill-rule="evenodd" stroke="#464eff" stroke-linejoin="round" stroke-width="100"/></g><g transform="translate(0)" filter="url(#a)"><path d="m3599 204.4c-102.9 1.621-464 3.455-802.4 4.071l-615.3 1.118-33.26 18.74c-18.29 10.31-36.33 21.35-40.1 24.55-7.72 6.554-98.66 51.7-142.8 70.9-16 6.957-45 17.39-64.44 23.19-90.81 27.08-136.7 26.13-219.5-4.554-30.53-11.31-32.81-14.43-21.83-29.85 5.01-7.036 7.21-12.8 4.88-12.8s-6.01 3.185-8.2 7.081c-3.29 5.88-5.05 6.171-10.41 1.722-3.56-2.949-8.18-4.296-10.29-2.994-4.83 2.99-38.66-22.6-49.43-37.39l-8.1-11.12-2.79 126.4c-2.96 134.1-8.37 495.5-15.11 1009-2.26 172-6.92 405.9-10.35 519.8-5.45 180.6-14.69 811.9-14.69 1003 0 62.63-0.47 66.66-7.87 66.66-4.33 0-8.95 2.8-10.26 6.24-1.49 3.87-7.83 6.23-16.74 6.23-12.11 0-15.82 2.43-23.86 15.6-5.24 8.58-12.4 17.87-15.93 20.66-5.71 4.51-5.65 5.08 0.62 5.19 9.39 0.18 13.46 7.53 7.89 14.25-3.02 3.63-3.3 11.88-0.86 24.96 4.39 23.5 6.87 26.51 16.77 20.33 6.99-4.37 7.63-2.9 8.12 18.56 0.36 15.55-1.77 26.84-6.42 33.92-8.58 13.11-22.48 25.02-29.41 25.2-2.86 0.08-5.2 2.72-5.2 5.87s-4.21 8.84-9.35 12.63c-6.42 4.74-7.73 7.62-4.16 9.18 8.41 3.66 5.94 9.3-3.04 6.95-6.16-1.61-9.34 0.71-12.56 9.19-3.74 9.83-2.84 12.82 6.68 22.3 10.7 10.66 10.76 10.98 2.16 12.28-16.52 2.48-10.19 13.22 7.8 13.22 18.02 0 18.75 0.75 12.38 12.66-3.64 6.78-2.21 8.8 9.77 13.81 19.42 8.11 33.8 28.74 27.82 39.92-3.37 6.3-3 11.27 1.49 19.95 5.02 9.72 5.09 13.21 0.44 21.87-4.73 8.81-4.58 11.36 1.03 17.58 6 6.66 5.95 7.28-0.56 7.28-11.79 0-3.26 7.75 14.33 13.02 19.23 5.76 38.7 27.83 32.83 37.19-2.05 3.26-2.63 9.42-1.3 13.7 1.33 4.27-0.03 12.35-3.02 17.94-4.49 8.39-4.48 10.76 0.02 13.55 4.02 2.48 2.03 5.42-7.46 11.02-13.34 7.89-15.69 11.98-9.17 16.01 4.12 2.55-3.83 23.02-8.96 23.08-6.72 0.07-2.65 7.94 5.43 10.5 9.86 3.13 17.4 19.45 17.11 37.03-0.12 7.26 5.09 19.53 12.94 30.47l13.15 18.31-10.29 7.9c-8.34 6.42-8.91 7.93-3.01 8 10.17 0.13 9.79 28.53-0.63 46.64-4.35 7.56-9.17 19.81-10.72 27.22-3.27 15.72-17.83 28.53-36.65 32.24-24.53 4.84-36.25 11.31-38.78 21.4-1.37 5.46-5.22 11.45-8.55 13.32-3.33 1.86-6.59 7.92-7.23 13.46s-2.47 15.85-4.05 22.92c-2.07 9.21-1.08 14.35 3.49 18.15 8.8 7.3 3.92 13.23-8.34 10.15-8.2-2.06-10.14-0.97-10.14 5.71 0 4.54-2.81 10.59-6.24 13.44-3.43 2.84-6.23 8.24-6.23 11.98s-3.82 9.19-8.5 12.11c-8.45 5.28-8.44 5.4 2.55 25.59 12.03 22.12 10.49 31.36-4.62 27.57-7.36-1.84-10.31-0.35-12.42 6.29-3.09 9.74-31.65 24.34-47.9 24.48-19.18 0.17-29.29 21.79-12.26 26.25 8.71 2.28 11.28 13.1 4.16 17.5-2.29 1.42-4.16 8.42-4.16 15.55 0 19.52-30.48 64.27-46.1 67.7-19.93 4.38-33.33 26.29-37.1 60.69-2.41 21.95-5.58 31.92-12.24 38.49-8.92 8.8-9.02 8.8-15.09 0.62-3.73-5.02-5.17-12.58-3.68-19.35 1.47-6.67 0.43-12.37-2.59-14.24-5.24-3.24-7.17-1.1-24.35 27.16-11.2 18.4-23.95 23.33-19.13 7.39 5.56-18.39 4.67-21.83-5.68-21.83-12.18 0-25.48 20.39-22.35 34.27 1.39 6.13-0.17 10.19-4.57 11.88-3.67 1.41-6.68 6.1-6.68 10.43 0 10.72-4.32 9.88-14.41-2.77l-8.48-10.65 0.13 31.3c0.15 34.47 7.29 49.55 28.33 59.87 6.66 3.27 11.06 8.85 11.06 14.02 0 7.06 1.09 7.7 6.05 3.58 5.92-4.91 14.74-2.81 14.74 3.5 0 7.39-30.57 38.26-35.87 36.22-8.65-3.32-18.18 1.73-18.18 9.64 0 10.25-8.39 17.02-21.11 17.02-13.18 0-21.67 8.66-17.96 18.31 2.88 7.53 13.34 6.05 29.57-4.19 5.07-3.19 11.88-5.8 15.14-5.8 6.85 0 12.19 16.99 8.42 26.81-4.34 11.32-36.17 27.24-54.45 27.24-17.01 0-29.2 8.3-24.16 16.46 1.47 2.38 8.18 4.34 14.91 4.34 13.8 0 15.57 6.04 5.16 17.55-6.17 6.82-6.38 9.51-1.61 21.12 10.74 26.14 10.43 34.83-1.51 42.66-9.42 6.17-10.84 9.71-9.78 24.28 1.33 18.11 1.28 18.14-23.69 14.21-5.2-0.82-8.31 1.03-8.31 4.93 0 4.28 6.85 7.4 21.89 9.95 17.82 3.02 22.35 5.49 24.3 13.28 3.3 13.17-1.18 19.37-10.44 14.42-4.06-2.18-11.57-2.87-16.67-1.53-5.98 1.56-13.55-0.73-21.29-6.45-23.87-17.65-26.07-11.05-8.16 24.43 9.58 19 16.36 26.73 29.1 33.23 10.84 5.53 16.6 11.31 16.6 16.63 0 11.58-16.84 14.72-33.28 6.21-16.8-8.68-23.44-3.73-17.67 13.17 3.81 11.15 5.22 11.73 25.42 10.64 17.5-0.96 21.38 0.07 21.38 5.64 0 4.55 2.22 5.95 6.7 4.23 7.32-2.81 30.54 9.6 48.04 25.67l11.09 10.18 7.62-9.63c4.19-5.3 14.84-16.49 23.66-24.87 15.3-14.52 15.91-16.08 13-33.44-1.68-10.04-8.41-25-15.01-33.35-6.57-8.34-11.95-19.39-11.95-24.58 0-13.37 31.49-53.83 41.89-53.83 9.21 0 20.18 10.45 39.18 37.31 19.77 27.96 41.13 32.2 71.79 14.23 13.84-8.11 21.72-10.17 31.44-8.23 7.92 1.58 20.57-0.14 32.55-4.45 16.64-5.99 20.62-6.2 26.43-1.38 7.32 6.08 6.76 11.81-3.97 40.78-5.57 15.02-5.79 19.81-1.35 29.11 4.51 9.47 8.33 11.33 25.38 12.42 23.27 1.49 36.44-5.4 48.65-25.42 13.23-21.7 10.76-38.36-8.5-57.44-19.79-19.59-21.79-34.8-6.47-49.2 5.6-5.25 10.74-14.46 11.44-20.47 0.89-7.68 3.71-10.93 9.48-10.93 5.86 0 11.37 6.58 19.22 22.97 8.63 17.99 15.67 25.86 32.6 36.38 11.87 7.38 23.5 13.42 25.85 13.42 2.34 0 11.76-6.42 20.94-14.28 38.11-32.63 64.85-34.43 104-7.01 12.36 8.66 31.42 20.21 42.36 25.68 10.93 5.46 34.21 21.92 51.73 36.57 34.41 28.79 51.68 38.05 70.9 38.05 18.35 0 34.98 16.46 43.3 42.82 6 19.05 9.03 23.13 18.54 24.98 15.42 3 37.65-8.2 47.26-23.8 11.63-18.87 20.83-51.09 22.55-78.89 1.11-18.23 3.88-27.04 10.77-34.38 15.78-16.79 44.08-30.81 66.99-33.18 36.09-3.74 46.27-8.72 67.11-32.87 11.13-12.89 28.75-27.44 40.37-33.33 19.74-10.01 21.11-10.16 32.31-3.54 7.79 4.6 14.18 14 19.19 28.21 15.84 45.01 44.43 89.92 57.23 89.92 2 0 11.79-5.61 21.76-12.47 18.38-12.65 25.24-14.49 37.07-9.95 8.29 3.18 8.33 15.03 0.12 42.65-3.55 11.96-5.29 25.4-3.87 29.87 3.13 9.88 18.23 10.7 35.23 1.91 19.13-9.9 24.99-21.79 24.99-50.7 0-31.7 5.25-35.98 39.2-31.99 17.72 2.08 25.3 1.13 33.43-4.2 12.8-8.38 12.98-12.55 1.66-38.14-7.4-16.74-8.49-25.27-6.66-51.98 2.99-43.72 6.71-49.63 31.25-49.71 22.99-0.07 36.45-6.1 47.81-21.4 10.67-14.39 7.11-28.32-9.66-37.76-10.29-5.79-12.6-9.54-11.55-18.71 1.87-16.23 19.86-17.84 38.71-3.45 16.75 12.77 21.51 13.3 24.85 2.75 4-12.59 12.94-17.7 35.98-20.57 36.7-4.57 39.23-27.27 3.99-35.86-19.45-4.73-27.3-14.39-23.63-29.03 3.97-15.83 13.46-15.53 33.33 1.04 10.18 8.49 24.62 19.18 32.09 23.75 21.52 13.18 28.99 29.48 23.82 52-2.36 10.28-3.48 28.83-2.51 41.21 1.96 24.68 7.95 31.86 52.23 62.58 29.31 20.34 43.31 24.3 67.96 19.25 31.23-6.4 52.41 2.38 65.85 27.3 15.13 28.04 24.83 37.84 31.77 32.08 3.08-2.56 5.6-10.86 5.6-18.45s1.56-14.76 3.46-15.93c1.9-1.18 21.07-5.97 42.61-10.66 47.96-10.43 52.12-14.97 64.77-70.77 7.18-31.67 8.53-47.54 6.71-79.24-2.71-46.97 0.73-56.15 34.27-91.6 18.23-19.27 22.71-27.12 26.86-47.15 5.98-28.81 14.24-38.07 37.43-41.99 15.28-2.58 18.84-1.6 28.74 7.88 6.21 5.95 14.1 10.82 17.54 10.82 10.29 0 54.82-28.44 66.98-42.78 16.88-19.9 28.16-46.39 28.26-66.33 0.05-9.75 4.66-30.82 10.24-46.83 13.42-38.47 30.42-54.03 63.55-58.18 40.78-5.09 52.47-12.02 67.32-39.87 9.72-18.25 17.39-26.88 29.26-32.93 8.84-4.52 19.01-12.39 22.59-17.51 9.16-13.08 8.09-37.98-2.53-58.55-6.54-12.69-9.49-27.22-10.71-52.85-1.07-22.34-4.8-43.11-10.14-56.44l-8.45-21.1 8.83-17.3c13.24-25.96 23.9-31.33 53.32-26.88 17.15 2.6 30.36 2.1 44.93-1.68 25.36-6.57 60.53-7.05 73.81-1 5.45 2.49 12.99 9.76 16.78 16.17s13.52 17.48 21.62 24.6c25.1 22.04 50.42 16.31 92.06-20.85 13.78-12.29 30.48-25.15 37.12-28.57s26.1-15.3 43.25-26.39c29.26-18.94 32.45-20.03 51.69-17.8 16.54 1.92 25.17 0.28 44.64-8.46 24.81-11.14 24.44-11.12 75.12-3.01 20.04 3.2 23.95-5.23 11.91-25.65-12.45-21.1-11.12-27.65 9.96-49.03 10.29-10.44 18.71-22 18.71-25.69 0-19.36-19.63-31.11-51.94-31.11-12.18 0-19.73-2.52-24.99-8.34-9.37-10.35-5.95-19.04 18.23-46.36 9.42-10.64 17.08-21.87 17.03-24.95-0.17-10.72-15.62-39.05-36.79-67.5-11.73-15.75-21.32-31.12-21.32-34.16 0-3.03 6.24-9.8 13.86-15.02 7.63-5.23 22.26-16.99 32.53-26.14l18.65-16.64-3.23-343.1c-1.78-188.7-5.16-624.7-7.51-968.9-2.35-344.2-7.05-748.4-10.44-898.2-3.39-149.8-8.15-385.6-10.57-524-2.44-138.4-5.48-268.9-6.77-290l-2.35-38.46-69.25 0.74c-38.08 0.408-153.4 2.067-256.3 3.693z" clip-rule="evenodd" fill="none" fill-rule="evenodd" stroke="#fff" stroke-linejoin="round" stroke-width="40"/></g></g><defs><filter id="f" x="909" y="110" width="3181" height="4780" color-interpolation-filters="sRGB" filterUnits="userSpaceOnUse"><feFlood flood-opacity="0" result="BackgroundImageFix"/><feBlend in="SourceGraphic" in2="BackgroundImageFix" result="shape"/><feGaussianBlur result="effect1_foregroundBlur_510_3788" stdDeviation="20"/></filter><filter id="e" x="889" y="90" width="3221" height="4820" color-interpolation-filters="sRGB" filterUnits="userSpaceOnUse"><feFlood flood-opacity="0" result="BackgroundImageFix"/><feBlend in="SourceGraphic" in2="BackgroundImageFix" result="shape"/><feGaussianBlur result="effect1_foregroundBlur_510_3788" stdDeviation="30"/></filter><filter id="d" x="849" y="50" width="3301" height="4900" color-interpolation-filters="sRGB" filterUnits="userSpaceOnUse"><feFlood flood-opacity="0" result="BackgroundImageFix"/><feBlend in="SourceGraphic" in2="BackgroundImageFix" result="shape"/><feGaussianBlur result="effect1_foregroundBlur_510_3788" stdDeviation="50"/></filter><filter id="c" x="749" y="-50" width="3501" height="5100" color-interpolation-filters="sRGB" filterUnits="userSpaceOnUse"><feFlood flood-opacity="0" result="BackgroundImageFix"/><feBlend in="SourceGraphic" in2="BackgroundImageFix" result="shape"/><feGaussianBlur result="effect1_foregroundBlur_510_3788" stdDeviation="100"/></filter><filter id="b" x="899" y="100" width="3201" height="4800" color-interpolation-filters="sRGB" filterUnits="userSpaceOnUse"><feFlood flood-opacity="0" result="BackgroundImageFix"/><feBlend in="SourceGraphic" in2="BackgroundImageFix" result="shape"/><feGaussianBlur result="effect1_foregroundBlur_510_3788" stdDeviation="25"/></filter><filter id="a" x="959" y="160" width="3081" height="4680" color-interpolation-filters="sRGB" filterUnits="userSpaceOnUse"><feFlood flood-opacity="0" result="BackgroundImageFix"/><feBlend in="SourceGraphic" in2="BackgroundImageFix" result="shape"/><feGaussianBlur result="effect1_foregroundBlur_510_3788" stdDeviation="10"/></filter><style>
      .cls-1 {
        fill: #2c2d3c;
      }

      .cls-1, .cls-2 {
        stroke-width: 0px;
      }

      .cls-2 {
        fill: #67ea94;
      }

      .cls-3 {
        fill: #fff;
        stroke: #2c2d3c;
        stroke-miterlimit: 10;
        stroke-width: 4px;
      }
    </style><style>
      .cls-1 {
        fill: #2c2d3c;
      }

      .cls-1, .cls-2, .cls-3 {
        stroke-width: 0px;
      }

      .cls-2 {
        fill: #67ea94;
      }

      .cls-3 {
        fill: #fff;
      }
    </style><clipPath id="g"><rect width="5e3" height="5e3" fill="#fff"/></clipPath></defs><g transform="matrix(2.029 0 0 2.029 972.1 1462)"><path class="cls-2" d="m94.03 0h812.4c51.63 0 93.56 41.92 93.56 93.56v492.9h-999.5v-492.9c0-51.63 41.92-93.56 93.56-93.56z"/><path class="cls-1" d="m0 586.4h1e3v285.7c0 51.67-41.95 93.62-93.62 93.62h-812.8c-51.67 0-93.62-41.95-93.62-93.62z"/><g><path class="cls-1" d="m612.6 191.7c-7.475 10.63-14.37 20.4-21.22 30.19-62.69 89.63-125.4 179.3-188 268.9-0.5726 0.8187-1.136 1.646-1.752 2.432-3.825 4.882-4.324 5.028-9.701 1.468-12.7-8.411-25.37-16.88-38.01-25.38-7.791-5.233-7.906-5.835-2.575-13.45 31.94-45.61 63.9-91.22 95.87-136.8 43.14-61.55 86.28-123.1 129.5-184.6 3.86-5.495 7.381-11.23 12.24-16.04 13.26-13.13 37.28-12.54 48.96 3.289 10.08 13.67 19.83 27.56 29.65 41.41 68.9 97.17 137.7 194.4 206.5 291.6 7.832 11.06 7.138 9.792-3.157 16.93-11.7 8.11-23.56 15.99-35.35 23.97-7.235 4.892-7.329 4.947-12.23-2.06-17.75-25.37-35.45-50.78-53.15-76.19-50.83-72.94-101.6-145.9-152.5-218.8-1.423-2.041-2.954-4.006-5.052-6.841z"/><path class="cls-1" d="m365.7 101.6c7.871 5.452 15.42 10.69 22.98 15.91 7.19 4.976 14.41 9.906 21.57 14.93 5.07 3.559 5.072 3.689 1.571 8.704-17.02 24.37-34.04 48.74-51.09 73.1-41.67 59.57-83.36 119.1-125 178.7-23.2 33.16-46.37 66.34-69.56 99.51-0.4294 0.6143-0.8555 1.232-1.312 1.826-3.284 4.273-3.361 4.381-7.681 1.47-13.25-8.929-26.48-17.88-39.62-26.97-5.66-3.911-5.67-4.555-1.435-10.61 37.36-53.44 74.74-106.9 112.1-160.3 41.67-59.56 83.35-119.1 125-178.7 3.997-5.711 8.056-11.38 12.46-17.6z"/></g></g><g transform="matrix(2.029 0 0 2.029 972.1 1462)"><path class="cls-3" d="m164.3 662.1c28.94 0 51.16 5.242 66.66 15.72 15.5 10.48 23.25 27.65 23.25 51.49 0 24.04-7.843 41.39-23.53 52.06-15.69 10.67-38.09 16.01-67.22 16.01h-11.96c-0.9772 0-1.769 0.7922-1.769 1.769v63.38c0 0.9772-0.7922 1.769-1.769 1.769h-40.16c-0.9772 0-1.769-0.7922-1.769-1.769v-193.8c0-0.8481 0.5958-1.582 1.428-1.744 9.102-1.771 18.71-3.024 28.82-3.756 10.64-0.7665 19.98-1.154 28.01-1.154zm2.801 38.36c-3.177 0-6.302 0.0986-9.383 0.288-2.368 0.1486-4.488 0.2978-6.359 0.4449-0.9209 0.0724-1.623 0.8355-1.623 1.759 2e-5 8.283 2e-5 45.7 2e-5 54.3 0 0.9772 0.7922 1.763 1.769 1.763h11.96c15.13 0 26.51-2.113 34.17-6.345 7.655-4.228 11.48-12.11 11.48-23.65 0-5.576-0.9804-10.19-2.941-13.85-1.961-3.651-4.762-6.585-8.403-8.797-3.641-2.209-8.079-3.751-13.3-4.616-5.23-0.8651-11.02-1.297-17.37-1.297z"/><path class="cls-3" d="m414.7 684.5c0.7902 0 1.476 0.5146 1.693 1.274 2.163 7.578 4.536 16.06 7.122 25.44 2.733 9.92 5.651 20.17 8.76 30.76 3.104 10.59 6.261 21.18 9.463 31.77 3.202 10.59 6.309 20.41 9.326 29.46 2.463-9.82 4.976-20.51 7.535-32.06 2.556-11.55 4.974-23.49 7.247-35.82 2.273-12.32 4.502-24.6 6.682-36.83 2.085-11.7 4.041-23 5.869-33.91 0.1428-0.8522 0.8768-1.469 1.741-1.469 6.735 1e-5 34.27 2e-5 42.21 2e-5 1.117 0 1.951 1.02 1.733 2.115-6.542 32.82-14.04 66.1-22.5 99.85-8.522 34.02-17.74 66.34-27.64 96.98-0.2365 0.7316-0.9178 1.224-1.687 1.224h-37.84c-0.7498 0-1.418-0.4678-1.669-1.174-6.446-18.13-12.71-37.14-18.79-57.03-6.218-20.31-12.34-40.68-18.36-61.09-6.045 20.41-12.09 40.78-18.13 61.09-5.917 19.89-12.1 38.89-18.56 57.03-0.2515 0.7061-0.92 1.174-1.67 1.174h-37.81c-0.7691 0-1.45-0.4925-1.687-1.224-9.896-30.64-19.09-62.96-27.6-96.98-8.441-33.74-15.93-67.03-22.46-99.85-0.2181-1.095 0.6227-2.115 1.74-2.115l44.17-1e-5c0.8638 0 1.599 0.6168 1.742 1.469 1.827 10.91 3.832 22.21 6.012 33.91 2.273 12.23 4.643 24.51 7.11 36.83 2.463 12.33 4.975 24.26 7.535 35.82 2.56 11.55 5.169 22.24 7.822 32.06 3.4-9.433 6.708-19.45 9.923-30.04 3.211-10.59 6.333-21.18 9.357-31.77 3.025-10.59 5.81-20.8 8.362-30.62 2.409-9.271 4.609-17.6 6.596-24.98 0.2079-0.7726 0.9003-1.302 1.7-1.302 5.868 0 29.13-1e-5 34.96-1e-5z"/><path class="cls-3" d="m607.5 661.7c28.87 0 50.99 5.359 66.36 16.08 15.36 10.72 23.04 27.37 23.04 49.96 0 14.1-3.101 25.54-9.3 34.32-5.837 8.269-14.08 14.87-24.75 19.8-1.035 0.4788-1.374 1.774-0.685 2.684 3.474 4.589 7.092 9.742 10.86 15.46 4.255 6.472 8.468 13.23 12.63 20.28 4.164 7.051 8.19 14.39 12.08 22.01 3.446 6.764 6.673 13.41 9.682 19.94 0.5397 1.172-0.3256 2.504-1.616 2.504l-44.6 2e-5c-0.6512 0-1.248-0.3538-1.556-0.9273-3.37-6.263-6.782-12.62-10.23-19.06-3.623-6.757-7.336-13.32-11.15-19.7-3.809-6.372-7.574-12.41-11.29-18.1-3.54-5.422-7.081-10.37-10.62-14.83-0.3366-0.4247-0.8475-0.6666-1.389-0.6666h-18.75c-0.9772 0-1.769 0.7922-1.769 1.769v69.74c0 0.9772-0.7922 1.769-1.769 1.769h-39.77c-0.9772 0-1.769-0.7922-1.769-1.769v-194.6c0-0.8461 0.5956-1.579 1.426-1.743 8.996-1.777 18.28-3.034 27.86-3.769 10.09-0.7697 19.11-1.159 27.07-1.159zm2.499 38.52c-3.15 0-5.969 0.0991-8.468 0.2893-1.901 0.1477-3.721 0.2959-5.461 0.4422-0.916 0.077-1.619 0.8438-1.619 1.763l1e-5 51.06c0 0.9772 0.7922 1.769 1.769 1.769h10.45c16.29 0 27.95-2.123 34.98-6.373 7.031-4.246 10.55-11.49 10.55-21.72 0-9.849-3.566-16.85-10.69-21-7.127-4.15-17.63-6.227-31.51-6.227z"/><path class="cls-3" d="m904.7 762.9c0 17.23-2.614 32.26-7.835 45.08-5.225 12.83-12.64 23.45-22.25 31.87-9.61 8.427-21.32 14.74-35.12 18.95-13.81 4.208-29.29 6.318-46.45 6.318-7.836 0-16.98-0.3369-27.42-1.006-9.959-0.6412-19.74-1.926-29.36-3.872-0.8267-0.1672-1.42-0.8996-1.42-1.743v-190.9c0-0.8556 0.6078-1.594 1.449-1.748 9.63-1.763 19.64-2.966 30.03-3.606 10.91-0.6688 20.29-1.006 28.12-1.006 16.6 0 31.67 1.916 45.19 5.743 13.52 3.832 25.14 9.863 34.84 18.09 9.698 8.233 17.16 18.76 22.39 31.59 5.221 12.83 7.835 28.24 7.835 46.23zm-126.2 61.55c0 0.9274 0.7084 1.696 1.633 1.766 1.652 0.1251 3.487 0.2226 5.503 0.2929 2.702 0.0982 5.92 0.1434 9.654 0.1434 21.83 0 38.01-5.644 48.55-16.94 10.54-11.29 15.81-26.89 15.81-46.81 0-20.86-5.037-36.66-15.11-47.38-10.07-10.72-26.02-16.08-47.85-16.08-2.986 0-6.064 0.0491-9.234 0.1434-2.596 0.0803-5.063 0.2538-7.406 0.5233-0.8868 0.102-1.549 0.8646-1.549 1.757z"/></g></svg>
