<svg xmlns="http://www.w3.org/2000/svg" xmlns:xlink="http://www.w3.org/1999/xlink" width="1080" zoomAndPan="magnify" viewBox="0 0 810 809.999993" height="1080" preserveAspectRatio="xMidYMid meet" version="1.0"><defs><clipPath id="39fb3364a1"><path d="M 194 39 L 635.578125 39 L 635.578125 796.28125 L 194 796.28125 Z M 194 39 " clip-rule="nonzero"/></clipPath><clipPath id="d97a877ebf"><path d="M 174.328125 14.03125 L 615 14.03125 L 615 772 L 174.328125 772 Z M 174.328125 14.03125 " clip-rule="nonzero"/></clipPath><clipPath id="81c0735e90"><path d="M 251.261719 233.277344 L 558.761719 233.277344 L 558.761719 414 L 251.261719 414 Z M 251.261719 233.277344 " clip-rule="nonzero"/></clipPath><clipPath id="e5e4e44e7f"><path d="M 251.261719 413 L 558.761719 413 L 558.761719 530.277344 L 251.261719 530.277344 Z M 251.261719 413 " clip-rule="nonzero"/></clipPath></defs><g clip-path="url(#39fb3364a1)"><path fill="#37b5ed" d="M 634.925781 558.171875 C 634.148438 565.199219 631.417969 570.273438 626.34375 574.566406 C 626.34375 574.566406 606.839844 590.179688 606.839844 590.179688 C 597.867188 597.207031 584.210938 604.621094 573.289062 604.621094 L 566.265625 604.621094 C 561.585938 604.621094 558.074219 608.136719 558.074219 612.820312 C 558.074219 625.703125 556.90625 638.972656 549.101562 647.949219 C 542.46875 655.757812 534.277344 663.175781 524.132812 670.980469 C 521.402344 672.933594 519.0625 674.496094 516.332031 676.054688 C 512.820312 678.398438 509.308594 680.347656 506.1875 683.082031 C 502.289062 686.59375 501.117188 691.277344 499.558594 696.742188 C 499.167969 697.914062 498.777344 698.695312 498.777344 699.867188 C 498.386719 701.429688 498.386719 704.160156 498.777344 706.894531 C 498.777344 708.453125 499.167969 709.625 499.167969 710.796875 C 499.167969 719.773438 495.65625 724.457031 490.972656 730.3125 L 489.804688 731.875 C 486.292969 736.167969 481.222656 738.511719 473.808594 739.292969 C 466.398438 740.070312 458.59375 738.511719 449.621094 734.21875 C 448.0625 733.4375 446.109375 732.265625 444.160156 731.09375 C 440.648438 728.753906 436.359375 726.019531 433.628906 726.800781 C 422.703125 729.140625 418.804688 739.683594 414.902344 750.222656 C 414.511719 751.390625 414.121094 752.171875 413.730469 753.34375 C 413.339844 754.125 412.949219 754.90625 412.949219 755.6875 C 411 761.152344 408.269531 768.175781 400.859375 770.910156 C 399.6875 771.300781 398.90625 771.691406 398.125 772.082031 C 393.054688 774.03125 389.152344 775.203125 384.082031 768.566406 C 382.914062 767.003906 382.132812 765.054688 380.960938 763.492188 C 379.402344 760.371094 377.839844 757.636719 375.5 756.464844 C 371.207031 754.125 363.40625 755.6875 359.503906 758.417969 L 357.945312 759.589844 C 352.484375 763.492188 347.800781 766.617188 344.289062 771.691406 C 343.511719 772.46875 343.121094 773.640625 342.339844 774.8125 C 340.78125 777.933594 338.828125 781.449219 334.929688 783.789062 C 326.34375 788.476562 319.714844 787.695312 311.519531 781.839844 C 309.960938 780.667969 308.789062 779.496094 307.230469 778.324219 C 303.71875 775.203125 300.597656 772.859375 295.917969 772.472656 C 294.746094 772.472656 293.183594 772.472656 292.015625 772.082031 C 287.332031 771.691406 283.042969 771.300781 279.140625 772.472656 C 277.191406 772.859375 275.238281 773.640625 273.289062 774.421875 C 268.609375 775.984375 264.316406 777.546875 258.074219 777.546875 C 256.90625 777.546875 255.734375 777.546875 254.5625 777.546875 C 248.710938 777.546875 244.421875 777.546875 238.957031 779.886719 C 237.398438 780.667969 235.449219 781.449219 233.886719 781.839844 C 230.765625 783.011719 227.644531 784.179688 224.914062 785.742188 C 224.523438 785.742188 212.039062 792.378906 208.921875 793.941406 C 207.75 795.5 205.800781 796.28125 203.847656 796.28125 C 203.457031 796.28125 203.066406 796.28125 202.289062 796.28125 C 199.558594 795.890625 197.214844 793.550781 196.828125 790.816406 C 196.046875 787.304688 195.65625 785.351562 195.265625 784.960938 C 194.484375 781.058594 194.484375 775.984375 194.484375 771.691406 C 194.484375 769.738281 194.484375 767.785156 194.484375 765.835938 C 194.09375 758.027344 194.484375 751.390625 195.265625 744.757812 C 197.605469 726.800781 207.359375 711.578125 217.113281 696.742188 C 221.402344 690.109375 225.695312 683.472656 229.207031 676.835938 L 242.078125 651.464844 C 242.859375 650.292969 243.640625 648.730469 244.03125 647.5625 C 246.761719 642.097656 249.101562 638.191406 249.492188 631.945312 C 249.492188 628.042969 249.882812 624.140625 249.882812 620.238281 C 249.882812 618.285156 249.882812 616.332031 249.882812 614.382812 C 249.882812 610.867188 249.882812 606.964844 250.273438 603.0625 C 250.273438 601.109375 250.273438 599.15625 250.273438 597.597656 C 250.273438 589.789062 249.492188 585.496094 246.371094 578.078125 C 245.199219 575.738281 244.03125 573.394531 242.859375 571.054688 C 240.519531 566.757812 238.179688 562.464844 237.007812 557.78125 C 235.058594 551.925781 235.449219 546.460938 235.839844 541.386719 C 235.839844 540.605469 235.839844 539.433594 235.839844 538.65625 C 235.839844 535.53125 235.839844 532.800781 235.839844 529.285156 C 235.839844 522.652344 235.839844 516.015625 236.617188 509.769531 C 241.300781 479.710938 238.957031 451.609375 236.226562 421.550781 L 228.425781 327.089844 L 210.871094 98.738281 C 210.480469 93.660156 212.429688 88.976562 216.332031 85.855469 C 220.234375 82.730469 225.304688 81.5625 229.984375 83.121094 L 245.589844 87.808594 L 254.953125 87.808594 L 278.75 78.828125 L 295.527344 66.335938 C 300.207031 62.824219 305.667969 60.871094 311.519531 60.09375 L 561.976562 39.402344 C 569.777344 38.625 576.800781 44.480469 577.582031 52.285156 L 577.582031 53.066406 L 594.355469 220.132812 C 594.355469 220.132812 625.953125 530.457031 625.953125 530.847656 C 625.953125 532.410156 625.953125 533.578125 625.953125 535.140625 C 625.953125 537.484375 625.953125 540.214844 626.734375 541.777344 C 627.125 542.558594 628.296875 543.339844 629.074219 544.507812 C 630.636719 546.070312 632.585938 547.632812 633.757812 550.363281 C 634.925781 551.925781 635.316406 554.660156 634.925781 558.171875 Z M 634.925781 558.171875 " fill-opacity="1" fill-rule="nonzero"/></g><g clip-path="url(#d97a877ebf)"><path fill="#5e5e5e" d="M 184.34375 771.300781 C 183.953125 771.300781 183.5625 771.300781 182.78125 771.300781 C 180.050781 770.910156 177.710938 768.566406 177.320312 765.835938 C 176.539062 762.320312 176.148438 760.761719 175.761719 759.980469 C 174.980469 756.078125 174.980469 751 174.980469 746.707031 C 174.980469 744.757812 174.980469 742.804688 174.980469 740.851562 C 174.589844 733.046875 174.980469 726.410156 175.761719 719.773438 C 178.101562 701.820312 187.855469 686.59375 197.605469 671.761719 C 201.898438 665.125 206.1875 658.488281 209.699219 651.855469 L 222.574219 626.480469 C 223.355469 625.3125 224.132812 623.75 224.523438 622.578125 C 227.253906 617.113281 229.597656 613.210938 229.984375 606.964844 C 229.984375 603.0625 230.375 599.15625 230.375 595.253906 C 230.375 593.300781 230.375 591.351562 230.375 589.398438 C 230.375 585.886719 230.375 581.984375 230.765625 578.078125 C 230.765625 576.128906 230.765625 574.175781 230.765625 572.613281 C 230.765625 564.808594 229.984375 560.515625 226.867188 553.097656 C 225.695312 550.753906 224.523438 548.414062 223.355469 546.070312 C 221.011719 541.777344 219.0625 537.484375 217.503906 532.800781 C 215.550781 527.335938 215.941406 521.480469 216.332031 516.40625 C 216.332031 515.625 216.332031 514.453125 216.332031 513.671875 C 216.332031 510.550781 216.332031 507.816406 216.332031 504.304688 C 216.332031 497.667969 216.332031 491.03125 217.113281 484.785156 C 221.792969 454.730469 219.453125 426.625 216.722656 396.570312 L 208.917969 302.105469 L 190.195312 74.535156 C 189.804688 69.460938 192.144531 64.777344 195.65625 61.652344 C 199.167969 58.53125 204.628906 57.359375 209.308594 58.921875 L 224.914062 63.605469 L 234.277344 63.605469 L 258.074219 54.628906 L 274.851562 42.136719 C 279.53125 38.625 284.992188 36.671875 290.84375 35.890625 L 541.691406 14.8125 C 549.492188 14.03125 556.515625 19.886719 557.292969 27.695312 L 557.292969 28.472656 L 574.070312 195.542969 C 574.070312 195.542969 605.667969 505.867188 605.667969 506.253906 C 605.667969 507.816406 605.667969 508.988281 605.667969 510.550781 C 605.667969 512.890625 605.667969 515.625 606.449219 517.183594 C 606.839844 517.964844 608.007812 518.746094 608.789062 519.917969 C 610.351562 521.480469 612.300781 523.039062 613.472656 525.773438 C 614.640625 528.113281 614.640625 530.847656 614.640625 533.96875 C 613.863281 540.996094 611.128906 546.070312 606.058594 550.363281 C 606.058594 550.363281 586.554688 565.980469 586.554688 565.980469 C 577.582031 573.003906 563.925781 580.421875 553.003906 580.421875 L 545.980469 580.421875 C 541.300781 580.421875 537.789062 583.933594 537.789062 588.617188 C 537.789062 601.5 536.617188 614.773438 528.816406 623.75 C 522.183594 631.554688 513.992188 638.972656 503.847656 646.78125 C 501.117188 648.730469 498.777344 650.292969 496.046875 651.855469 C 492.535156 654.195312 489.023438 656.148438 485.902344 658.878906 C 482 662.394531 480.832031 667.078125 479.269531 672.542969 C 478.882812 673.714844 478.492188 674.496094 478.492188 675.664062 C 478.101562 677.226562 478.101562 679.960938 478.492188 682.691406 C 478.492188 683.863281 478.882812 685.425781 478.882812 686.59375 C 478.882812 695.574219 475.371094 700.257812 470.6875 706.113281 L 469.519531 707.671875 C 466.007812 711.96875 460.933594 714.308594 453.523438 715.089844 C 446.109375 715.871094 438.308594 714.308594 429.335938 710.015625 C 427.777344 709.234375 425.824219 708.0625 423.875 706.894531 C 420.363281 704.550781 416.070312 701.816406 413.339844 702.597656 C 402.417969 704.941406 398.515625 715.480469 394.617188 726.019531 C 394.226562 727.191406 393.835938 727.972656 393.445312 729.140625 C 393.054688 729.921875 392.664062 730.703125 392.664062 731.484375 C 390.714844 736.949219 387.984375 743.976562 380.570312 746.707031 C 379.402344 747.097656 378.621094 747.488281 377.839844 747.878906 C 372.769531 749.832031 368.867188 751 363.796875 744.367188 C 362.625 742.804688 361.847656 740.851562 360.675781 739.292969 C 359.113281 736.167969 357.554688 733.4375 355.214844 732.265625 C 350.921875 729.921875 343.121094 731.484375 339.21875 734.21875 L 337.660156 735.386719 C 332.195312 739.292969 327.515625 742.414062 324.003906 747.488281 C 323.222656 748.269531 322.835938 749.441406 322.054688 750.613281 C 320.492188 753.734375 318.542969 757.246094 314.640625 759.589844 C 306.058594 764.273438 299.425781 763.492188 291.234375 757.636719 C 289.675781 756.464844 288.503906 755.296875 286.941406 754.125 C 283.433594 751 280.3125 748.660156 275.628906 748.269531 C 274.460938 748.269531 272.898438 748.269531 271.730469 747.878906 C 267.046875 747.488281 262.757812 747.097656 258.855469 748.269531 C 256.902344 749.050781 254.953125 749.441406 253.003906 750.222656 C 248.320312 751.78125 244.03125 753.34375 237.789062 753.34375 C 236.617188 753.34375 235.449219 753.34375 234.277344 753.34375 C 228.425781 753.34375 224.132812 753.34375 219.0625 755.296875 C 217.503906 756.078125 215.550781 756.855469 213.992188 757.246094 C 210.871094 758.417969 207.75 759.589844 205.019531 761.152344 C 204.628906 761.152344 192.144531 767.785156 189.023438 769.347656 C 188.242188 770.519531 186.292969 771.300781 184.34375 771.300781 Z M 183.171875 758.027344 L 184.34375 763.882812 L 184.734375 763.492188 L 185.511719 763.101562 C 196.4375 757.636719 200.335938 755.6875 202.289062 754.90625 C 205.410156 753.34375 208.53125 752.171875 211.652344 751 C 213.210938 750.222656 214.773438 749.832031 216.722656 749.050781 C 223.355469 746.316406 228.816406 746.316406 235.058594 746.316406 C 236.226562 746.316406 237.398438 746.316406 238.570312 746.316406 C 243.640625 746.316406 247.152344 745.148438 251.441406 743.585938 C 253.394531 742.804688 255.34375 742.414062 257.683594 741.632812 C 262.757812 740.070312 268.21875 740.460938 272.898438 740.851562 C 274.070312 740.851562 275.238281 741.242188 276.410156 741.242188 C 283.433594 741.632812 287.722656 745.148438 292.015625 748.660156 C 293.183594 749.832031 294.355469 750.609375 295.914062 751.78125 C 301.769531 756.078125 305.277344 756.464844 311.519531 752.953125 C 313.472656 751.78125 314.640625 749.832031 315.8125 747.097656 C 316.59375 745.535156 317.371094 744.367188 318.152344 742.804688 C 322.445312 736.558594 327.90625 732.65625 333.757812 728.753906 L 335.316406 727.582031 C 341.167969 723.675781 352.09375 721.726562 358.726562 725.238281 C 363.015625 727.582031 365.355469 731.484375 366.917969 735.386719 C 367.699219 736.949219 368.476562 738.511719 369.257812 739.683594 C 371.207031 742.414062 371.207031 742.414062 374.71875 740.851562 C 375.5 740.460938 376.671875 740.070312 377.449219 739.683594 C 381.742188 738.121094 383.300781 733.828125 384.863281 728.753906 C 385.253906 727.972656 385.644531 727.191406 385.644531 726.019531 C 386.03125 724.847656 386.421875 724.066406 386.8125 722.898438 C 391.105469 711.96875 396.175781 697.914062 410.609375 695.183594 C 416.070312 694.011719 421.535156 697.523438 426.605469 700.648438 C 428.164062 701.816406 429.726562 702.597656 431.285156 703.378906 C 439.089844 706.894531 445.722656 708.453125 451.960938 707.671875 C 457.425781 707.28125 460.933594 705.722656 462.886719 702.988281 L 464.054688 701.429688 C 468.347656 695.964844 470.6875 692.839844 470.6875 686.59375 C 470.6875 685.421875 470.6875 684.253906 470.296875 683.082031 C 469.910156 679.960938 469.910156 676.445312 470.6875 673.324219 C 471.078125 672.152344 471.46875 671.371094 471.46875 670.199219 C 473.027344 664.34375 474.980469 658.101562 480.050781 653.023438 C 483.5625 649.902344 487.464844 647.558594 491.363281 645.21875 C 494.09375 643.65625 496.4375 642.09375 498.777344 640.535156 C 508.53125 633.117188 516.332031 626.089844 522.574219 618.675781 C 529.207031 610.867188 529.597656 598.765625 529.597656 588.226562 C 529.597656 579.640625 536.617188 573.003906 544.8125 573.003906 L 551.832031 573.003906 C 561.195312 573.003906 573.289062 566.367188 581.089844 560.125 C 581.480469 560.125 600.597656 544.507812 600.597656 544.507812 C 604.109375 541.777344 606.058594 538.265625 606.449219 533.191406 C 606.449219 531.238281 606.449219 529.675781 606.058594 528.113281 C 605.667969 526.945312 604.5 526.164062 603.328125 524.992188 C 602.15625 523.820312 600.597656 522.648438 599.425781 520.699219 C 597.867188 517.574219 597.476562 514.0625 597.476562 510.550781 C 597.476562 509.378906 597.476562 508.207031 597.476562 507.035156 C 597.476562 506.253906 565.878906 196.324219 565.878906 196.324219 L 549.882812 28.472656 C 549.492188 24.570312 545.980469 21.839844 542.078125 22.230469 L 291.625 42.917969 C 286.941406 43.308594 282.652344 44.867188 279.140625 47.601562 L 261.585938 60.871094 L 235.839844 70.632812 L 224.132812 70.632812 L 207.359375 65.558594 C 205.019531 64.777344 202.289062 65.167969 200.335938 67.117188 C 198.386719 68.679688 197.214844 71.023438 197.605469 73.753906 L 217.113281 310.695312 L 224.132812 395.398438 C 226.867188 425.84375 229.207031 454.730469 224.523438 485.566406 C 223.746094 491.421875 223.746094 497.667969 223.746094 503.914062 C 223.746094 507.035156 223.746094 510.160156 223.746094 513.28125 C 223.746094 514.453125 223.746094 515.234375 223.746094 516.40625 C 223.355469 521.480469 223.355469 526.164062 224.914062 530.457031 C 226.085938 534.75 228.425781 538.65625 230.375 542.558594 C 231.546875 544.898438 233.105469 547.632812 234.277344 549.972656 C 237.789062 558.171875 238.957031 563.636719 238.957031 572.613281 C 238.957031 574.566406 238.957031 576.519531 238.957031 578.078125 C 238.957031 581.59375 238.570312 585.496094 238.570312 589.007812 C 238.570312 590.960938 238.570312 592.914062 238.570312 594.863281 C 238.570312 598.765625 238.570312 602.671875 238.179688 606.964844 C 237.789062 614.773438 235.058594 619.847656 231.9375 625.703125 C 231.15625 626.871094 230.765625 628.042969 229.984375 629.605469 L 217.113281 654.976562 C 213.601562 662.003906 208.917969 669.03125 205.019531 675.664062 C 196.046875 689.71875 186.683594 704.160156 184.34375 720.554688 C 183.5625 726.800781 183.5625 733.046875 183.5625 740.460938 C 183.5625 742.414062 183.5625 744.367188 183.5625 746.707031 C 182.390625 750.613281 182.390625 754.90625 183.171875 758.027344 Z M 183.171875 758.027344 " fill-opacity="1" fill-rule="nonzero"/></g><g clip-path="url(#81c0735e90)"><path fill="#67ea94" d="M 280.175781 233.3125 L 529.996094 233.3125 C 545.871094 233.3125 558.761719 246.199219 558.761719 262.074219 L 558.761719 413.613281 L 251.40625 413.613281 L 251.40625 262.074219 C 251.40625 246.199219 264.300781 233.3125 280.175781 233.3125 Z M 280.175781 233.3125 " fill-opacity="1" fill-rule="nonzero"/></g><g clip-path="url(#e5e4e44e7f)"><path fill="#2c2d3c" d="M 251.261719 413.613281 L 558.761719 413.613281 L 558.761719 501.460938 C 558.761719 517.347656 545.863281 530.246094 529.976562 530.246094 L 280.050781 530.246094 C 264.164062 530.246094 251.261719 517.347656 251.261719 501.460938 Z M 251.261719 413.613281 " fill-opacity="1" fill-rule="nonzero"/></g><path fill="#2c2d3c" d="M 439.648438 292.265625 C 437.351562 295.53125 435.230469 298.535156 433.121094 301.546875 C 413.847656 329.101562 394.574219 356.660156 375.296875 384.21875 C 375.121094 384.46875 374.949219 384.726562 374.757812 384.964844 C 373.582031 386.46875 373.429688 386.511719 371.777344 385.417969 C 367.871094 382.832031 363.976562 380.226562 360.085938 377.613281 C 357.691406 376.003906 357.65625 375.820312 359.296875 373.480469 C 369.117188 359.457031 378.945312 345.433594 388.773438 331.414062 C 402.042969 312.492188 415.304688 293.566406 428.589844 274.652344 C 429.777344 272.964844 430.859375 271.203125 432.355469 269.722656 C 436.429688 265.6875 443.820312 265.867188 447.410156 270.734375 C 450.511719 274.9375 453.507812 279.207031 456.527344 283.464844 C 477.714844 313.339844 498.871094 343.234375 520.035156 373.125 C 522.445312 376.527344 522.230469 376.136719 519.066406 378.332031 C 515.46875 380.824219 511.820312 383.25 508.195312 385.699219 C 505.96875 387.203125 505.941406 387.222656 504.433594 385.066406 C 498.976562 377.265625 493.535156 369.453125 488.089844 361.640625 C 472.460938 339.21875 456.832031 316.789062 441.203125 294.367188 C 440.765625 293.738281 440.292969 293.136719 439.648438 292.265625 Z M 439.648438 292.265625 " fill-opacity="1" fill-rule="nonzero"/><path fill="#2c2d3c" d="M 363.734375 264.542969 C 366.152344 266.21875 368.476562 267.828125 370.796875 269.4375 C 373.007812 270.964844 375.230469 272.480469 377.429688 274.027344 C 378.988281 275.121094 378.988281 275.160156 377.914062 276.703125 C 372.679688 284.195312 367.445312 291.6875 362.203125 299.179688 C 349.390625 317.492188 336.570312 335.800781 323.757812 354.117188 C 316.625 364.3125 309.496094 374.511719 302.367188 384.710938 C 302.234375 384.898438 302.105469 385.089844 301.964844 385.273438 C 300.953125 386.585938 300.929688 386.621094 299.601562 385.722656 C 295.527344 382.980469 291.460938 380.226562 287.417969 377.433594 C 285.679688 376.230469 285.675781 376.035156 286.976562 374.171875 C 298.464844 357.742188 309.960938 341.316406 321.453125 324.890625 C 334.269531 306.578125 347.082031 288.265625 359.902344 269.953125 C 361.128906 268.195312 362.378906 266.453125 363.730469 264.542969 Z M 363.734375 264.542969 " fill-opacity="1" fill-rule="nonzero"/><path fill="#ffffff" d="M 301.777344 436.875 C 310.679688 436.875 317.511719 438.484375 322.277344 441.707031 C 327.042969 444.929688 329.425781 450.207031 329.425781 457.535156 C 329.425781 464.929688 327.015625 470.261719 322.191406 473.542969 C 317.367188 476.824219 310.476562 478.464844 301.519531 478.464844 L 297.84375 478.464844 C 297.542969 478.464844 297.300781 478.710938 297.300781 479.011719 L 297.300781 498.496094 C 297.300781 498.796875 297.054688 499.039062 296.753906 499.039062 L 284.40625 499.039062 C 284.105469 499.039062 283.863281 498.796875 283.863281 498.496094 L 283.863281 438.917969 C 283.863281 438.660156 284.046875 438.433594 284.300781 438.382812 C 287.101562 437.839844 290.054688 437.453125 293.164062 437.230469 C 296.4375 436.992188 299.308594 436.875 301.777344 436.875 Z M 302.640625 448.667969 C 301.664062 448.667969 300.703125 448.699219 299.753906 448.757812 C 299.027344 448.804688 298.375 448.847656 297.800781 448.894531 C 297.515625 448.917969 297.300781 449.152344 297.300781 449.433594 C 297.300781 451.980469 297.300781 463.488281 297.300781 466.128906 C 297.300781 466.429688 297.542969 466.671875 297.84375 466.671875 L 301.519531 466.671875 C 306.171875 466.671875 309.671875 466.023438 312.027344 464.71875 C 314.382812 463.421875 315.558594 460.996094 315.558594 457.449219 C 315.558594 455.734375 315.257812 454.316406 314.65625 453.191406 C 314.050781 452.070312 313.191406 451.167969 312.070312 450.488281 C 310.953125 449.808594 309.585938 449.332031 307.980469 449.066406 C 306.371094 448.800781 304.589844 448.667969 302.640625 448.667969 Z M 302.640625 448.667969 " fill-opacity="1" fill-rule="nonzero"/><path fill="#ffffff" d="M 378.777344 443.757812 C 379.019531 443.757812 379.230469 443.914062 379.296875 444.148438 C 379.964844 446.480469 380.691406 449.085938 381.488281 451.972656 C 382.328125 455.023438 383.226562 458.175781 384.183594 461.429688 C 385.136719 464.6875 386.109375 467.945312 387.09375 471.199219 C 388.078125 474.457031 389.03125 477.476562 389.960938 480.257812 C 390.71875 477.238281 391.488281 473.953125 392.277344 470.398438 C 393.0625 466.847656 393.804688 463.175781 394.503906 459.386719 C 395.203125 455.597656 395.890625 451.824219 396.558594 448.066406 C 397.199219 444.46875 397.804688 440.992188 398.363281 437.636719 C 398.410156 437.375 398.632812 437.1875 398.898438 437.1875 C 400.972656 437.1875 409.4375 437.1875 411.878906 437.1875 C 412.222656 437.1875 412.480469 437.5 412.414062 437.835938 C 410.402344 447.925781 408.09375 458.160156 405.496094 468.535156 C 402.875 478.992188 400.039062 488.933594 396.996094 498.351562 C 396.921875 498.578125 396.710938 498.730469 396.476562 498.730469 L 384.839844 498.730469 C 384.609375 498.730469 384.402344 498.585938 384.328125 498.367188 C 382.34375 492.792969 380.417969 486.949219 378.546875 480.835938 C 376.636719 474.589844 374.753906 468.328125 372.902344 462.050781 C 371.042969 468.328125 369.183594 474.589844 367.328125 480.835938 C 365.507812 486.949219 363.605469 492.792969 361.617188 498.367188 C 361.539062 498.585938 361.335938 498.730469 361.105469 498.730469 L 349.480469 498.730469 C 349.242188 498.730469 349.03125 498.578125 348.960938 498.351562 C 345.917969 488.933594 343.089844 478.992188 340.472656 468.535156 C 337.878906 458.160156 335.574219 447.925781 333.566406 437.835938 C 333.5 437.5 333.757812 437.1875 334.101562 437.1875 L 347.683594 437.1875 C 347.949219 437.1875 348.175781 437.375 348.21875 437.636719 C 348.78125 440.992188 349.398438 444.46875 350.070312 448.066406 C 350.769531 451.824219 351.496094 455.597656 352.253906 459.386719 C 353.011719 463.175781 353.785156 466.847656 354.570312 470.398438 C 355.359375 473.953125 356.160156 477.238281 356.976562 480.257812 C 358.023438 477.355469 359.039062 474.277344 360.027344 471.019531 C 361.015625 467.765625 361.976562 464.507812 362.90625 461.253906 C 363.835938 457.996094 364.691406 454.859375 365.476562 451.839844 C 366.21875 448.988281 366.894531 446.429688 367.503906 444.15625 C 367.570312 443.921875 367.78125 443.757812 368.027344 443.757812 C 369.832031 443.757812 376.984375 443.757812 378.777344 443.757812 Z M 378.777344 443.757812 " fill-opacity="1" fill-rule="nonzero"/><path fill="#ffffff" d="M 438.082031 436.742188 C 446.960938 436.742188 453.761719 438.390625 458.484375 441.6875 C 463.207031 444.980469 465.570312 450.101562 465.570312 457.046875 C 465.570312 461.382812 464.617188 464.902344 462.710938 467.601562 C 460.917969 470.144531 458.378906 472.171875 455.101562 473.6875 C 454.78125 473.835938 454.679688 474.234375 454.890625 474.515625 C 455.957031 475.925781 457.070312 477.507812 458.230469 479.265625 C 459.539062 481.257812 460.832031 483.335938 462.113281 485.5 C 463.394531 487.667969 464.632812 489.925781 465.828125 492.269531 C 466.886719 494.347656 467.878906 496.394531 468.804688 498.402344 C 468.96875 498.761719 468.703125 499.171875 468.308594 499.171875 L 454.59375 499.171875 C 454.394531 499.171875 454.210938 499.0625 454.113281 498.886719 C 453.078125 496.960938 452.03125 495.007812 450.96875 493.027344 C 449.855469 490.949219 448.710938 488.929688 447.542969 486.96875 C 446.371094 485.011719 445.210938 483.15625 444.070312 481.40625 C 442.980469 479.738281 441.894531 478.21875 440.804688 476.84375 C 440.703125 476.714844 440.542969 476.640625 440.378906 476.640625 L 434.613281 476.640625 C 434.3125 476.640625 434.066406 476.882812 434.066406 477.183594 L 434.066406 498.628906 C 434.066406 498.929688 433.824219 499.171875 433.523438 499.171875 L 421.292969 499.171875 C 420.992188 499.171875 420.75 498.929688 420.75 498.628906 L 420.75 438.792969 C 420.75 438.535156 420.933594 438.308594 421.1875 438.257812 C 423.953125 437.710938 426.808594 437.324219 429.757812 437.101562 C 432.859375 436.863281 435.632812 436.742188 438.082031 436.742188 Z M 438.847656 448.589844 C 437.878906 448.589844 437.011719 448.617188 436.246094 448.675781 C 435.660156 448.722656 435.101562 448.769531 434.566406 448.8125 C 434.285156 448.835938 434.066406 449.074219 434.066406 449.355469 L 434.066406 465.054688 C 434.066406 465.355469 434.3125 465.597656 434.613281 465.597656 L 437.824219 465.597656 C 442.832031 465.597656 446.417969 464.945312 448.582031 463.636719 C 450.742188 462.332031 451.824219 460.105469 451.824219 456.960938 C 451.824219 453.929688 450.730469 451.78125 448.539062 450.503906 C 446.347656 449.226562 443.117188 448.589844 438.847656 448.589844 Z M 438.847656 448.589844 " fill-opacity="1" fill-rule="nonzero"/><path fill="#ffffff" d="M 529.457031 467.871094 C 529.457031 473.167969 528.652344 477.789062 527.046875 481.730469 C 525.441406 485.675781 523.160156 488.941406 520.207031 491.53125 C 517.253906 494.121094 513.652344 496.0625 509.40625 497.359375 C 505.164062 498.652344 500.402344 499.300781 495.125 499.300781 C 492.714844 499.300781 489.902344 499.195312 486.691406 498.992188 C 483.628906 498.792969 480.621094 498.398438 477.660156 497.800781 C 477.40625 497.75 477.226562 497.523438 477.226562 497.265625 L 477.226562 438.570312 C 477.226562 438.304688 477.414062 438.078125 477.671875 438.03125 C 480.632812 437.488281 483.710938 437.121094 486.90625 436.921875 C 490.261719 436.71875 493.144531 436.613281 495.554688 436.613281 C 500.660156 436.613281 505.289062 437.203125 509.449219 438.378906 C 513.609375 439.558594 517.179688 441.414062 520.164062 443.941406 C 523.148438 446.472656 525.441406 449.710938 527.046875 453.652344 C 528.652344 457.597656 529.457031 462.335938 529.457031 467.867188 Z M 490.648438 486.792969 C 490.648438 487.078125 490.867188 487.3125 491.152344 487.335938 C 491.660156 487.375 492.222656 487.402344 492.84375 487.425781 C 493.675781 487.457031 494.664062 487.46875 495.8125 487.46875 C 502.523438 487.46875 507.5 485.734375 510.742188 482.261719 C 513.980469 478.789062 515.605469 473.992188 515.605469 467.871094 C 515.605469 461.453125 514.054688 456.597656 510.957031 453.300781 C 507.859375 450.003906 502.953125 448.355469 496.242188 448.355469 C 495.324219 448.355469 494.378906 448.371094 493.402344 448.402344 C 492.605469 448.425781 491.847656 448.480469 491.125 448.5625 C 490.851562 448.59375 490.648438 448.828125 490.648438 449.101562 Z M 490.648438 486.792969 " fill-opacity="1" fill-rule="nonzero"/></svg>